%TF.GenerationSoftware,KiCad,Pcbnew,10.0.1*%
%TF.CreationDate,2026-05-25T22:35:25+01:00*%
%TF.ProjectId,Thin-Pod,5468696e-2d50-46f6-942e-6b696361645f,rev?*%
%TF.SameCoordinates,Original*%
%TF.FileFunction,Copper,L1,Top*%
%TF.FilePolarity,Positive*%
%FSLAX46Y46*%
G04 Gerber Fmt 4.6, Leading zero omitted, Abs format (unit mm)*
G04 Created by KiCad (PCBNEW 10.0.1) date 2026-05-25 22:35:25*
%MOMM*%
%LPD*%
G01*
G04 APERTURE LIST*
G04 Aperture macros list*
%AMRoundRect*
0 Rectangle with rounded corners*
0 $1 Rounding radius*
0 $2 $3 $4 $5 $6 $7 $8 $9 X,Y pos of 4 corners*
0 Add a 4 corners polygon primitive as box body*
4,1,4,$2,$3,$4,$5,$6,$7,$8,$9,$2,$3,0*
0 Add four circle primitives for the rounded corners*
1,1,$1+$1,$2,$3*
1,1,$1+$1,$4,$5*
1,1,$1+$1,$6,$7*
1,1,$1+$1,$8,$9*
0 Add four rect primitives between the rounded corners*
20,1,$1+$1,$2,$3,$4,$5,0*
20,1,$1+$1,$4,$5,$6,$7,0*
20,1,$1+$1,$6,$7,$8,$9,0*
20,1,$1+$1,$8,$9,$2,$3,0*%
G04 Aperture macros list end*
%TA.AperFunction,Conductor*%
%ADD10C,0.200000*%
%TD*%
%TA.AperFunction,ComponentPad*%
%ADD11RoundRect,0.249999X0.850001X0.850001X-0.850001X0.850001X-0.850001X-0.850001X0.850001X-0.850001X0*%
%TD*%
%TA.AperFunction,ComponentPad*%
%ADD12C,2.200000*%
%TD*%
%TA.AperFunction,ComponentPad*%
%ADD13C,1.600000*%
%TD*%
%TA.AperFunction,ComponentPad*%
%ADD14C,1.500000*%
%TD*%
%TA.AperFunction,ComponentPad*%
%ADD15C,1.800000*%
%TD*%
%TA.AperFunction,ComponentPad*%
%ADD16R,1.800000X1.800000*%
%TD*%
%TA.AperFunction,ComponentPad*%
%ADD17RoundRect,0.250000X-0.550000X-0.550000X0.550000X-0.550000X0.550000X0.550000X-0.550000X0.550000X0*%
%TD*%
%TA.AperFunction,ComponentPad*%
%ADD18RoundRect,0.250000X-0.350000X-0.625000X0.350000X-0.625000X0.350000X0.625000X-0.350000X0.625000X0*%
%TD*%
%TA.AperFunction,ComponentPad*%
%ADD19O,1.200000X1.750000*%
%TD*%
%TA.AperFunction,ComponentPad*%
%ADD20C,2.300000*%
%TD*%
%TA.AperFunction,ComponentPad*%
%ADD21C,1.524000*%
%TD*%
%TA.AperFunction,ComponentPad*%
%ADD22C,5.000000*%
%TD*%
%TA.AperFunction,ViaPad*%
%ADD23C,0.600000*%
%TD*%
G04 APERTURE END LIST*
%TO.N,/ADC_NODE*%
D10*
X157000000Y-91000000D02*
X158880000Y-88500000D01*
X157000000Y-100000000D02*
X157000000Y-91000000D01*
X161000000Y-104000000D02*
X157000000Y-100000000D01*
X162000000Y-104000000D02*
X161000000Y-104000000D01*
%TD*%
D11*
%TO.P,D1,1,K_1*%
%TO.N,/RAW_PROT*%
X166080000Y-111000000D03*
D12*
%TO.P,D1,2,A_2*%
%TO.N,/RAW_FUSED*%
X155920000Y-111000000D03*
%TD*%
D13*
%TO.P,C2,1*%
%TO.N,/GND*%
X175500000Y-88000000D03*
%TO.P,C2,2*%
%TO.N,/ACC_3V3_SW*%
X178000000Y-88000000D03*
%TD*%
D14*
%TO.P,TP3,1,1_1*%
%TO.N,/RAW_PROT*%
X151500000Y-103000000D03*
%TD*%
%TO.P,TP1,1,1_1*%
%TO.N,/RAW_IN*%
X158000000Y-116000000D03*
%TD*%
D13*
%TO.P,C3,1*%
%TO.N,/GND*%
X175500000Y-95000000D03*
%TO.P,C3,2*%
%TO.N,/ACC_3V3_SW*%
X180500000Y-95000000D03*
%TD*%
D15*
%TO.P,U4,1,VOUT_1*%
%TO.N,/3V3+*%
X160020000Y-68710000D03*
%TO.P,U4,2,VIN_2*%
%TO.N,/RAW_PROT*%
X160020000Y-73790000D03*
%TO.P,U4,3,GND_3*%
%TO.N,/GND*%
X160020000Y-71250000D03*
D16*
%TO.P,U4,4,EN_4*%
%TO.N,unconnected-(U4-EN-Pad4)*%
X160020000Y-76330000D03*
%TD*%
D13*
%TO.P,R2,1*%
%TO.N,/PFET_GATE*%
X158880000Y-93500000D03*
%TO.P,R2,2*%
%TO.N,/GND*%
X166500000Y-93500000D03*
%TD*%
D14*
%TO.P,TP7,1,1_1*%
%TO.N,/ADC_NODE*%
X178500000Y-74500000D03*
%TD*%
D13*
%TO.P,R1,1*%
%TO.N,/ADC_NODE*%
X158880000Y-88500000D03*
%TO.P,R1,2*%
%TO.N,/ACC_VOUT*%
X166500000Y-88500000D03*
%TD*%
D14*
%TO.P,TP6,1,1_1*%
%TO.N,/ACC_VOUT*%
X178500000Y-65000000D03*
%TD*%
D13*
%TO.P,U3,D,Drain_D*%
%TO.N,/ACC_3V3_SW*%
X166500000Y-83500000D03*
%TO.P,U3,G,Gate_G*%
%TO.N,/PFET_GATE*%
X162900000Y-83500000D03*
D17*
%TO.P,U3,S,Source_S*%
%TO.N,/3V3+*%
X159300000Y-83500000D03*
%TD*%
D14*
%TO.P,TP2,1,1_1*%
%TO.N,/RAW_FUSED*%
X151500000Y-107500000D03*
%TD*%
D18*
%TO.P,J1,1,RAW_IN_/_+_1*%
%TO.N,/RAW_IN*%
X174000000Y-113000000D03*
D19*
%TO.P,J1,2,GND_/_-_2*%
%TO.N,/GND*%
X176000000Y-113000000D03*
%TD*%
D20*
%TO.P,F1,1*%
%TO.N,/RAW_IN*%
X151250000Y-114000000D03*
X146050000Y-114000000D03*
%TO.P,F1,2*%
%TO.N,/RAW_FUSED*%
X135950000Y-114000000D03*
X130750000Y-114000000D03*
%TD*%
D13*
%TO.P,R4,1*%
%TO.N,/GND*%
X158690000Y-104000000D03*
%TO.P,R4,2*%
%TO.N,/ADC_NODE*%
X166310000Y-104000000D03*
%TD*%
D21*
%TO.P,U5,J1_1,3V3+_J1_1*%
%TO.N,/3V3+*%
X119760000Y-89400000D03*
%TO.P,U5,J1_2,GND_J1_2*%
%TO.N,/GND*%
X119760000Y-86860000D03*
%TO.P,U5,J10_1*%
%TO.N,N/C*%
X147000000Y-55840000D03*
%TO.P,U5,J10_2*%
X149540000Y-55840000D03*
%TO.P,U5,J10_3*%
X147000000Y-58380000D03*
%TO.P,U5,J10_4*%
X149540000Y-58380000D03*
%TO.P,U5,J10_5*%
X147000000Y-60920000D03*
%TO.P,U5,J10_6*%
%TO.N,/GND*%
X149540000Y-60920000D03*
%TO.P,U5,J10_7*%
%TO.N,N/C*%
X147000000Y-63460000D03*
%TO.P,U5,J10_8*%
X149540000Y-63460000D03*
%TO.P,U5,J10_9*%
%TO.N,/GND*%
X147000000Y-66000000D03*
%TO.P,U5,J10_10*%
%TO.N,N/C*%
X149540000Y-66000000D03*
%TO.P,U5,J10_11*%
X147000000Y-68540000D03*
%TO.P,U5,J10_12*%
X149540000Y-68540000D03*
%TO.P,U5,J10_13*%
X147000000Y-71080000D03*
%TO.P,U5,J10_14*%
%TO.N,/GND*%
X149540000Y-71080000D03*
%TO.P,U5,J10_15,J10.15_(ADC_input)_P0.28_J10_15*%
%TO.N,/ADC_NODE*%
X147000000Y-73620000D03*
%TO.P,U5,J10_16*%
%TO.N,N/C*%
X149540000Y-73620000D03*
%TO.P,U5,J10_17*%
X147000000Y-76160000D03*
%TO.P,U5,J10_18*%
X149540000Y-76160000D03*
%TO.P,U5,J10_19*%
X147000000Y-78700000D03*
%TO.P,U5,J10_20*%
%TO.N,/GND*%
X149540000Y-78700000D03*
%TO.P,U5,J10_21*%
%TO.N,N/C*%
X147000000Y-81240000D03*
%TO.P,U5,J10_22*%
X149540000Y-81240000D03*
%TO.P,U5,J10_23*%
X147000000Y-83780000D03*
%TO.P,U5,J10_24,J10.24_(CS_RPI)_P0.30_J10_24*%
%TO.N,/PFET_CTRL*%
X149540000Y-83780000D03*
%TO.P,U5,J10_25*%
%TO.N,/GND*%
X147000000Y-86320000D03*
%TO.P,U5,J10_26*%
%TO.N,N/C*%
X149540000Y-86320000D03*
D22*
%TO.P,U5,SH1*%
X147900000Y-47330000D03*
%TO.P,U5,SH2*%
X112400000Y-93330000D03*
%TO.P,U5,SH3*%
X147900000Y-93330000D03*
%TD*%
D16*
%TO.P,U2,1,STB_1*%
%TO.N,unconnected-(U2-STB-Pad1)*%
X159250000Y-56500000D03*
D15*
%TO.P,U2,2,ORo_2*%
%TO.N,unconnected-(U2-ORo-Pad2)*%
X159250000Y-53960000D03*
%TO.P,U2,3,Vout_3*%
%TO.N,/ACC_VOUT*%
X159250000Y-51420000D03*
%TO.P,U2,4,ST_4*%
%TO.N,unconnected-(U2-ST-Pad4)*%
X171000000Y-56500000D03*
%TO.P,U2,5,Gnd_5*%
%TO.N,/GND*%
X171000000Y-53960000D03*
%TO.P,U2,6,Vdd_3V3_6*%
%TO.N,/ACC_3V3_SW*%
X171000000Y-51420000D03*
%TD*%
D14*
%TO.P,TP5,1,1_1*%
%TO.N,/GND*%
X145500000Y-107500000D03*
%TD*%
D13*
%TO.P,C1,1*%
%TO.N,/GND*%
X175500000Y-83500000D03*
%TO.P,C1,2*%
%TO.N,/ADC_NODE*%
X178000000Y-83500000D03*
%TD*%
%TO.P,R3,1*%
%TO.N,/PFET_GATE*%
X158690000Y-99000000D03*
%TO.P,R3,2*%
%TO.N,/PFET_CTRL*%
X166310000Y-99000000D03*
%TD*%
D14*
%TO.P,TP4,1,1_1*%
%TO.N,/3V3+*%
X145500000Y-103000000D03*
%TD*%
D23*
%TO.N,/3V3+*%
X154000000Y-84000000D03*
X154000000Y-89000000D03*
%TO.N,/ADC_NODE*%
X174000000Y-86000000D03*
%TO.N,/PFET_CTRL*%
X165360000Y-99000000D03*
%TD*%
%TO.N,/RAW_PROT*%
D10*
X155000000Y-89000000D02*
X155000000Y-78810000D01*
X151500000Y-103000000D02*
X152000000Y-103000000D01*
X166080000Y-111000000D02*
X166080000Y-108080000D01*
X151500000Y-103000000D02*
X151000000Y-103000000D01*
X155000000Y-106500000D02*
X151500000Y-103000000D01*
X155000000Y-99000000D02*
X155000000Y-89000000D01*
X151500000Y-102500000D02*
X155000000Y-99000000D01*
X164500000Y-106500000D02*
X155000000Y-106500000D01*
X151500000Y-103000000D02*
X151500000Y-102500000D01*
X166080000Y-108080000D02*
X164500000Y-106500000D01*
X155000000Y-78810000D02*
X160020000Y-73790000D01*
%TO.N,/RAW_FUSED*%
X150000000Y-109000000D02*
X151500000Y-107500000D01*
X151500000Y-107500000D02*
X152420000Y-107500000D01*
X137000000Y-110000000D02*
X135900000Y-111100000D01*
X150000000Y-110000000D02*
X137000000Y-110000000D01*
X152420000Y-107500000D02*
X155920000Y-111000000D01*
X150000000Y-110000000D02*
X150000000Y-109000000D01*
X135900000Y-111100000D02*
X135900000Y-114500000D01*
X135900000Y-114500000D02*
X130700000Y-114500000D01*
%TO.N,/GND*%
X171000000Y-53960000D02*
X171000000Y-54000000D01*
%TO.N,/RAW_IN*%
X152700000Y-116000000D02*
X151200000Y-114500000D01*
X174000000Y-113000000D02*
X171000000Y-116000000D01*
X171000000Y-116000000D02*
X158000000Y-116000000D01*
X151200000Y-114500000D02*
X146000000Y-114500000D01*
X158000000Y-116000000D02*
X152700000Y-116000000D01*
%TO.N,/3V3+*%
X165000000Y-76000000D02*
X165000000Y-70000000D01*
X161310000Y-70000000D02*
X160020000Y-68710000D01*
X119760000Y-89400000D02*
X119760000Y-100760000D01*
X159300000Y-81700000D02*
X165000000Y-76000000D01*
X119760000Y-100760000D02*
X122000000Y-103000000D01*
X154000000Y-89000000D02*
X154000000Y-84000000D01*
X159300000Y-83500000D02*
X159300000Y-81700000D01*
X122000000Y-103000000D02*
X145500000Y-103000000D01*
X165000000Y-70000000D02*
X161310000Y-70000000D01*
%TO.N,unconnected-(U4-EN-Pad4)*%
X160020000Y-76330000D02*
X160670000Y-76330000D01*
%TO.N,/PFET_GATE*%
X162900000Y-94790000D02*
X162900000Y-83500000D01*
X158690000Y-93690000D02*
X158880000Y-93500000D01*
X158690000Y-99000000D02*
X158690000Y-93690000D01*
X158690000Y-99000000D02*
X162900000Y-94790000D01*
%TO.N,/ADC_NODE*%
X162134365Y-104000000D02*
X166310000Y-104000000D01*
X174000000Y-86000000D02*
X175500000Y-86000000D01*
X158880000Y-88500000D02*
X158880000Y-89202064D01*
X175500000Y-86000000D02*
X178000000Y-83500000D01*
%TO.N,/ACC_VOUT*%
X170290000Y-84710000D02*
X170290000Y-65000000D01*
X166500000Y-88500000D02*
X170290000Y-84710000D01*
X178500000Y-65000000D02*
X170290000Y-65000000D01*
X170290000Y-65000000D02*
X170290000Y-62460000D01*
X170290000Y-62460000D02*
X159250000Y-51420000D01*
%TO.N,/PFET_CTRL*%
X166310000Y-99000000D02*
X165360000Y-99000000D01*
%TD*%
%TA.AperFunction,Conductor*%
%TO.N,/GND*%
G36*
X148341446Y-84240165D02*
G01*
X148380484Y-84285218D01*
X148460213Y-84441694D01*
X148577019Y-84602464D01*
X148717536Y-84742981D01*
X148878306Y-84859787D01*
X148996832Y-84920179D01*
X149034780Y-84939515D01*
X149085576Y-84987490D01*
X149102371Y-85055311D01*
X149079833Y-85121446D01*
X149034780Y-85160485D01*
X148878305Y-85240213D01*
X148717533Y-85357021D01*
X148577021Y-85497533D01*
X148460213Y-85658305D01*
X148380204Y-85815331D01*
X148332229Y-85866127D01*
X148264408Y-85882922D01*
X148198273Y-85860384D01*
X148159234Y-85815331D01*
X148079358Y-85658567D01*
X148052268Y-85621283D01*
X147489494Y-86184057D01*
X147473381Y-86123919D01*
X147406502Y-86008080D01*
X147311920Y-85913498D01*
X147196081Y-85846619D01*
X147135942Y-85830504D01*
X147698716Y-85267731D01*
X147698715Y-85267730D01*
X147661432Y-85240641D01*
X147504668Y-85160765D01*
X147453872Y-85112790D01*
X147437077Y-85044969D01*
X147459615Y-84978834D01*
X147504667Y-84939796D01*
X147661694Y-84859787D01*
X147822464Y-84742981D01*
X147962981Y-84602464D01*
X148079787Y-84441694D01*
X148159515Y-84285218D01*
X148207490Y-84234423D01*
X148275311Y-84217628D01*
X148341446Y-84240165D01*
G37*
%TD.AperFunction*%
%TA.AperFunction,Conductor*%
G36*
X149066619Y-78896081D02*
G01*
X149133498Y-79011920D01*
X149228080Y-79106502D01*
X149343919Y-79173381D01*
X149404057Y-79189494D01*
X148841283Y-79752268D01*
X148841283Y-79752269D01*
X148878567Y-79779358D01*
X149035331Y-79859234D01*
X149086127Y-79907209D01*
X149102922Y-79975030D01*
X149080384Y-80041165D01*
X149035331Y-80080204D01*
X148878305Y-80160213D01*
X148717533Y-80277021D01*
X148577021Y-80417533D01*
X148460213Y-80578305D01*
X148380485Y-80734780D01*
X148332510Y-80785576D01*
X148264689Y-80802371D01*
X148198554Y-80779833D01*
X148159515Y-80734780D01*
X148079786Y-80578305D01*
X147962981Y-80417536D01*
X147822464Y-80277019D01*
X147661694Y-80160213D01*
X147505218Y-80080484D01*
X147454423Y-80032510D01*
X147437628Y-79964689D01*
X147460165Y-79898554D01*
X147505218Y-79859515D01*
X147661694Y-79779787D01*
X147822464Y-79662981D01*
X147962981Y-79522464D01*
X148079787Y-79361694D01*
X148159796Y-79204667D01*
X148207769Y-79153872D01*
X148275590Y-79137077D01*
X148341725Y-79159614D01*
X148380765Y-79204668D01*
X148460641Y-79361432D01*
X148487730Y-79398715D01*
X148487731Y-79398716D01*
X149050504Y-78835942D01*
X149066619Y-78896081D01*
G37*
%TD.AperFunction*%
%TA.AperFunction,Conductor*%
G36*
X148341446Y-76620165D02*
G01*
X148380484Y-76665218D01*
X148460213Y-76821694D01*
X148577019Y-76982464D01*
X148717536Y-77122981D01*
X148878306Y-77239787D01*
X149035332Y-77319796D01*
X149086127Y-77367769D01*
X149102922Y-77435590D01*
X149080385Y-77501725D01*
X149035332Y-77540764D01*
X148878566Y-77620641D01*
X148841283Y-77647729D01*
X148841282Y-77647730D01*
X149404058Y-78210504D01*
X149343919Y-78226619D01*
X149228080Y-78293498D01*
X149133498Y-78388080D01*
X149066619Y-78503919D01*
X149050504Y-78564057D01*
X148487730Y-78001282D01*
X148487729Y-78001283D01*
X148460641Y-78038566D01*
X148380764Y-78195332D01*
X148332790Y-78246127D01*
X148264969Y-78262922D01*
X148198834Y-78240384D01*
X148159796Y-78195332D01*
X148079787Y-78038306D01*
X147962981Y-77877536D01*
X147822464Y-77737019D01*
X147661694Y-77620213D01*
X147505218Y-77540484D01*
X147454423Y-77492510D01*
X147437628Y-77424689D01*
X147460165Y-77358554D01*
X147505218Y-77319515D01*
X147661694Y-77239787D01*
X147822464Y-77122981D01*
X147962981Y-76982464D01*
X148079787Y-76821694D01*
X148159515Y-76665218D01*
X148207490Y-76614423D01*
X148275311Y-76597628D01*
X148341446Y-76620165D01*
G37*
%TD.AperFunction*%
%TA.AperFunction,Conductor*%
G36*
X149066619Y-71276081D02*
G01*
X149133498Y-71391920D01*
X149228080Y-71486502D01*
X149343919Y-71553381D01*
X149404057Y-71569494D01*
X148841283Y-72132268D01*
X148841283Y-72132269D01*
X148878567Y-72159358D01*
X149035331Y-72239234D01*
X149086127Y-72287209D01*
X149102922Y-72355030D01*
X149080384Y-72421165D01*
X149035331Y-72460204D01*
X148878305Y-72540213D01*
X148717533Y-72657021D01*
X148577021Y-72797533D01*
X148460213Y-72958305D01*
X148380485Y-73114780D01*
X148332510Y-73165576D01*
X148264689Y-73182371D01*
X148198554Y-73159833D01*
X148159515Y-73114780D01*
X148129554Y-73055978D01*
X148079787Y-72958306D01*
X147962981Y-72797536D01*
X147822464Y-72657019D01*
X147661694Y-72540213D01*
X147505218Y-72460484D01*
X147454423Y-72412510D01*
X147437628Y-72344689D01*
X147460165Y-72278554D01*
X147505218Y-72239515D01*
X147661694Y-72159787D01*
X147822464Y-72042981D01*
X147962981Y-71902464D01*
X148079787Y-71741694D01*
X148159796Y-71584667D01*
X148207769Y-71533872D01*
X148275590Y-71517077D01*
X148341725Y-71539614D01*
X148380765Y-71584668D01*
X148460641Y-71741432D01*
X148487730Y-71778715D01*
X148487731Y-71778716D01*
X149050504Y-71215942D01*
X149066619Y-71276081D01*
G37*
%TD.AperFunction*%
%TA.AperFunction,Conductor*%
G36*
X148341446Y-69000165D02*
G01*
X148380484Y-69045218D01*
X148460213Y-69201694D01*
X148577019Y-69362464D01*
X148717536Y-69502981D01*
X148878306Y-69619787D01*
X149035332Y-69699796D01*
X149086127Y-69747769D01*
X149102922Y-69815590D01*
X149080385Y-69881725D01*
X149035332Y-69920764D01*
X148878566Y-70000641D01*
X148841283Y-70027729D01*
X148841282Y-70027730D01*
X149404058Y-70590504D01*
X149343919Y-70606619D01*
X149228080Y-70673498D01*
X149133498Y-70768080D01*
X149066619Y-70883919D01*
X149050504Y-70944057D01*
X148487730Y-70381282D01*
X148487729Y-70381283D01*
X148460641Y-70418566D01*
X148380764Y-70575332D01*
X148332790Y-70626127D01*
X148264969Y-70642922D01*
X148198834Y-70620384D01*
X148159796Y-70575332D01*
X148079787Y-70418306D01*
X147962981Y-70257536D01*
X147822464Y-70117019D01*
X147661694Y-70000213D01*
X147505218Y-69920484D01*
X147454423Y-69872510D01*
X147437628Y-69804689D01*
X147460165Y-69738554D01*
X147505218Y-69699515D01*
X147661694Y-69619787D01*
X147822464Y-69502981D01*
X147962981Y-69362464D01*
X148079787Y-69201694D01*
X148159515Y-69045218D01*
X148207490Y-68994423D01*
X148275311Y-68977628D01*
X148341446Y-69000165D01*
G37*
%TD.AperFunction*%
%TA.AperFunction,Conductor*%
G36*
X148052268Y-66698715D02*
G01*
X148079364Y-66661422D01*
X148159234Y-66504669D01*
X148207208Y-66453872D01*
X148275029Y-66437077D01*
X148341164Y-66459614D01*
X148380203Y-66504667D01*
X148460213Y-66661694D01*
X148577019Y-66822464D01*
X148717536Y-66962981D01*
X148878306Y-67079787D01*
X148996832Y-67140179D01*
X149034780Y-67159515D01*
X149085576Y-67207490D01*
X149102371Y-67275311D01*
X149079833Y-67341446D01*
X149034780Y-67380485D01*
X148878305Y-67460213D01*
X148717533Y-67577021D01*
X148577021Y-67717533D01*
X148460213Y-67878305D01*
X148380485Y-68034780D01*
X148332510Y-68085576D01*
X148264689Y-68102371D01*
X148198554Y-68079833D01*
X148159515Y-68034780D01*
X148129554Y-67975978D01*
X148079787Y-67878306D01*
X147962981Y-67717536D01*
X147822464Y-67577019D01*
X147661694Y-67460213D01*
X147504667Y-67380203D01*
X147453872Y-67332229D01*
X147437077Y-67264408D01*
X147459614Y-67198273D01*
X147504669Y-67159234D01*
X147661422Y-67079364D01*
X147698716Y-67052268D01*
X147135942Y-66489494D01*
X147196081Y-66473381D01*
X147311920Y-66406502D01*
X147406502Y-66311920D01*
X147473381Y-66196081D01*
X147489495Y-66135942D01*
X148052268Y-66698715D01*
G37*
%TD.AperFunction*%
%TA.AperFunction,Conductor*%
G36*
X148341446Y-63920165D02*
G01*
X148380484Y-63965218D01*
X148460213Y-64121694D01*
X148577019Y-64282464D01*
X148717536Y-64422981D01*
X148878306Y-64539787D01*
X148996832Y-64600179D01*
X149034780Y-64619515D01*
X149085576Y-64667490D01*
X149102371Y-64735311D01*
X149079833Y-64801446D01*
X149034780Y-64840485D01*
X148878305Y-64920213D01*
X148717533Y-65037021D01*
X148577021Y-65177533D01*
X148460213Y-65338305D01*
X148380204Y-65495331D01*
X148332229Y-65546127D01*
X148264408Y-65562922D01*
X148198273Y-65540384D01*
X148159234Y-65495331D01*
X148079358Y-65338567D01*
X148052268Y-65301283D01*
X147489494Y-65864057D01*
X147473381Y-65803919D01*
X147406502Y-65688080D01*
X147311920Y-65593498D01*
X147196081Y-65526619D01*
X147135942Y-65510504D01*
X147698716Y-64947731D01*
X147698715Y-64947730D01*
X147661432Y-64920641D01*
X147504668Y-64840765D01*
X147453872Y-64792790D01*
X147437077Y-64724969D01*
X147459615Y-64658834D01*
X147504667Y-64619796D01*
X147661694Y-64539787D01*
X147822464Y-64422981D01*
X147962981Y-64282464D01*
X148079787Y-64121694D01*
X148159515Y-63965218D01*
X148207490Y-63914423D01*
X148275311Y-63897628D01*
X148341446Y-63920165D01*
G37*
%TD.AperFunction*%
%TA.AperFunction,Conductor*%
G36*
X149066619Y-61116081D02*
G01*
X149133498Y-61231920D01*
X149228080Y-61326502D01*
X149343919Y-61393381D01*
X149404057Y-61409494D01*
X148841283Y-61972268D01*
X148841283Y-61972269D01*
X148878567Y-61999358D01*
X149035331Y-62079234D01*
X149086127Y-62127209D01*
X149102922Y-62195030D01*
X149080384Y-62261165D01*
X149035331Y-62300204D01*
X148878305Y-62380213D01*
X148717533Y-62497021D01*
X148577021Y-62637533D01*
X148460213Y-62798305D01*
X148380485Y-62954780D01*
X148332510Y-63005576D01*
X148264689Y-63022371D01*
X148198554Y-62999833D01*
X148159515Y-62954780D01*
X148079786Y-62798305D01*
X147962981Y-62637536D01*
X147822464Y-62497019D01*
X147661694Y-62380213D01*
X147505218Y-62300484D01*
X147454423Y-62252510D01*
X147437628Y-62184689D01*
X147460165Y-62118554D01*
X147505218Y-62079515D01*
X147661694Y-61999787D01*
X147822464Y-61882981D01*
X147962981Y-61742464D01*
X148079787Y-61581694D01*
X148159796Y-61424667D01*
X148207769Y-61373872D01*
X148275590Y-61357077D01*
X148341725Y-61379614D01*
X148380765Y-61424668D01*
X148460641Y-61581432D01*
X148487730Y-61618715D01*
X148487731Y-61618716D01*
X149050504Y-61055942D01*
X149066619Y-61116081D01*
G37*
%TD.AperFunction*%
%TA.AperFunction,Conductor*%
G36*
X148341446Y-58840165D02*
G01*
X148380484Y-58885218D01*
X148460213Y-59041694D01*
X148577019Y-59202464D01*
X148717536Y-59342981D01*
X148878306Y-59459787D01*
X149035332Y-59539796D01*
X149086127Y-59587769D01*
X149102922Y-59655590D01*
X149080385Y-59721725D01*
X149035332Y-59760764D01*
X148878566Y-59840641D01*
X148841283Y-59867729D01*
X148841282Y-59867730D01*
X149404058Y-60430504D01*
X149343919Y-60446619D01*
X149228080Y-60513498D01*
X149133498Y-60608080D01*
X149066619Y-60723919D01*
X149050504Y-60784057D01*
X148487730Y-60221282D01*
X148487729Y-60221283D01*
X148460641Y-60258566D01*
X148380764Y-60415332D01*
X148332790Y-60466127D01*
X148264969Y-60482922D01*
X148198834Y-60460384D01*
X148159796Y-60415332D01*
X148079787Y-60258306D01*
X147962981Y-60097536D01*
X147822464Y-59957019D01*
X147661694Y-59840213D01*
X147505218Y-59760484D01*
X147454423Y-59712510D01*
X147437628Y-59644689D01*
X147460165Y-59578554D01*
X147505218Y-59539515D01*
X147661694Y-59459787D01*
X147822464Y-59342981D01*
X147962981Y-59202464D01*
X148079787Y-59041694D01*
X148159515Y-58885218D01*
X148207490Y-58834423D01*
X148275311Y-58817628D01*
X148341446Y-58840165D01*
G37*
%TD.AperFunction*%
%TA.AperFunction,Conductor*%
G36*
X174876123Y-43064842D02*
G01*
X174943141Y-43084591D01*
X174988844Y-43137439D01*
X175000000Y-43188841D01*
X175000000Y-52000000D01*
X181923671Y-52000000D01*
X181990710Y-52019685D01*
X182036465Y-52072489D01*
X182047669Y-52124353D01*
X182011031Y-64920213D01*
X181926566Y-94419057D01*
X181906690Y-94486040D01*
X181853755Y-94531643D01*
X181784569Y-94541389D01*
X181721096Y-94512182D01*
X181692082Y-94474997D01*
X181626973Y-94347213D01*
X181612287Y-94318390D01*
X181612285Y-94318387D01*
X181612284Y-94318385D01*
X181491971Y-94152786D01*
X181347213Y-94008028D01*
X181181613Y-93887715D01*
X181181612Y-93887714D01*
X181181610Y-93887713D01*
X181114567Y-93853553D01*
X180999223Y-93794781D01*
X180804534Y-93731522D01*
X180629995Y-93703878D01*
X180602352Y-93699500D01*
X180397648Y-93699500D01*
X180373329Y-93703351D01*
X180195465Y-93731522D01*
X180000776Y-93794781D01*
X179818386Y-93887715D01*
X179652786Y-94008028D01*
X179508028Y-94152786D01*
X179387715Y-94318386D01*
X179294781Y-94500776D01*
X179231522Y-94695465D01*
X179199500Y-94897648D01*
X179199500Y-95102351D01*
X179231522Y-95304534D01*
X179294781Y-95499223D01*
X179316187Y-95541233D01*
X179387585Y-95681359D01*
X179387715Y-95681613D01*
X179508028Y-95847213D01*
X179652786Y-95991971D01*
X179773226Y-96079474D01*
X179818390Y-96112287D01*
X179934607Y-96171503D01*
X180000776Y-96205218D01*
X180000778Y-96205218D01*
X180000781Y-96205220D01*
X180105137Y-96239127D01*
X180195465Y-96268477D01*
X180296557Y-96284488D01*
X180397648Y-96300500D01*
X180397649Y-96300500D01*
X180602351Y-96300500D01*
X180602352Y-96300500D01*
X180804534Y-96268477D01*
X180999219Y-96205220D01*
X181181610Y-96112287D01*
X181274590Y-96044732D01*
X181347213Y-95991971D01*
X181347215Y-95991968D01*
X181347219Y-95991966D01*
X181491966Y-95847219D01*
X181491968Y-95847215D01*
X181491971Y-95847213D01*
X181612286Y-95681611D01*
X181612287Y-95681610D01*
X181688735Y-95531571D01*
X181736708Y-95480777D01*
X181804529Y-95463981D01*
X181870664Y-95486518D01*
X181914116Y-95541233D01*
X181923218Y-95588222D01*
X181905214Y-101876355D01*
X181885338Y-101943338D01*
X181832403Y-101988941D01*
X181781215Y-102000000D01*
X175000000Y-102000000D01*
X175000000Y-110000000D01*
X181757598Y-110000000D01*
X181824637Y-110019685D01*
X181870392Y-110072489D01*
X181881597Y-110124355D01*
X181860664Y-117435187D01*
X181840788Y-117502170D01*
X181787853Y-117547773D01*
X181736310Y-117558831D01*
X158153237Y-117491306D01*
X158086254Y-117471430D01*
X158040651Y-117418495D01*
X158030905Y-117349309D01*
X158060112Y-117285836D01*
X158118998Y-117248230D01*
X158134194Y-117244834D01*
X158292826Y-117219709D01*
X158480025Y-117158884D01*
X158655405Y-117069524D01*
X158814646Y-116953828D01*
X158953828Y-116814646D01*
X159069524Y-116655405D01*
X159069524Y-116655403D01*
X159072278Y-116651614D01*
X159127608Y-116608949D01*
X159172596Y-116600500D01*
X170913331Y-116600500D01*
X170913347Y-116600501D01*
X170920943Y-116600501D01*
X171079054Y-116600501D01*
X171079057Y-116600501D01*
X171231785Y-116559577D01*
X171281904Y-116530639D01*
X171368716Y-116480520D01*
X171480520Y-116368716D01*
X171480520Y-116368714D01*
X171490728Y-116358507D01*
X171490730Y-116358504D01*
X173443773Y-114405460D01*
X173505094Y-114371977D01*
X173544052Y-114369785D01*
X173599991Y-114375500D01*
X174400008Y-114375499D01*
X174400016Y-114375498D01*
X174400019Y-114375498D01*
X174456302Y-114369748D01*
X174502797Y-114364999D01*
X174669334Y-114309814D01*
X174818656Y-114217712D01*
X174942712Y-114093656D01*
X174982581Y-114029016D01*
X175034525Y-113982294D01*
X175103488Y-113971071D01*
X175167570Y-113998914D01*
X175175799Y-114006434D01*
X175283397Y-114114032D01*
X175423475Y-114215804D01*
X175577744Y-114294408D01*
X175742415Y-114347914D01*
X175742414Y-114347914D01*
X175749999Y-114349115D01*
X175750000Y-114349114D01*
X175750000Y-113280330D01*
X175769745Y-113300075D01*
X175855255Y-113349444D01*
X175950630Y-113375000D01*
X176049370Y-113375000D01*
X176144745Y-113349444D01*
X176230255Y-113300075D01*
X176250000Y-113280330D01*
X176250000Y-114349115D01*
X176257584Y-114347914D01*
X176422255Y-114294408D01*
X176576524Y-114215804D01*
X176716602Y-114114032D01*
X176839032Y-113991602D01*
X176940804Y-113851524D01*
X177019408Y-113697257D01*
X177072914Y-113532584D01*
X177100000Y-113361571D01*
X177100000Y-113250000D01*
X176280330Y-113250000D01*
X176300075Y-113230255D01*
X176349444Y-113144745D01*
X176375000Y-113049370D01*
X176375000Y-112950630D01*
X176349444Y-112855255D01*
X176300075Y-112769745D01*
X176280330Y-112750000D01*
X177100000Y-112750000D01*
X177100000Y-112638428D01*
X177072914Y-112467415D01*
X177019408Y-112302742D01*
X176940804Y-112148475D01*
X176839032Y-112008397D01*
X176716602Y-111885967D01*
X176576524Y-111784195D01*
X176422257Y-111705591D01*
X176257589Y-111652087D01*
X176257581Y-111652085D01*
X176250000Y-111650884D01*
X176250000Y-112719670D01*
X176230255Y-112699925D01*
X176144745Y-112650556D01*
X176049370Y-112625000D01*
X175950630Y-112625000D01*
X175855255Y-112650556D01*
X175769745Y-112699925D01*
X175750000Y-112719670D01*
X175750000Y-111650884D01*
X175749999Y-111650884D01*
X175742418Y-111652085D01*
X175742410Y-111652087D01*
X175577742Y-111705591D01*
X175423475Y-111784195D01*
X175283401Y-111885964D01*
X175175799Y-111993566D01*
X175114476Y-112027050D01*
X175044784Y-112022066D01*
X174988851Y-111980194D01*
X174982585Y-111970988D01*
X174942712Y-111906344D01*
X174818656Y-111782288D01*
X174669334Y-111690186D01*
X174502797Y-111635001D01*
X174502795Y-111635000D01*
X174400010Y-111624500D01*
X173599998Y-111624500D01*
X173599980Y-111624501D01*
X173497203Y-111635000D01*
X173497200Y-111635001D01*
X173330668Y-111690185D01*
X173330663Y-111690187D01*
X173181342Y-111782289D01*
X173057289Y-111906342D01*
X172965187Y-112055663D01*
X172965186Y-112055666D01*
X172910001Y-112222203D01*
X172910001Y-112222204D01*
X172910000Y-112222204D01*
X172899500Y-112324983D01*
X172899500Y-113199901D01*
X172879815Y-113266940D01*
X172863181Y-113287582D01*
X170787584Y-115363181D01*
X170726261Y-115396666D01*
X170699903Y-115399500D01*
X159172596Y-115399500D01*
X159105557Y-115379815D01*
X159072278Y-115348386D01*
X159069524Y-115344595D01*
X158953828Y-115185354D01*
X158814646Y-115046172D01*
X158655405Y-114930476D01*
X158640008Y-114922631D01*
X158480029Y-114841117D01*
X158292826Y-114780290D01*
X158098422Y-114749500D01*
X158098417Y-114749500D01*
X157901583Y-114749500D01*
X157901578Y-114749500D01*
X157707173Y-114780290D01*
X157519970Y-114841117D01*
X157344594Y-114930476D01*
X157253741Y-114996485D01*
X157185354Y-115046172D01*
X157185352Y-115046174D01*
X157185351Y-115046174D01*
X157046174Y-115185351D01*
X157046174Y-115185352D01*
X157046172Y-115185354D01*
X156930476Y-115344595D01*
X156927722Y-115348386D01*
X156872392Y-115391051D01*
X156827404Y-115399500D01*
X153000097Y-115399500D01*
X152933058Y-115379815D01*
X152912416Y-115363181D01*
X152632434Y-115083199D01*
X152598949Y-115021876D01*
X152603933Y-114952184D01*
X152619793Y-114922639D01*
X152661634Y-114865051D01*
X152779579Y-114633572D01*
X152859860Y-114386493D01*
X152886894Y-114215804D01*
X152900500Y-114129902D01*
X152900500Y-113870097D01*
X152873124Y-113697257D01*
X152859860Y-113613507D01*
X152779579Y-113366428D01*
X152779577Y-113366425D01*
X152779577Y-113366423D01*
X152720899Y-113251263D01*
X152661634Y-113134949D01*
X152508931Y-112924771D01*
X152325229Y-112741069D01*
X152268599Y-112699925D01*
X152115054Y-112588368D01*
X152115053Y-112588367D01*
X152115051Y-112588366D01*
X152009946Y-112534812D01*
X151883576Y-112470422D01*
X151636493Y-112390140D01*
X151379902Y-112349500D01*
X151379897Y-112349500D01*
X151120103Y-112349500D01*
X151120098Y-112349500D01*
X150863506Y-112390140D01*
X150616423Y-112470422D01*
X150384945Y-112588368D01*
X150174774Y-112741066D01*
X150174768Y-112741071D01*
X149991071Y-112924768D01*
X149991066Y-112924774D01*
X149838368Y-113134945D01*
X149720422Y-113366423D01*
X149640139Y-113613506D01*
X149611410Y-113794898D01*
X149581481Y-113858033D01*
X149522169Y-113894964D01*
X149488937Y-113899500D01*
X147811063Y-113899500D01*
X147744024Y-113879815D01*
X147698269Y-113827011D01*
X147688590Y-113794898D01*
X147659860Y-113613506D01*
X147579577Y-113366423D01*
X147520899Y-113251263D01*
X147461634Y-113134949D01*
X147308931Y-112924771D01*
X147125229Y-112741069D01*
X147068599Y-112699925D01*
X146915054Y-112588368D01*
X146915053Y-112588367D01*
X146915051Y-112588366D01*
X146809946Y-112534812D01*
X146683576Y-112470422D01*
X146436493Y-112390140D01*
X146179902Y-112349500D01*
X146179897Y-112349500D01*
X145920103Y-112349500D01*
X145920098Y-112349500D01*
X145663506Y-112390140D01*
X145416423Y-112470422D01*
X145184945Y-112588368D01*
X144974774Y-112741066D01*
X144974768Y-112741071D01*
X144791071Y-112924768D01*
X144791066Y-112924774D01*
X144638368Y-113134945D01*
X144520422Y-113366423D01*
X144440140Y-113613506D01*
X144399500Y-113870097D01*
X144399500Y-114129902D01*
X144440140Y-114386493D01*
X144520422Y-114633576D01*
X144595178Y-114780290D01*
X144638366Y-114865051D01*
X144791069Y-115075229D01*
X144974771Y-115258931D01*
X145184949Y-115411634D01*
X145332445Y-115486787D01*
X145416423Y-115529577D01*
X145416425Y-115529577D01*
X145416428Y-115529579D01*
X145663507Y-115609860D01*
X145795706Y-115630797D01*
X145920098Y-115650500D01*
X145920103Y-115650500D01*
X146179902Y-115650500D01*
X146293298Y-115632539D01*
X146436493Y-115609860D01*
X146683572Y-115529579D01*
X146915051Y-115411634D01*
X147125229Y-115258931D01*
X147247341Y-115136819D01*
X147308664Y-115103334D01*
X147335022Y-115100500D01*
X149964978Y-115100500D01*
X150032017Y-115120185D01*
X150052659Y-115136819D01*
X150174771Y-115258931D01*
X150384949Y-115411634D01*
X150532445Y-115486787D01*
X150616423Y-115529577D01*
X150616425Y-115529577D01*
X150616428Y-115529579D01*
X150863507Y-115609860D01*
X150995706Y-115630797D01*
X151120098Y-115650500D01*
X151120103Y-115650500D01*
X151379892Y-115650500D01*
X151379897Y-115650500D01*
X151422268Y-115643788D01*
X151491557Y-115652741D01*
X151529345Y-115678580D01*
X152215139Y-116364374D01*
X152215149Y-116364385D01*
X152219479Y-116368715D01*
X152219480Y-116368716D01*
X152331284Y-116480520D01*
X152331286Y-116480521D01*
X152331290Y-116480524D01*
X152468209Y-116559573D01*
X152468216Y-116559577D01*
X152580019Y-116589534D01*
X152620942Y-116600500D01*
X152620943Y-116600500D01*
X156827404Y-116600500D01*
X156894443Y-116620185D01*
X156927722Y-116651614D01*
X156930475Y-116655403D01*
X156930476Y-116655405D01*
X157046172Y-116814646D01*
X157185354Y-116953828D01*
X157344595Y-117069524D01*
X157427455Y-117111743D01*
X157519970Y-117158882D01*
X157519972Y-117158882D01*
X157519975Y-117158884D01*
X157620317Y-117191487D01*
X157707173Y-117219709D01*
X157860149Y-117243938D01*
X157923284Y-117273867D01*
X157960215Y-117333179D01*
X157959217Y-117403041D01*
X157920607Y-117461274D01*
X157856644Y-117489388D01*
X157840396Y-117490410D01*
X107767738Y-117347036D01*
X107700755Y-117327160D01*
X107655152Y-117274225D01*
X107644094Y-117222486D01*
X107647908Y-116364385D01*
X107658996Y-113870097D01*
X129099500Y-113870097D01*
X129099500Y-114129902D01*
X129140140Y-114386493D01*
X129220422Y-114633576D01*
X129295178Y-114780290D01*
X129338366Y-114865051D01*
X129491069Y-115075229D01*
X129674771Y-115258931D01*
X129884949Y-115411634D01*
X130032445Y-115486787D01*
X130116423Y-115529577D01*
X130116425Y-115529577D01*
X130116428Y-115529579D01*
X130363507Y-115609860D01*
X130495706Y-115630797D01*
X130620098Y-115650500D01*
X130620103Y-115650500D01*
X130879902Y-115650500D01*
X130993298Y-115632539D01*
X131136493Y-115609860D01*
X131383572Y-115529579D01*
X131615051Y-115411634D01*
X131825229Y-115258931D01*
X131947341Y-115136819D01*
X132008664Y-115103334D01*
X132035022Y-115100500D01*
X134664978Y-115100500D01*
X134732017Y-115120185D01*
X134752659Y-115136819D01*
X134874771Y-115258931D01*
X135084949Y-115411634D01*
X135232445Y-115486787D01*
X135316423Y-115529577D01*
X135316425Y-115529577D01*
X135316428Y-115529579D01*
X135563507Y-115609860D01*
X135695706Y-115630797D01*
X135820098Y-115650500D01*
X135820103Y-115650500D01*
X136079902Y-115650500D01*
X136193298Y-115632539D01*
X136336493Y-115609860D01*
X136583572Y-115529579D01*
X136815051Y-115411634D01*
X137025229Y-115258931D01*
X137208931Y-115075229D01*
X137361634Y-114865051D01*
X137479579Y-114633572D01*
X137559860Y-114386493D01*
X137586894Y-114215804D01*
X137600500Y-114129902D01*
X137600500Y-113870097D01*
X137573124Y-113697257D01*
X137559860Y-113613507D01*
X137479579Y-113366428D01*
X137479577Y-113366425D01*
X137479577Y-113366423D01*
X137420899Y-113251263D01*
X137361634Y-113134949D01*
X137208931Y-112924771D01*
X137025229Y-112741069D01*
X136968599Y-112699925D01*
X136815054Y-112588368D01*
X136815053Y-112588367D01*
X136815051Y-112588366D01*
X136709946Y-112534812D01*
X136583570Y-112470419D01*
X136579079Y-112468560D01*
X136579770Y-112466890D01*
X136528494Y-112431816D01*
X136501306Y-112367453D01*
X136500500Y-112353338D01*
X136500500Y-111400097D01*
X136520185Y-111333058D01*
X136536819Y-111312416D01*
X137212416Y-110636819D01*
X137273739Y-110603334D01*
X137300097Y-110600500D01*
X150079055Y-110600500D01*
X150079057Y-110600500D01*
X150231784Y-110559577D01*
X150368716Y-110480520D01*
X150480520Y-110368716D01*
X150559577Y-110231784D01*
X150600500Y-110079057D01*
X150600500Y-109300096D01*
X150620185Y-109233057D01*
X150636815Y-109212419D01*
X151095466Y-108753767D01*
X151156789Y-108720283D01*
X151202545Y-108718976D01*
X151401578Y-108750500D01*
X151401583Y-108750500D01*
X151598422Y-108750500D01*
X151792826Y-108719709D01*
X151797796Y-108718094D01*
X151980025Y-108658884D01*
X152155405Y-108569524D01*
X152314646Y-108453828D01*
X152331935Y-108436537D01*
X152393255Y-108403051D01*
X152462947Y-108408032D01*
X152507300Y-108436535D01*
X154387841Y-110317076D01*
X154421326Y-110378399D01*
X154418091Y-110443074D01*
X154405923Y-110480524D01*
X154358910Y-110625214D01*
X154342110Y-110731284D01*
X154319500Y-110874038D01*
X154319500Y-111125962D01*
X154327910Y-111179060D01*
X154358910Y-111374785D01*
X154436760Y-111614383D01*
X154515413Y-111768747D01*
X154523284Y-111784195D01*
X154551132Y-111838848D01*
X154699201Y-112042649D01*
X154699205Y-112042654D01*
X154877345Y-112220794D01*
X154877350Y-112220798D01*
X155020762Y-112324992D01*
X155081155Y-112368870D01*
X155204694Y-112431816D01*
X155305616Y-112483239D01*
X155305618Y-112483239D01*
X155305621Y-112483241D01*
X155545215Y-112561090D01*
X155794038Y-112600500D01*
X155794039Y-112600500D01*
X156045961Y-112600500D01*
X156045962Y-112600500D01*
X156294785Y-112561090D01*
X156534379Y-112483241D01*
X156758845Y-112368870D01*
X156962656Y-112220793D01*
X157140793Y-112042656D01*
X157288870Y-111838845D01*
X157403241Y-111614379D01*
X157481090Y-111374785D01*
X157520500Y-111125962D01*
X157520500Y-110874038D01*
X157481090Y-110625215D01*
X157403241Y-110385621D01*
X157403239Y-110385618D01*
X157403239Y-110385616D01*
X157324857Y-110231784D01*
X157288870Y-110161155D01*
X157244425Y-110099982D01*
X157140798Y-109957350D01*
X157140794Y-109957345D01*
X156962654Y-109779205D01*
X156962649Y-109779201D01*
X156758848Y-109631132D01*
X156758847Y-109631131D01*
X156758845Y-109631130D01*
X156688747Y-109595413D01*
X156534383Y-109516760D01*
X156294785Y-109438910D01*
X156045962Y-109399500D01*
X155794038Y-109399500D01*
X155727738Y-109410001D01*
X155545214Y-109438910D01*
X155540558Y-109440423D01*
X155363074Y-109498091D01*
X155293234Y-109500086D01*
X155237076Y-109467841D01*
X152907590Y-107138355D01*
X152907588Y-107138352D01*
X152788717Y-107019481D01*
X152788716Y-107019480D01*
X152721242Y-106980524D01*
X152683057Y-106958478D01*
X152683047Y-106958472D01*
X152681948Y-106957838D01*
X152651785Y-106940423D01*
X152648703Y-106939597D01*
X152639396Y-106934482D01*
X152619374Y-106914349D01*
X152597264Y-106896532D01*
X152590640Y-106885458D01*
X152590127Y-106884942D01*
X152590012Y-106884408D01*
X152588642Y-106882117D01*
X152569524Y-106844595D01*
X152569521Y-106844591D01*
X152569521Y-106844590D01*
X152535935Y-106798364D01*
X152453828Y-106685354D01*
X152314646Y-106546172D01*
X152155405Y-106430476D01*
X151980029Y-106341117D01*
X151792826Y-106280290D01*
X151598422Y-106249500D01*
X151598417Y-106249500D01*
X151401583Y-106249500D01*
X151401578Y-106249500D01*
X151207173Y-106280290D01*
X151019970Y-106341117D01*
X150844594Y-106430476D01*
X150753741Y-106496485D01*
X150685354Y-106546172D01*
X150685352Y-106546174D01*
X150685351Y-106546174D01*
X150546174Y-106685351D01*
X150546174Y-106685352D01*
X150546172Y-106685354D01*
X150496485Y-106753741D01*
X150430476Y-106844594D01*
X150341117Y-107019970D01*
X150280290Y-107207173D01*
X150249500Y-107401577D01*
X150249500Y-107598422D01*
X150281023Y-107797453D01*
X150272068Y-107866747D01*
X150246231Y-107904532D01*
X149631286Y-108519478D01*
X149519481Y-108631282D01*
X149519479Y-108631285D01*
X149469361Y-108718094D01*
X149469359Y-108718096D01*
X149440425Y-108768209D01*
X149440424Y-108768210D01*
X149440423Y-108768215D01*
X149399499Y-108920943D01*
X149399499Y-108920945D01*
X149399499Y-109089046D01*
X149399500Y-109089059D01*
X149399500Y-109275500D01*
X149379815Y-109342539D01*
X149327011Y-109388294D01*
X149275500Y-109399500D01*
X137086669Y-109399500D01*
X137086653Y-109399499D01*
X137079057Y-109399499D01*
X136920943Y-109399499D01*
X136841010Y-109420917D01*
X136768216Y-109440422D01*
X136725323Y-109465187D01*
X136725322Y-109465186D01*
X136631287Y-109519477D01*
X136631282Y-109519481D01*
X135419481Y-110731282D01*
X135419479Y-110731285D01*
X135369361Y-110818094D01*
X135369359Y-110818096D01*
X135340425Y-110868209D01*
X135340424Y-110868210D01*
X135324544Y-110927472D01*
X135299499Y-111020943D01*
X135299499Y-111020945D01*
X135299499Y-111189046D01*
X135299500Y-111189059D01*
X135299500Y-112403058D01*
X135279815Y-112470097D01*
X135231796Y-112513542D01*
X135084947Y-112588366D01*
X134874774Y-112741066D01*
X134874768Y-112741071D01*
X134691071Y-112924768D01*
X134691066Y-112924774D01*
X134538368Y-113134945D01*
X134420422Y-113366423D01*
X134340139Y-113613506D01*
X134311410Y-113794898D01*
X134281481Y-113858033D01*
X134222169Y-113894964D01*
X134188937Y-113899500D01*
X132511063Y-113899500D01*
X132444024Y-113879815D01*
X132398269Y-113827011D01*
X132388590Y-113794898D01*
X132359860Y-113613506D01*
X132279577Y-113366423D01*
X132220899Y-113251263D01*
X132161634Y-113134949D01*
X132008931Y-112924771D01*
X131825229Y-112741069D01*
X131768599Y-112699925D01*
X131615054Y-112588368D01*
X131615053Y-112588367D01*
X131615051Y-112588366D01*
X131509946Y-112534812D01*
X131383576Y-112470422D01*
X131136493Y-112390140D01*
X130879902Y-112349500D01*
X130879897Y-112349500D01*
X130620103Y-112349500D01*
X130620098Y-112349500D01*
X130363506Y-112390140D01*
X130116423Y-112470422D01*
X129884945Y-112588368D01*
X129674774Y-112741066D01*
X129674768Y-112741071D01*
X129491071Y-112924768D01*
X129491066Y-112924774D01*
X129338368Y-113134945D01*
X129220422Y-113366423D01*
X129140140Y-113613506D01*
X129099500Y-113870097D01*
X107658996Y-113870097D01*
X107671754Y-111000000D01*
X108000000Y-111000000D01*
X116000000Y-111000000D01*
X116000000Y-108543677D01*
X144809873Y-108543677D01*
X144809873Y-108543678D01*
X144844858Y-108569096D01*
X145020164Y-108658418D01*
X145207294Y-108719221D01*
X145401618Y-108750000D01*
X145598382Y-108750000D01*
X145792705Y-108719221D01*
X145979835Y-108658418D01*
X146155143Y-108569095D01*
X146190125Y-108543678D01*
X146190126Y-108543678D01*
X145500001Y-107853553D01*
X145500000Y-107853553D01*
X144809873Y-108543677D01*
X116000000Y-108543677D01*
X116000000Y-107401617D01*
X144250000Y-107401617D01*
X144250000Y-107598382D01*
X144280778Y-107792705D01*
X144341581Y-107979835D01*
X144430905Y-108155145D01*
X144456319Y-108190125D01*
X144456320Y-108190125D01*
X145146446Y-107500000D01*
X145146446Y-107499999D01*
X145100369Y-107453922D01*
X145150000Y-107453922D01*
X145150000Y-107546078D01*
X145173852Y-107635095D01*
X145219930Y-107714905D01*
X145285095Y-107780070D01*
X145364905Y-107826148D01*
X145453922Y-107850000D01*
X145546078Y-107850000D01*
X145635095Y-107826148D01*
X145714905Y-107780070D01*
X145780070Y-107714905D01*
X145826148Y-107635095D01*
X145850000Y-107546078D01*
X145850000Y-107499999D01*
X145853553Y-107499999D01*
X145853553Y-107500000D01*
X146543678Y-108190126D01*
X146543678Y-108190125D01*
X146569095Y-108155143D01*
X146658418Y-107979835D01*
X146719221Y-107792705D01*
X146750000Y-107598382D01*
X146750000Y-107401617D01*
X146719221Y-107207294D01*
X146658418Y-107020164D01*
X146569096Y-106844858D01*
X146543678Y-106809873D01*
X146543677Y-106809873D01*
X145853553Y-107499999D01*
X145850000Y-107499999D01*
X145850000Y-107453922D01*
X145826148Y-107364905D01*
X145780070Y-107285095D01*
X145714905Y-107219930D01*
X145635095Y-107173852D01*
X145546078Y-107150000D01*
X145453922Y-107150000D01*
X145364905Y-107173852D01*
X145285095Y-107219930D01*
X145219930Y-107285095D01*
X145173852Y-107364905D01*
X145150000Y-107453922D01*
X145100369Y-107453922D01*
X144456320Y-106809872D01*
X144456320Y-106809873D01*
X144430902Y-106844859D01*
X144430899Y-106844863D01*
X144341582Y-107020161D01*
X144280778Y-107207294D01*
X144250000Y-107401617D01*
X116000000Y-107401617D01*
X116000000Y-106456320D01*
X144809872Y-106456320D01*
X145500000Y-107146446D01*
X145500001Y-107146446D01*
X146190125Y-106456320D01*
X146190125Y-106456319D01*
X146155145Y-106430905D01*
X145979835Y-106341581D01*
X145792705Y-106280778D01*
X145598382Y-106250000D01*
X145401618Y-106250000D01*
X145207294Y-106280778D01*
X145020161Y-106341582D01*
X144844863Y-106430899D01*
X144844859Y-106430902D01*
X144809873Y-106456320D01*
X144809872Y-106456320D01*
X116000000Y-106456320D01*
X116000000Y-102000000D01*
X108000000Y-102000000D01*
X108000000Y-111000000D01*
X107671754Y-111000000D01*
X107751049Y-93161491D01*
X109399500Y-93161491D01*
X109399500Y-93498508D01*
X109437231Y-93833381D01*
X109437233Y-93833397D01*
X109512223Y-94161953D01*
X109512227Y-94161965D01*
X109623532Y-94480054D01*
X109769752Y-94783683D01*
X109769754Y-94783686D01*
X109949054Y-95069039D01*
X110089861Y-95245606D01*
X110136854Y-95304534D01*
X110159175Y-95332523D01*
X110397477Y-95570825D01*
X110660961Y-95780946D01*
X110946314Y-95960246D01*
X111249949Y-96106469D01*
X111488848Y-96190063D01*
X111568034Y-96217772D01*
X111568046Y-96217776D01*
X111896606Y-96292767D01*
X112231492Y-96330499D01*
X112231493Y-96330500D01*
X112231496Y-96330500D01*
X112568507Y-96330500D01*
X112568507Y-96330499D01*
X112903394Y-96292767D01*
X113231954Y-96217776D01*
X113550051Y-96106469D01*
X113853686Y-95960246D01*
X114139039Y-95780946D01*
X114402523Y-95570825D01*
X114640825Y-95332523D01*
X114850946Y-95069039D01*
X115030246Y-94783686D01*
X115176469Y-94480051D01*
X115287776Y-94161954D01*
X115362767Y-93833394D01*
X115400500Y-93498504D01*
X115400500Y-93161496D01*
X115362767Y-92826606D01*
X115287776Y-92498046D01*
X115176469Y-92179949D01*
X115030246Y-91876314D01*
X114850946Y-91590961D01*
X114640825Y-91327477D01*
X114402523Y-91089175D01*
X114139039Y-90879054D01*
X113853686Y-90699754D01*
X113853683Y-90699752D01*
X113550054Y-90553532D01*
X113231965Y-90442227D01*
X113231953Y-90442223D01*
X112903397Y-90367233D01*
X112903381Y-90367231D01*
X112568508Y-90329500D01*
X112568504Y-90329500D01*
X112231496Y-90329500D01*
X112231491Y-90329500D01*
X111896618Y-90367231D01*
X111896602Y-90367233D01*
X111568046Y-90442223D01*
X111568034Y-90442227D01*
X111249945Y-90553532D01*
X110946316Y-90699752D01*
X110660962Y-90879053D01*
X110397477Y-91089174D01*
X110159174Y-91327477D01*
X109949053Y-91590962D01*
X109769752Y-91876316D01*
X109623532Y-92179945D01*
X109512227Y-92498034D01*
X109512223Y-92498046D01*
X109437233Y-92826602D01*
X109437231Y-92826618D01*
X109399500Y-93161491D01*
X107751049Y-93161491D01*
X107768211Y-89300639D01*
X118497500Y-89300639D01*
X118497500Y-89499360D01*
X118528587Y-89695637D01*
X118589993Y-89884629D01*
X118589994Y-89884632D01*
X118680213Y-90061694D01*
X118797019Y-90222464D01*
X118937536Y-90362981D01*
X119098306Y-90479787D01*
X119098309Y-90479789D01*
X119100285Y-90481000D01*
X119100878Y-90481656D01*
X119102248Y-90482651D01*
X119102039Y-90482938D01*
X119147163Y-90532810D01*
X119159500Y-90586730D01*
X119159500Y-100673330D01*
X119159499Y-100673348D01*
X119159499Y-100839054D01*
X119159498Y-100839054D01*
X119200423Y-100991785D01*
X119229358Y-101041900D01*
X119229359Y-101041904D01*
X119229360Y-101041904D01*
X119279479Y-101128714D01*
X119279481Y-101128717D01*
X119398349Y-101247585D01*
X119398355Y-101247590D01*
X121515139Y-103364374D01*
X121515149Y-103364385D01*
X121519479Y-103368715D01*
X121519480Y-103368716D01*
X121631284Y-103480520D01*
X121631286Y-103480521D01*
X121631290Y-103480524D01*
X121666377Y-103500781D01*
X121768216Y-103559577D01*
X121880019Y-103589534D01*
X121920942Y-103600500D01*
X121920943Y-103600500D01*
X144327404Y-103600500D01*
X144394443Y-103620185D01*
X144427722Y-103651614D01*
X144430475Y-103655403D01*
X144430476Y-103655405D01*
X144546172Y-103814646D01*
X144685354Y-103953828D01*
X144844595Y-104069524D01*
X144909022Y-104102351D01*
X145019970Y-104158882D01*
X145019972Y-104158882D01*
X145019975Y-104158884D01*
X145120317Y-104191487D01*
X145207173Y-104219709D01*
X145401578Y-104250500D01*
X145401583Y-104250500D01*
X145598422Y-104250500D01*
X145792826Y-104219709D01*
X145795082Y-104218976D01*
X145980025Y-104158884D01*
X146155405Y-104069524D01*
X146314646Y-103953828D01*
X146453828Y-103814646D01*
X146569524Y-103655405D01*
X146658884Y-103480025D01*
X146719709Y-103292826D01*
X146741890Y-103152781D01*
X146750500Y-103098422D01*
X146750500Y-102901577D01*
X150249500Y-102901577D01*
X150249500Y-103098422D01*
X150280290Y-103292826D01*
X150341117Y-103480029D01*
X150416135Y-103627259D01*
X150430476Y-103655405D01*
X150546172Y-103814646D01*
X150685354Y-103953828D01*
X150844595Y-104069524D01*
X150909022Y-104102351D01*
X151019970Y-104158882D01*
X151019972Y-104158882D01*
X151019975Y-104158884D01*
X151120317Y-104191487D01*
X151207173Y-104219709D01*
X151401578Y-104250500D01*
X151401583Y-104250500D01*
X151598422Y-104250500D01*
X151797454Y-104218976D01*
X151866747Y-104227930D01*
X151904533Y-104253768D01*
X154515139Y-106864374D01*
X154515149Y-106864385D01*
X154519479Y-106868715D01*
X154519480Y-106868716D01*
X154631284Y-106980520D01*
X154631286Y-106980521D01*
X154631290Y-106980524D01*
X154699950Y-107020164D01*
X154768216Y-107059577D01*
X154880019Y-107089534D01*
X154920942Y-107100500D01*
X154920943Y-107100500D01*
X164199903Y-107100500D01*
X164266942Y-107120185D01*
X164287584Y-107136819D01*
X165443181Y-108292416D01*
X165476666Y-108353739D01*
X165479500Y-108380097D01*
X165479500Y-109275500D01*
X165459815Y-109342539D01*
X165407011Y-109388294D01*
X165355500Y-109399500D01*
X165179982Y-109399500D01*
X165077203Y-109410000D01*
X165077202Y-109410001D01*
X164994669Y-109437349D01*
X164910667Y-109465185D01*
X164910662Y-109465187D01*
X164761342Y-109557289D01*
X164637289Y-109681342D01*
X164545187Y-109830662D01*
X164545186Y-109830665D01*
X164490001Y-109997202D01*
X164490001Y-109997203D01*
X164490000Y-109997203D01*
X164479500Y-110099982D01*
X164479500Y-111900017D01*
X164490000Y-112002796D01*
X164507519Y-112055663D01*
X164545186Y-112169335D01*
X164637288Y-112318656D01*
X164761344Y-112442712D01*
X164910665Y-112534814D01*
X165077202Y-112589999D01*
X165179990Y-112600500D01*
X165179995Y-112600500D01*
X166980005Y-112600500D01*
X166980010Y-112600500D01*
X167082798Y-112589999D01*
X167249335Y-112534814D01*
X167398656Y-112442712D01*
X167522712Y-112318656D01*
X167614814Y-112169335D01*
X167669999Y-112002798D01*
X167680500Y-111900010D01*
X167680500Y-110099990D01*
X167669999Y-109997202D01*
X167614814Y-109830665D01*
X167522712Y-109681344D01*
X167398656Y-109557288D01*
X167302682Y-109498091D01*
X167249337Y-109465187D01*
X167249332Y-109465185D01*
X167247863Y-109464698D01*
X167082798Y-109410001D01*
X167082796Y-109410000D01*
X166980017Y-109399500D01*
X166980010Y-109399500D01*
X166804500Y-109399500D01*
X166737461Y-109379815D01*
X166691706Y-109327011D01*
X166680500Y-109275500D01*
X166680500Y-108000945D01*
X166680500Y-108000943D01*
X166639577Y-107848216D01*
X166607528Y-107792705D01*
X166560524Y-107711290D01*
X166560521Y-107711286D01*
X166560520Y-107711284D01*
X166448716Y-107599480D01*
X166448715Y-107599479D01*
X166444385Y-107595149D01*
X166444374Y-107595139D01*
X164987590Y-106138355D01*
X164987588Y-106138352D01*
X164868717Y-106019481D01*
X164868716Y-106019480D01*
X164781904Y-105969360D01*
X164781904Y-105969359D01*
X164781900Y-105969358D01*
X164731785Y-105940423D01*
X164579057Y-105899499D01*
X164420943Y-105899499D01*
X164413347Y-105899499D01*
X164413331Y-105899500D01*
X155300097Y-105899500D01*
X155233058Y-105879815D01*
X155212416Y-105863181D01*
X152753768Y-103404533D01*
X152720283Y-103343210D01*
X152718976Y-103297454D01*
X152750500Y-103098422D01*
X152750500Y-102901577D01*
X152719709Y-102707173D01*
X152691487Y-102620317D01*
X152658884Y-102519975D01*
X152658882Y-102519972D01*
X152658882Y-102519970D01*
X152634960Y-102473021D01*
X152588521Y-102381879D01*
X152575626Y-102313214D01*
X152601902Y-102248474D01*
X152611317Y-102237916D01*
X155358506Y-99490728D01*
X155358511Y-99490724D01*
X155368714Y-99480520D01*
X155368716Y-99480520D01*
X155480520Y-99368716D01*
X155559577Y-99231784D01*
X155600500Y-99079057D01*
X155600500Y-91005886D01*
X156394346Y-91005886D01*
X156398276Y-91033649D01*
X156399500Y-91051028D01*
X156399500Y-99913330D01*
X156399499Y-99913348D01*
X156399499Y-100079054D01*
X156399498Y-100079054D01*
X156399499Y-100079057D01*
X156440423Y-100231785D01*
X156466284Y-100276577D01*
X156467959Y-100279477D01*
X156467960Y-100279481D01*
X156467961Y-100279481D01*
X156519479Y-100368714D01*
X156519481Y-100368717D01*
X156638349Y-100487585D01*
X156638355Y-100487590D01*
X158642710Y-102491945D01*
X158676195Y-102553268D01*
X158671211Y-102622960D01*
X158629339Y-102678893D01*
X158574427Y-102702099D01*
X158385582Y-102732009D01*
X158190968Y-102795244D01*
X158008644Y-102888143D01*
X157964077Y-102920523D01*
X157964077Y-102920524D01*
X158643554Y-103600000D01*
X158637339Y-103600000D01*
X158535606Y-103627259D01*
X158444394Y-103679920D01*
X158369920Y-103754394D01*
X158317259Y-103845606D01*
X158290000Y-103947339D01*
X158290000Y-103953553D01*
X157610524Y-103274077D01*
X157610523Y-103274077D01*
X157578143Y-103318644D01*
X157485244Y-103500968D01*
X157422009Y-103695582D01*
X157390000Y-103897682D01*
X157390000Y-104102317D01*
X157422009Y-104304417D01*
X157485244Y-104499031D01*
X157578141Y-104681350D01*
X157578147Y-104681359D01*
X157610523Y-104725921D01*
X157610524Y-104725922D01*
X158290000Y-104046446D01*
X158290000Y-104052661D01*
X158317259Y-104154394D01*
X158369920Y-104245606D01*
X158444394Y-104320080D01*
X158535606Y-104372741D01*
X158637339Y-104400000D01*
X158643553Y-104400000D01*
X157964076Y-105079474D01*
X158008650Y-105111859D01*
X158190968Y-105204755D01*
X158385582Y-105267990D01*
X158587683Y-105300000D01*
X158792317Y-105300000D01*
X158994417Y-105267990D01*
X159189031Y-105204755D01*
X159371349Y-105111859D01*
X159415921Y-105079474D01*
X158736447Y-104400000D01*
X158742661Y-104400000D01*
X158844394Y-104372741D01*
X158935606Y-104320080D01*
X159010080Y-104245606D01*
X159062741Y-104154394D01*
X159090000Y-104052661D01*
X159090000Y-104046446D01*
X159769474Y-104725921D01*
X159801859Y-104681349D01*
X159894755Y-104499031D01*
X159957989Y-104304417D01*
X159987900Y-104115572D01*
X160017829Y-104052437D01*
X160077141Y-104015506D01*
X160147003Y-104016504D01*
X160198054Y-104047289D01*
X160515139Y-104364374D01*
X160515149Y-104364385D01*
X160519479Y-104368715D01*
X160519480Y-104368716D01*
X160631284Y-104480520D01*
X160718095Y-104530639D01*
X160718097Y-104530641D01*
X160768213Y-104559576D01*
X160768215Y-104559577D01*
X160920942Y-104600500D01*
X160920943Y-104600500D01*
X162055308Y-104600500D01*
X165080398Y-104600500D01*
X165147437Y-104620185D01*
X165190883Y-104668205D01*
X165197715Y-104681614D01*
X165318028Y-104847213D01*
X165462786Y-104991971D01*
X165583226Y-105079474D01*
X165628390Y-105112287D01*
X165744607Y-105171503D01*
X165810776Y-105205218D01*
X165810778Y-105205218D01*
X165810781Y-105205220D01*
X165915137Y-105239127D01*
X166005465Y-105268477D01*
X166106557Y-105284488D01*
X166207648Y-105300500D01*
X166207649Y-105300500D01*
X166412351Y-105300500D01*
X166412352Y-105300500D01*
X166614534Y-105268477D01*
X166809219Y-105205220D01*
X166991610Y-105112287D01*
X167084590Y-105044732D01*
X167157213Y-104991971D01*
X167157215Y-104991968D01*
X167157219Y-104991966D01*
X167301966Y-104847219D01*
X167301968Y-104847215D01*
X167301971Y-104847213D01*
X167354732Y-104774590D01*
X167422287Y-104681610D01*
X167515220Y-104499219D01*
X167578477Y-104304534D01*
X167610500Y-104102352D01*
X167610500Y-103897648D01*
X167597354Y-103814646D01*
X167578477Y-103695465D01*
X167534324Y-103559577D01*
X167515220Y-103500781D01*
X167515218Y-103500778D01*
X167515218Y-103500776D01*
X167466179Y-103404533D01*
X167422287Y-103318390D01*
X167390092Y-103274077D01*
X167301971Y-103152786D01*
X167157213Y-103008028D01*
X166991613Y-102887715D01*
X166991612Y-102887714D01*
X166991610Y-102887713D01*
X166934653Y-102858691D01*
X166809223Y-102794781D01*
X166614534Y-102731522D01*
X166428761Y-102702099D01*
X166412352Y-102699500D01*
X166207648Y-102699500D01*
X166191239Y-102702099D01*
X166005465Y-102731522D01*
X165810776Y-102794781D01*
X165628386Y-102887715D01*
X165462786Y-103008028D01*
X165318028Y-103152786D01*
X165197715Y-103318385D01*
X165190883Y-103331795D01*
X165142909Y-103382591D01*
X165080398Y-103399500D01*
X161300097Y-103399500D01*
X161233058Y-103379815D01*
X161212416Y-103363181D01*
X158337177Y-100487942D01*
X158303692Y-100426619D01*
X158308676Y-100356927D01*
X158350548Y-100300994D01*
X158416012Y-100276577D01*
X158444250Y-100277787D01*
X158587648Y-100300500D01*
X158587650Y-100300500D01*
X158792351Y-100300500D01*
X158792352Y-100300500D01*
X158994534Y-100268477D01*
X159189219Y-100205220D01*
X159371610Y-100112287D01*
X159464590Y-100044732D01*
X159537213Y-99991971D01*
X159537215Y-99991968D01*
X159537219Y-99991966D01*
X159681966Y-99847219D01*
X159681968Y-99847215D01*
X159681971Y-99847213D01*
X159738259Y-99769738D01*
X159802287Y-99681610D01*
X159895220Y-99499219D01*
X159958477Y-99304534D01*
X159990500Y-99102352D01*
X159990500Y-98921153D01*
X164559500Y-98921153D01*
X164559500Y-99078846D01*
X164590261Y-99233489D01*
X164590264Y-99233501D01*
X164650602Y-99379172D01*
X164650609Y-99379185D01*
X164738210Y-99510288D01*
X164738213Y-99510292D01*
X164849707Y-99621786D01*
X164849711Y-99621789D01*
X164980814Y-99709390D01*
X164980827Y-99709397D01*
X165081907Y-99751265D01*
X165126503Y-99769737D01*
X165169526Y-99778294D01*
X165236985Y-99791714D01*
X165298896Y-99824099D01*
X165313112Y-99840445D01*
X165318032Y-99847217D01*
X165462786Y-99991971D01*
X165582648Y-100079054D01*
X165628390Y-100112287D01*
X165744607Y-100171503D01*
X165810776Y-100205218D01*
X165810778Y-100205218D01*
X165810781Y-100205220D01*
X165892540Y-100231785D01*
X166005465Y-100268477D01*
X166064252Y-100277788D01*
X166207648Y-100300500D01*
X166207649Y-100300500D01*
X166412351Y-100300500D01*
X166412352Y-100300500D01*
X166614534Y-100268477D01*
X166809219Y-100205220D01*
X166991610Y-100112287D01*
X167084590Y-100044732D01*
X167157213Y-99991971D01*
X167157215Y-99991968D01*
X167157219Y-99991966D01*
X167301966Y-99847219D01*
X167301968Y-99847215D01*
X167301971Y-99847213D01*
X167358259Y-99769738D01*
X167422287Y-99681610D01*
X167515220Y-99499219D01*
X167578477Y-99304534D01*
X167610500Y-99102352D01*
X167610500Y-98897648D01*
X167589798Y-98766941D01*
X167578477Y-98695465D01*
X167549127Y-98605137D01*
X167515220Y-98500781D01*
X167515218Y-98500778D01*
X167515218Y-98500776D01*
X167452767Y-98378211D01*
X167422287Y-98318390D01*
X167399500Y-98287026D01*
X167301971Y-98152786D01*
X167157213Y-98008028D01*
X166991613Y-97887715D01*
X166991612Y-97887714D01*
X166991610Y-97887713D01*
X166934653Y-97858691D01*
X166809223Y-97794781D01*
X166614534Y-97731522D01*
X166439995Y-97703878D01*
X166412352Y-97699500D01*
X166207648Y-97699500D01*
X166183329Y-97703351D01*
X166005465Y-97731522D01*
X165810776Y-97794781D01*
X165628386Y-97887715D01*
X165462786Y-98008028D01*
X165318032Y-98152782D01*
X165318023Y-98152792D01*
X165313108Y-98159558D01*
X165257776Y-98202221D01*
X165236986Y-98208285D01*
X165126508Y-98230261D01*
X165126498Y-98230264D01*
X164980827Y-98290602D01*
X164980814Y-98290609D01*
X164849711Y-98378210D01*
X164849707Y-98378213D01*
X164738213Y-98489707D01*
X164738210Y-98489711D01*
X164650609Y-98620814D01*
X164650602Y-98620827D01*
X164590264Y-98766498D01*
X164590261Y-98766510D01*
X164559500Y-98921153D01*
X159990500Y-98921153D01*
X159990500Y-98897648D01*
X159958477Y-98695466D01*
X159953825Y-98681151D01*
X159951832Y-98611312D01*
X159984075Y-98555158D01*
X163258506Y-95280728D01*
X163258511Y-95280724D01*
X163268714Y-95270520D01*
X163268716Y-95270520D01*
X163380520Y-95158716D01*
X163432295Y-95069039D01*
X163459577Y-95021785D01*
X163492830Y-94897682D01*
X174200000Y-94897682D01*
X174200000Y-95102317D01*
X174232009Y-95304417D01*
X174295244Y-95499031D01*
X174388141Y-95681350D01*
X174388147Y-95681359D01*
X174420523Y-95725921D01*
X174420524Y-95725922D01*
X175100000Y-95046446D01*
X175100000Y-95052661D01*
X175127259Y-95154394D01*
X175179920Y-95245606D01*
X175254394Y-95320080D01*
X175345606Y-95372741D01*
X175447339Y-95400000D01*
X175453553Y-95400000D01*
X174774076Y-96079474D01*
X174818650Y-96111859D01*
X175000968Y-96204755D01*
X175195582Y-96267990D01*
X175397683Y-96300000D01*
X175602317Y-96300000D01*
X175804417Y-96267990D01*
X175999031Y-96204755D01*
X176181349Y-96111859D01*
X176225921Y-96079474D01*
X175546447Y-95400000D01*
X175552661Y-95400000D01*
X175654394Y-95372741D01*
X175745606Y-95320080D01*
X175820080Y-95245606D01*
X175872741Y-95154394D01*
X175900000Y-95052661D01*
X175900000Y-95046448D01*
X176579474Y-95725922D01*
X176579474Y-95725921D01*
X176611859Y-95681349D01*
X176704755Y-95499031D01*
X176767990Y-95304417D01*
X176800000Y-95102317D01*
X176800000Y-94897682D01*
X176767990Y-94695582D01*
X176704755Y-94500968D01*
X176611859Y-94318650D01*
X176579474Y-94274077D01*
X176579474Y-94274076D01*
X175900000Y-94953551D01*
X175900000Y-94947339D01*
X175872741Y-94845606D01*
X175820080Y-94754394D01*
X175745606Y-94679920D01*
X175654394Y-94627259D01*
X175552661Y-94600000D01*
X175546446Y-94600000D01*
X176225922Y-93920524D01*
X176225921Y-93920523D01*
X176181359Y-93888147D01*
X176181350Y-93888141D01*
X175999031Y-93795244D01*
X175804417Y-93732009D01*
X175602317Y-93700000D01*
X175397683Y-93700000D01*
X175195582Y-93732009D01*
X175000968Y-93795244D01*
X174818644Y-93888143D01*
X174774077Y-93920523D01*
X174774077Y-93920524D01*
X175453554Y-94600000D01*
X175447339Y-94600000D01*
X175345606Y-94627259D01*
X175254394Y-94679920D01*
X175179920Y-94754394D01*
X175127259Y-94845606D01*
X175100000Y-94947339D01*
X175100000Y-94953553D01*
X174420524Y-94274077D01*
X174420523Y-94274077D01*
X174388143Y-94318644D01*
X174295244Y-94500968D01*
X174232009Y-94695582D01*
X174200000Y-94897682D01*
X163492830Y-94897682D01*
X163500500Y-94869057D01*
X163500500Y-94710943D01*
X163500500Y-93397682D01*
X165200000Y-93397682D01*
X165200000Y-93602317D01*
X165232009Y-93804417D01*
X165295244Y-93999031D01*
X165388141Y-94181350D01*
X165388147Y-94181359D01*
X165420523Y-94225921D01*
X165420524Y-94225922D01*
X166100000Y-93546446D01*
X166100000Y-93552661D01*
X166127259Y-93654394D01*
X166179920Y-93745606D01*
X166254394Y-93820080D01*
X166345606Y-93872741D01*
X166447339Y-93900000D01*
X166453553Y-93900000D01*
X165774076Y-94579474D01*
X165818650Y-94611859D01*
X166000968Y-94704755D01*
X166195582Y-94767990D01*
X166397683Y-94800000D01*
X166602317Y-94800000D01*
X166789562Y-94770343D01*
X166804417Y-94767990D01*
X166999031Y-94704755D01*
X167181349Y-94611859D01*
X167225921Y-94579474D01*
X166546447Y-93900000D01*
X166552661Y-93900000D01*
X166654394Y-93872741D01*
X166745606Y-93820080D01*
X166820080Y-93745606D01*
X166872741Y-93654394D01*
X166900000Y-93552661D01*
X166900000Y-93546448D01*
X167579474Y-94225922D01*
X167579474Y-94225921D01*
X167611859Y-94181349D01*
X167704755Y-93999029D01*
X167727359Y-93929465D01*
X167727359Y-93929464D01*
X167767990Y-93804417D01*
X167800000Y-93602317D01*
X167800000Y-93397682D01*
X167767990Y-93195582D01*
X167704755Y-93000968D01*
X167611859Y-92818650D01*
X167579474Y-92774077D01*
X167579474Y-92774076D01*
X166900000Y-93453551D01*
X166900000Y-93447339D01*
X166872741Y-93345606D01*
X166820080Y-93254394D01*
X166745606Y-93179920D01*
X166654394Y-93127259D01*
X166552661Y-93100000D01*
X166546446Y-93100000D01*
X167225922Y-92420524D01*
X167225921Y-92420523D01*
X167181359Y-92388147D01*
X167181350Y-92388141D01*
X166999031Y-92295244D01*
X166804417Y-92232009D01*
X166602317Y-92200000D01*
X166397683Y-92200000D01*
X166195582Y-92232009D01*
X166000968Y-92295244D01*
X165818644Y-92388143D01*
X165774077Y-92420523D01*
X165774077Y-92420524D01*
X166453554Y-93100000D01*
X166447339Y-93100000D01*
X166345606Y-93127259D01*
X166254394Y-93179920D01*
X166179920Y-93254394D01*
X166127259Y-93345606D01*
X166100000Y-93447339D01*
X166100000Y-93453553D01*
X165420524Y-92774077D01*
X165420523Y-92774077D01*
X165388143Y-92818644D01*
X165295244Y-93000968D01*
X165232009Y-93195582D01*
X165200000Y-93397682D01*
X163500500Y-93397682D01*
X163500500Y-84729601D01*
X163520185Y-84662562D01*
X163568206Y-84619116D01*
X163581610Y-84612287D01*
X163747219Y-84491966D01*
X163891966Y-84347219D01*
X163891968Y-84347215D01*
X163891971Y-84347213D01*
X163951971Y-84264629D01*
X164012287Y-84181610D01*
X164105220Y-83999219D01*
X164168477Y-83804534D01*
X164200500Y-83602352D01*
X164200500Y-83397648D01*
X165199500Y-83397648D01*
X165199500Y-83602351D01*
X165231522Y-83804534D01*
X165294781Y-83999223D01*
X165346135Y-84100009D01*
X165387585Y-84181359D01*
X165387715Y-84181613D01*
X165508028Y-84347213D01*
X165652786Y-84491971D01*
X165773226Y-84579474D01*
X165818390Y-84612287D01*
X165899499Y-84653614D01*
X166000776Y-84705218D01*
X166000778Y-84705218D01*
X166000781Y-84705220D01*
X166075818Y-84729601D01*
X166195465Y-84768477D01*
X166296557Y-84784488D01*
X166397648Y-84800500D01*
X166397649Y-84800500D01*
X166602351Y-84800500D01*
X166602352Y-84800500D01*
X166804534Y-84768477D01*
X166999219Y-84705220D01*
X167181610Y-84612287D01*
X167274590Y-84544732D01*
X167347213Y-84491971D01*
X167347215Y-84491968D01*
X167347219Y-84491966D01*
X167491966Y-84347219D01*
X167491968Y-84347215D01*
X167491971Y-84347213D01*
X167551971Y-84264629D01*
X167612287Y-84181610D01*
X167705220Y-83999219D01*
X167768477Y-83804534D01*
X167800500Y-83602352D01*
X167800500Y-83397648D01*
X167785697Y-83304184D01*
X167768477Y-83195465D01*
X167737458Y-83100000D01*
X167705220Y-83000781D01*
X167705218Y-83000778D01*
X167705218Y-83000776D01*
X167653865Y-82899991D01*
X167612287Y-82818390D01*
X167580092Y-82774077D01*
X167491971Y-82652786D01*
X167347213Y-82508028D01*
X167181613Y-82387715D01*
X167181612Y-82387714D01*
X167181610Y-82387713D01*
X167121898Y-82357288D01*
X166999223Y-82294781D01*
X166804534Y-82231522D01*
X166624311Y-82202978D01*
X166602352Y-82199500D01*
X166397648Y-82199500D01*
X166375689Y-82202978D01*
X166195465Y-82231522D01*
X166000776Y-82294781D01*
X165818386Y-82387715D01*
X165652786Y-82508028D01*
X165508028Y-82652786D01*
X165387715Y-82818386D01*
X165294781Y-83000776D01*
X165231522Y-83195465D01*
X165199500Y-83397648D01*
X164200500Y-83397648D01*
X164185697Y-83304184D01*
X164168477Y-83195465D01*
X164137458Y-83100000D01*
X164105220Y-83000781D01*
X164105218Y-83000778D01*
X164105218Y-83000776D01*
X164053865Y-82899991D01*
X164012287Y-82818390D01*
X163980092Y-82774077D01*
X163891971Y-82652786D01*
X163747213Y-82508028D01*
X163581613Y-82387715D01*
X163581612Y-82387714D01*
X163581610Y-82387713D01*
X163521898Y-82357288D01*
X163399223Y-82294781D01*
X163204534Y-82231522D01*
X163024311Y-82202978D01*
X163002352Y-82199500D01*
X162797648Y-82199500D01*
X162775689Y-82202978D01*
X162595465Y-82231522D01*
X162400776Y-82294781D01*
X162218386Y-82387715D01*
X162052786Y-82508028D01*
X161908028Y-82652786D01*
X161787715Y-82818386D01*
X161694781Y-83000776D01*
X161631522Y-83195465D01*
X161599500Y-83397648D01*
X161599500Y-83602351D01*
X161631522Y-83804534D01*
X161694781Y-83999223D01*
X161746135Y-84100009D01*
X161787585Y-84181359D01*
X161787715Y-84181613D01*
X161908028Y-84347213D01*
X161908034Y-84347219D01*
X162052781Y-84491966D01*
X162218390Y-84612287D01*
X162231793Y-84619116D01*
X162282589Y-84667088D01*
X162299500Y-84729601D01*
X162299500Y-94489903D01*
X162279815Y-94556942D01*
X162263181Y-94577584D01*
X159502181Y-97338584D01*
X159440858Y-97372069D01*
X159371166Y-97367085D01*
X159315233Y-97325213D01*
X159290816Y-97259749D01*
X159290500Y-97250903D01*
X159290500Y-94824138D01*
X159310185Y-94757099D01*
X159362989Y-94711344D01*
X159376184Y-94706206D01*
X159379219Y-94705220D01*
X159561610Y-94612287D01*
X159714829Y-94500968D01*
X159727213Y-94491971D01*
X159727215Y-94491968D01*
X159727219Y-94491966D01*
X159871966Y-94347219D01*
X159871968Y-94347215D01*
X159871971Y-94347213D01*
X159935181Y-94260210D01*
X159992287Y-94181610D01*
X160085220Y-93999219D01*
X160148477Y-93804534D01*
X160180500Y-93602352D01*
X160180500Y-93397648D01*
X160159500Y-93265061D01*
X160148477Y-93195465D01*
X160117458Y-93100000D01*
X160085220Y-93000781D01*
X160085218Y-93000778D01*
X160085218Y-93000776D01*
X160051503Y-92934607D01*
X159992287Y-92818390D01*
X159960092Y-92774077D01*
X159871971Y-92652786D01*
X159727213Y-92508028D01*
X159561613Y-92387715D01*
X159561612Y-92387714D01*
X159561610Y-92387713D01*
X159504653Y-92358691D01*
X159379223Y-92294781D01*
X159184534Y-92231522D01*
X159009995Y-92203878D01*
X158982352Y-92199500D01*
X158777648Y-92199500D01*
X158753329Y-92203351D01*
X158575465Y-92231522D01*
X158380776Y-92294781D01*
X158198386Y-92387715D01*
X158032786Y-92508028D01*
X157888032Y-92652782D01*
X157888028Y-92652787D01*
X157824818Y-92739789D01*
X157769488Y-92782455D01*
X157699875Y-92788434D01*
X157638080Y-92755828D01*
X157603723Y-92694990D01*
X157600500Y-92666904D01*
X157600500Y-91242014D01*
X157620185Y-91174975D01*
X157625386Y-91167499D01*
X158621768Y-89842522D01*
X158631906Y-89834968D01*
X158638624Y-89824254D01*
X158659391Y-89814487D01*
X158677791Y-89800776D01*
X158691910Y-89799193D01*
X158701850Y-89794519D01*
X158733181Y-89794567D01*
X158737142Y-89794124D01*
X158738664Y-89794325D01*
X158777648Y-89800500D01*
X158785312Y-89800500D01*
X158793411Y-89801572D01*
X158800941Y-89802563D01*
X158800943Y-89802564D01*
X158800945Y-89802564D01*
X158959055Y-89802564D01*
X158959057Y-89802564D01*
X158959058Y-89802563D01*
X158966673Y-89801561D01*
X158979832Y-89800698D01*
X158982349Y-89800500D01*
X158982352Y-89800500D01*
X159184534Y-89768477D01*
X159379219Y-89705220D01*
X159561610Y-89612287D01*
X159654590Y-89544732D01*
X159727213Y-89491971D01*
X159727215Y-89491968D01*
X159727219Y-89491966D01*
X159871966Y-89347219D01*
X159871968Y-89347215D01*
X159871971Y-89347213D01*
X159975133Y-89205220D01*
X159992287Y-89181610D01*
X160083864Y-89001881D01*
X160085218Y-88999223D01*
X160085218Y-88999222D01*
X160085220Y-88999219D01*
X160148477Y-88804534D01*
X160180500Y-88602352D01*
X160180500Y-88397648D01*
X160148477Y-88195466D01*
X160147425Y-88192229D01*
X160103900Y-88058273D01*
X160085220Y-88000781D01*
X160085218Y-88000778D01*
X160085218Y-88000776D01*
X160006154Y-87845606D01*
X159992287Y-87818390D01*
X159945792Y-87754394D01*
X159871971Y-87652786D01*
X159727213Y-87508028D01*
X159561613Y-87387715D01*
X159561612Y-87387714D01*
X159561610Y-87387713D01*
X159504653Y-87358691D01*
X159379223Y-87294781D01*
X159184534Y-87231522D01*
X159009995Y-87203878D01*
X158982352Y-87199500D01*
X158777648Y-87199500D01*
X158753329Y-87203351D01*
X158575465Y-87231522D01*
X158380776Y-87294781D01*
X158198386Y-87387715D01*
X158032786Y-87508028D01*
X157888028Y-87652786D01*
X157767715Y-87818386D01*
X157674781Y-88000776D01*
X157611522Y-88195465D01*
X157579500Y-88397648D01*
X157579500Y-88602351D01*
X157611522Y-88804534D01*
X157674782Y-88999225D01*
X157675563Y-89001110D01*
X157675645Y-89001881D01*
X157676286Y-89003852D01*
X157675871Y-89003986D01*
X157683022Y-89070580D01*
X157660100Y-89123074D01*
X156550727Y-90598304D01*
X156550726Y-90598303D01*
X156545468Y-90605294D01*
X156519480Y-90631284D01*
X156498170Y-90668191D01*
X156493650Y-90674203D01*
X156493645Y-90674212D01*
X156472546Y-90702271D01*
X156472544Y-90702274D01*
X156462068Y-90728277D01*
X156454441Y-90743933D01*
X156440426Y-90768209D01*
X156440421Y-90768220D01*
X156431336Y-90802125D01*
X156426581Y-90816361D01*
X156413462Y-90848928D01*
X156413459Y-90848938D01*
X156410071Y-90876759D01*
X156406757Y-90893855D01*
X156399500Y-90920940D01*
X156399500Y-90956039D01*
X156398591Y-90971028D01*
X156394346Y-91005886D01*
X155600500Y-91005886D01*
X155600500Y-88920943D01*
X155600500Y-79110096D01*
X155620185Y-79043057D01*
X155636814Y-79022420D01*
X158407821Y-76251412D01*
X158469142Y-76217929D01*
X158538834Y-76222913D01*
X158594767Y-76264785D01*
X158619184Y-76330249D01*
X158619500Y-76339095D01*
X158619500Y-77277870D01*
X158619501Y-77277876D01*
X158625908Y-77337483D01*
X158676202Y-77472328D01*
X158676206Y-77472335D01*
X158762452Y-77587544D01*
X158762455Y-77587547D01*
X158877664Y-77673793D01*
X158877671Y-77673797D01*
X159012517Y-77724091D01*
X159012516Y-77724091D01*
X159019444Y-77724835D01*
X159072127Y-77730500D01*
X160967872Y-77730499D01*
X161027483Y-77724091D01*
X161162331Y-77673796D01*
X161277546Y-77587546D01*
X161363796Y-77472331D01*
X161414091Y-77337483D01*
X161420500Y-77277873D01*
X161420499Y-75382128D01*
X161414091Y-75322517D01*
X161411155Y-75314646D01*
X161363797Y-75187671D01*
X161363793Y-75187664D01*
X161277547Y-75072455D01*
X161277544Y-75072452D01*
X161162335Y-74986206D01*
X161162328Y-74986202D01*
X161082419Y-74956398D01*
X161026485Y-74914527D01*
X161002068Y-74849062D01*
X161016920Y-74780789D01*
X161038069Y-74752537D01*
X161088242Y-74702365D01*
X161217815Y-74524022D01*
X161317895Y-74327606D01*
X161386015Y-74117951D01*
X161420500Y-73900222D01*
X161420500Y-73679778D01*
X161386015Y-73462049D01*
X161341279Y-73324364D01*
X161317896Y-73252396D01*
X161317895Y-73252393D01*
X161282216Y-73182371D01*
X161217815Y-73055978D01*
X161146852Y-72958305D01*
X161088247Y-72877641D01*
X161088243Y-72877636D01*
X160932363Y-72721756D01*
X160932358Y-72721752D01*
X160792319Y-72620008D01*
X160749653Y-72564678D01*
X160743674Y-72495065D01*
X160776279Y-72433270D01*
X160792319Y-72419372D01*
X160817513Y-72401066D01*
X160817514Y-72401066D01*
X160157575Y-71741128D01*
X160216853Y-71725245D01*
X160333147Y-71658102D01*
X160428102Y-71563147D01*
X160495245Y-71446853D01*
X160511128Y-71387574D01*
X161171066Y-72047514D01*
X161171066Y-72047513D01*
X161217386Y-71983760D01*
X161317432Y-71787410D01*
X161385526Y-71577835D01*
X161420000Y-71360181D01*
X161420000Y-71139818D01*
X161385526Y-70922164D01*
X161333752Y-70762818D01*
X161331757Y-70692977D01*
X161367837Y-70633144D01*
X161430538Y-70602316D01*
X161451683Y-70600500D01*
X164275500Y-70600500D01*
X164342539Y-70620185D01*
X164388294Y-70672989D01*
X164399500Y-70724500D01*
X164399500Y-75699902D01*
X164379815Y-75766941D01*
X164363181Y-75787583D01*
X158819481Y-81331282D01*
X158819479Y-81331285D01*
X158769361Y-81418094D01*
X158769359Y-81418096D01*
X158740425Y-81468209D01*
X158740424Y-81468210D01*
X158740423Y-81468215D01*
X158699499Y-81620943D01*
X158699499Y-81620945D01*
X158699499Y-81789046D01*
X158699500Y-81789059D01*
X158699500Y-82087837D01*
X158679815Y-82154876D01*
X158627011Y-82200631D01*
X158601459Y-82209089D01*
X158597207Y-82209999D01*
X158430668Y-82265185D01*
X158430663Y-82265187D01*
X158281342Y-82357289D01*
X158157289Y-82481342D01*
X158065187Y-82630663D01*
X158065186Y-82630666D01*
X158010001Y-82797203D01*
X158010001Y-82797204D01*
X158010000Y-82797204D01*
X157999500Y-82899983D01*
X157999500Y-84100001D01*
X157999501Y-84100018D01*
X158010000Y-84202796D01*
X158010001Y-84202799D01*
X158030490Y-84264629D01*
X158065186Y-84369334D01*
X158157288Y-84518656D01*
X158281344Y-84642712D01*
X158430666Y-84734814D01*
X158597203Y-84789999D01*
X158699991Y-84800500D01*
X159900008Y-84800499D01*
X160002797Y-84789999D01*
X160169334Y-84734814D01*
X160318656Y-84642712D01*
X160442712Y-84518656D01*
X160534814Y-84369334D01*
X160589999Y-84202797D01*
X160600500Y-84100009D01*
X160600499Y-82899992D01*
X160589999Y-82797203D01*
X160534814Y-82630666D01*
X160442712Y-82481344D01*
X160318656Y-82357288D01*
X160169334Y-82265186D01*
X160069213Y-82232009D01*
X160002795Y-82210000D01*
X159998533Y-82209088D01*
X159971382Y-82194376D01*
X159943297Y-82181550D01*
X159940938Y-82177879D01*
X159937102Y-82175801D01*
X159922214Y-82148744D01*
X159905523Y-82122772D01*
X159904673Y-82116866D01*
X159903419Y-82114586D01*
X159900500Y-82087837D01*
X159900500Y-82000096D01*
X159920185Y-81933057D01*
X159936814Y-81912420D01*
X165358506Y-76490727D01*
X165358511Y-76490724D01*
X165368714Y-76480520D01*
X165368716Y-76480520D01*
X165480520Y-76368716D01*
X165548516Y-76250943D01*
X165559577Y-76231785D01*
X165600500Y-76079058D01*
X165600500Y-75920943D01*
X165600500Y-69920943D01*
X165559577Y-69768216D01*
X165547611Y-69747490D01*
X165480524Y-69631290D01*
X165480518Y-69631282D01*
X165368717Y-69519481D01*
X165368709Y-69519475D01*
X165231790Y-69440426D01*
X165231786Y-69440424D01*
X165231784Y-69440423D01*
X165079057Y-69399500D01*
X165079056Y-69399500D01*
X161610097Y-69399500D01*
X161580656Y-69390855D01*
X161550670Y-69384332D01*
X161545654Y-69380577D01*
X161543058Y-69379815D01*
X161522416Y-69363181D01*
X161393438Y-69234203D01*
X161359953Y-69172880D01*
X161363187Y-69108205D01*
X161386015Y-69037951D01*
X161420500Y-68820222D01*
X161420500Y-68599778D01*
X161386015Y-68382049D01*
X161341279Y-68244364D01*
X161317896Y-68172396D01*
X161317895Y-68172393D01*
X161282216Y-68102371D01*
X161217815Y-67975978D01*
X161146852Y-67878305D01*
X161088247Y-67797641D01*
X161088243Y-67797636D01*
X160932363Y-67641756D01*
X160932358Y-67641752D01*
X160754025Y-67512187D01*
X160754024Y-67512186D01*
X160754022Y-67512185D01*
X160691096Y-67480122D01*
X160557606Y-67412104D01*
X160557603Y-67412103D01*
X160347952Y-67343985D01*
X160239086Y-67326742D01*
X160130222Y-67309500D01*
X159909778Y-67309500D01*
X159837201Y-67320995D01*
X159692047Y-67343985D01*
X159482396Y-67412103D01*
X159482393Y-67412104D01*
X159285974Y-67512187D01*
X159107641Y-67641752D01*
X159107636Y-67641756D01*
X158951756Y-67797636D01*
X158951752Y-67797641D01*
X158822187Y-67975974D01*
X158722104Y-68172393D01*
X158722103Y-68172396D01*
X158653985Y-68382047D01*
X158619500Y-68599778D01*
X158619500Y-68820221D01*
X158653985Y-69037952D01*
X158722103Y-69247603D01*
X158722104Y-69247606D01*
X158780629Y-69362464D01*
X158820351Y-69440423D01*
X158822187Y-69444025D01*
X158951752Y-69622358D01*
X158951756Y-69622363D01*
X159107640Y-69778247D01*
X159247679Y-69879990D01*
X159290345Y-69935319D01*
X159296324Y-70004933D01*
X159263719Y-70066728D01*
X159247679Y-70080626D01*
X159222485Y-70098930D01*
X159222485Y-70098932D01*
X159882425Y-70758871D01*
X159823147Y-70774755D01*
X159706853Y-70841898D01*
X159611898Y-70936853D01*
X159544755Y-71053147D01*
X159528871Y-71112424D01*
X158868932Y-70452485D01*
X158868931Y-70452485D01*
X158822616Y-70516233D01*
X158722567Y-70712589D01*
X158654473Y-70922164D01*
X158620000Y-71139818D01*
X158620000Y-71360181D01*
X158654473Y-71577835D01*
X158722567Y-71787410D01*
X158822611Y-71983756D01*
X158868932Y-72047513D01*
X159528871Y-71387574D01*
X159544755Y-71446853D01*
X159611898Y-71563147D01*
X159706853Y-71658102D01*
X159823147Y-71725245D01*
X159882424Y-71741128D01*
X159222485Y-72401065D01*
X159222485Y-72401066D01*
X159247680Y-72419371D01*
X159290346Y-72474701D01*
X159296325Y-72544314D01*
X159263720Y-72606110D01*
X159247681Y-72620008D01*
X159107636Y-72721756D01*
X158951756Y-72877636D01*
X158951752Y-72877641D01*
X158822187Y-73055974D01*
X158722104Y-73252393D01*
X158722103Y-73252396D01*
X158653985Y-73462047D01*
X158619500Y-73679778D01*
X158619500Y-73900221D01*
X158653985Y-74117952D01*
X158676811Y-74188203D01*
X158678806Y-74258044D01*
X158646561Y-74314202D01*
X154631286Y-78329478D01*
X154519481Y-78441282D01*
X154519479Y-78441285D01*
X154469361Y-78528094D01*
X154469359Y-78528096D01*
X154440425Y-78578209D01*
X154440424Y-78578210D01*
X154440423Y-78578215D01*
X154399499Y-78730943D01*
X154399499Y-78730945D01*
X154399499Y-78899046D01*
X154399500Y-78899059D01*
X154399500Y-83113444D01*
X154379815Y-83180483D01*
X154327011Y-83226238D01*
X154257853Y-83236182D01*
X154239575Y-83231202D01*
X154239324Y-83232031D01*
X154233500Y-83230264D01*
X154233497Y-83230263D01*
X154233492Y-83230262D01*
X154233489Y-83230261D01*
X154078845Y-83199500D01*
X154078842Y-83199500D01*
X153921158Y-83199500D01*
X153921155Y-83199500D01*
X153766510Y-83230261D01*
X153766498Y-83230264D01*
X153620827Y-83290602D01*
X153620814Y-83290609D01*
X153489711Y-83378210D01*
X153489707Y-83378213D01*
X153378213Y-83489707D01*
X153378210Y-83489711D01*
X153290609Y-83620814D01*
X153290602Y-83620827D01*
X153230264Y-83766498D01*
X153230261Y-83766510D01*
X153199500Y-83921153D01*
X153199500Y-84078846D01*
X153230261Y-84233489D01*
X153230264Y-84233501D01*
X153290602Y-84379172D01*
X153290609Y-84379185D01*
X153378602Y-84510874D01*
X153399480Y-84577551D01*
X153399500Y-84579765D01*
X153399500Y-88420234D01*
X153379815Y-88487273D01*
X153378602Y-88489125D01*
X153290609Y-88620814D01*
X153290602Y-88620827D01*
X153230264Y-88766498D01*
X153230261Y-88766510D01*
X153199500Y-88921153D01*
X153199500Y-89078846D01*
X153230261Y-89233489D01*
X153230264Y-89233501D01*
X153290602Y-89379172D01*
X153290609Y-89379185D01*
X153378210Y-89510288D01*
X153378213Y-89510292D01*
X153489707Y-89621786D01*
X153489711Y-89621789D01*
X153620814Y-89709390D01*
X153620827Y-89709397D01*
X153763461Y-89768477D01*
X153766503Y-89769737D01*
X153889104Y-89794124D01*
X153921153Y-89800499D01*
X153921156Y-89800500D01*
X153921158Y-89800500D01*
X154078844Y-89800500D01*
X154078845Y-89800499D01*
X154233497Y-89769737D01*
X154233509Y-89769731D01*
X154239324Y-89767969D01*
X154240158Y-89770720D01*
X154297359Y-89764497D01*
X154359878Y-89795691D01*
X154395608Y-89855734D01*
X154399500Y-89886555D01*
X154399500Y-98699902D01*
X154379815Y-98766941D01*
X154363181Y-98787583D01*
X151429694Y-101721069D01*
X151368371Y-101754554D01*
X151361412Y-101755861D01*
X151207176Y-101780290D01*
X151019972Y-101841117D01*
X150844594Y-101930476D01*
X150764125Y-101988941D01*
X150685354Y-102046172D01*
X150685352Y-102046174D01*
X150685351Y-102046174D01*
X150546174Y-102185351D01*
X150546174Y-102185352D01*
X150546172Y-102185354D01*
X150507990Y-102237907D01*
X150430476Y-102344594D01*
X150341117Y-102519970D01*
X150280290Y-102707173D01*
X150249500Y-102901577D01*
X146750500Y-102901577D01*
X146719709Y-102707173D01*
X146691487Y-102620317D01*
X146658884Y-102519975D01*
X146658882Y-102519972D01*
X146658882Y-102519970D01*
X146578994Y-102363181D01*
X146569524Y-102344595D01*
X146453828Y-102185354D01*
X146314646Y-102046172D01*
X146155405Y-101930476D01*
X145980029Y-101841117D01*
X145792826Y-101780290D01*
X145598422Y-101749500D01*
X145598417Y-101749500D01*
X145401583Y-101749500D01*
X145401578Y-101749500D01*
X145207173Y-101780290D01*
X145019970Y-101841117D01*
X144844594Y-101930476D01*
X144764125Y-101988941D01*
X144685354Y-102046172D01*
X144685352Y-102046174D01*
X144685351Y-102046174D01*
X144546174Y-102185351D01*
X144546174Y-102185352D01*
X144546172Y-102185354D01*
X144453276Y-102313214D01*
X144427722Y-102348386D01*
X144372392Y-102391051D01*
X144327404Y-102399500D01*
X122300097Y-102399500D01*
X122233058Y-102379815D01*
X122212416Y-102363181D01*
X120396819Y-100547584D01*
X120363334Y-100486261D01*
X120360500Y-100459903D01*
X120360500Y-93161491D01*
X144899500Y-93161491D01*
X144899500Y-93498508D01*
X144937231Y-93833381D01*
X144937233Y-93833397D01*
X145012223Y-94161953D01*
X145012227Y-94161965D01*
X145123532Y-94480054D01*
X145269752Y-94783683D01*
X145269754Y-94783686D01*
X145449054Y-95069039D01*
X145589861Y-95245606D01*
X145636854Y-95304534D01*
X145659175Y-95332523D01*
X145897477Y-95570825D01*
X146160961Y-95780946D01*
X146446314Y-95960246D01*
X146749949Y-96106469D01*
X146988848Y-96190063D01*
X147068034Y-96217772D01*
X147068046Y-96217776D01*
X147396606Y-96292767D01*
X147731492Y-96330499D01*
X147731493Y-96330500D01*
X147731496Y-96330500D01*
X148068507Y-96330500D01*
X148068507Y-96330499D01*
X148403394Y-96292767D01*
X148731954Y-96217776D01*
X149050051Y-96106469D01*
X149353686Y-95960246D01*
X149639039Y-95780946D01*
X149902523Y-95570825D01*
X150140825Y-95332523D01*
X150350946Y-95069039D01*
X150530246Y-94783686D01*
X150676469Y-94480051D01*
X150787776Y-94161954D01*
X150862767Y-93833394D01*
X150900500Y-93498504D01*
X150900500Y-93161496D01*
X150862767Y-92826606D01*
X150787776Y-92498046D01*
X150676469Y-92179949D01*
X150530246Y-91876314D01*
X150350946Y-91590961D01*
X150140825Y-91327477D01*
X149902523Y-91089175D01*
X149639039Y-90879054D01*
X149353686Y-90699754D01*
X149353683Y-90699752D01*
X149050054Y-90553532D01*
X148731965Y-90442227D01*
X148731953Y-90442223D01*
X148403397Y-90367233D01*
X148403381Y-90367231D01*
X148068508Y-90329500D01*
X148068504Y-90329500D01*
X147731496Y-90329500D01*
X147731491Y-90329500D01*
X147396618Y-90367231D01*
X147396602Y-90367233D01*
X147068046Y-90442223D01*
X147068034Y-90442227D01*
X146749945Y-90553532D01*
X146446316Y-90699752D01*
X146160962Y-90879053D01*
X145897477Y-91089174D01*
X145659174Y-91327477D01*
X145449053Y-91590962D01*
X145269752Y-91876316D01*
X145123532Y-92179945D01*
X145012227Y-92498034D01*
X145012223Y-92498046D01*
X144937233Y-92826602D01*
X144937231Y-92826618D01*
X144899500Y-93161491D01*
X120360500Y-93161491D01*
X120360500Y-90586730D01*
X120380185Y-90519691D01*
X120417866Y-90482808D01*
X120417752Y-90482651D01*
X120418823Y-90481872D01*
X120419715Y-90481000D01*
X120421690Y-90479789D01*
X120421689Y-90479789D01*
X120421694Y-90479787D01*
X120582464Y-90362981D01*
X120722981Y-90222464D01*
X120839787Y-90061694D01*
X120930005Y-89884632D01*
X120991413Y-89695636D01*
X121022500Y-89499361D01*
X121022500Y-89300639D01*
X120991413Y-89104364D01*
X120960709Y-89009866D01*
X120930006Y-88915370D01*
X120930005Y-88915367D01*
X120873532Y-88804534D01*
X120839787Y-88738306D01*
X120722981Y-88577536D01*
X120582464Y-88437019D01*
X120421694Y-88320213D01*
X120264667Y-88240203D01*
X120213872Y-88192229D01*
X120197077Y-88124408D01*
X120219614Y-88058273D01*
X120264669Y-88019234D01*
X120421422Y-87939364D01*
X120458716Y-87912268D01*
X119895942Y-87349494D01*
X119956081Y-87333381D01*
X120071920Y-87266502D01*
X120166502Y-87171920D01*
X120233381Y-87056081D01*
X120249495Y-86995942D01*
X120812268Y-87558715D01*
X120839362Y-87521425D01*
X120929543Y-87344435D01*
X120948305Y-87286692D01*
X120948305Y-87286691D01*
X120990924Y-87155523D01*
X120990924Y-87155520D01*
X121022000Y-86959321D01*
X121022000Y-86760678D01*
X120990924Y-86564479D01*
X120990924Y-86564476D01*
X120929542Y-86375562D01*
X120876826Y-86272101D01*
X120839358Y-86198567D01*
X120812268Y-86161283D01*
X120249494Y-86724057D01*
X120233381Y-86663919D01*
X120166502Y-86548080D01*
X120071920Y-86453498D01*
X119956081Y-86386619D01*
X119895942Y-86370504D01*
X120458716Y-85807731D01*
X120458715Y-85807730D01*
X120421432Y-85780641D01*
X120244437Y-85690457D01*
X120055522Y-85629075D01*
X119859321Y-85598000D01*
X119660679Y-85598000D01*
X119464479Y-85629075D01*
X119464476Y-85629075D01*
X119275562Y-85690457D01*
X119098564Y-85780643D01*
X119061283Y-85807729D01*
X119061282Y-85807730D01*
X119624058Y-86370504D01*
X119563919Y-86386619D01*
X119448080Y-86453498D01*
X119353498Y-86548080D01*
X119286619Y-86663919D01*
X119270504Y-86724057D01*
X118707730Y-86161282D01*
X118707729Y-86161283D01*
X118680643Y-86198564D01*
X118590457Y-86375562D01*
X118529075Y-86564476D01*
X118529075Y-86564479D01*
X118498000Y-86760678D01*
X118498000Y-86959321D01*
X118529075Y-87155520D01*
X118529075Y-87155523D01*
X118590457Y-87344437D01*
X118680641Y-87521432D01*
X118707730Y-87558715D01*
X118707731Y-87558716D01*
X119270504Y-86995942D01*
X119286619Y-87056081D01*
X119353498Y-87171920D01*
X119448080Y-87266502D01*
X119563919Y-87333381D01*
X119624057Y-87349494D01*
X119061283Y-87912268D01*
X119061283Y-87912269D01*
X119098567Y-87939358D01*
X119255331Y-88019234D01*
X119306127Y-88067209D01*
X119322922Y-88135030D01*
X119300384Y-88201165D01*
X119255331Y-88240204D01*
X119098305Y-88320213D01*
X118937533Y-88437021D01*
X118797021Y-88577533D01*
X118680213Y-88738305D01*
X118589994Y-88915367D01*
X118589993Y-88915370D01*
X118528587Y-89104362D01*
X118497500Y-89300639D01*
X107768211Y-89300639D01*
X107917391Y-55740639D01*
X145737500Y-55740639D01*
X145737500Y-55939361D01*
X145753043Y-56037498D01*
X145768587Y-56135637D01*
X145829993Y-56324629D01*
X145829994Y-56324632D01*
X145905382Y-56472587D01*
X145920213Y-56501694D01*
X146037019Y-56662464D01*
X146177536Y-56802981D01*
X146338306Y-56919787D01*
X146456832Y-56980179D01*
X146494780Y-56999515D01*
X146545576Y-57047490D01*
X146562371Y-57115311D01*
X146539833Y-57181446D01*
X146494780Y-57220485D01*
X146338305Y-57300213D01*
X146177533Y-57417021D01*
X146037021Y-57557533D01*
X145920213Y-57718305D01*
X145829994Y-57895367D01*
X145829993Y-57895370D01*
X145768587Y-58084362D01*
X145737500Y-58280639D01*
X145737500Y-58479360D01*
X145768587Y-58675637D01*
X145829993Y-58864629D01*
X145829994Y-58864632D01*
X145920213Y-59041694D01*
X146037019Y-59202464D01*
X146177536Y-59342981D01*
X146338306Y-59459787D01*
X146456832Y-59520179D01*
X146494780Y-59539515D01*
X146545576Y-59587490D01*
X146562371Y-59655311D01*
X146539833Y-59721446D01*
X146494780Y-59760485D01*
X146338305Y-59840213D01*
X146177533Y-59957021D01*
X146037021Y-60097533D01*
X145920213Y-60258305D01*
X145829994Y-60435367D01*
X145829993Y-60435370D01*
X145768587Y-60624362D01*
X145737500Y-60820639D01*
X145737500Y-61019360D01*
X145768587Y-61215637D01*
X145829993Y-61404629D01*
X145829994Y-61404632D01*
X145920076Y-61581425D01*
X145920213Y-61581694D01*
X146037019Y-61742464D01*
X146177536Y-61882981D01*
X146338306Y-61999787D01*
X146456832Y-62060179D01*
X146494780Y-62079515D01*
X146545576Y-62127490D01*
X146562371Y-62195311D01*
X146539833Y-62261446D01*
X146494780Y-62300485D01*
X146338305Y-62380213D01*
X146177533Y-62497021D01*
X146037021Y-62637533D01*
X145920213Y-62798305D01*
X145829994Y-62975367D01*
X145829993Y-62975370D01*
X145768587Y-63164362D01*
X145737500Y-63360639D01*
X145737500Y-63559360D01*
X145768587Y-63755637D01*
X145829993Y-63944629D01*
X145829994Y-63944632D01*
X145881732Y-64046172D01*
X145920213Y-64121694D01*
X146037019Y-64282464D01*
X146177536Y-64422981D01*
X146338306Y-64539787D01*
X146495332Y-64619796D01*
X146546127Y-64667769D01*
X146562922Y-64735590D01*
X146540385Y-64801725D01*
X146495332Y-64840764D01*
X146338566Y-64920641D01*
X146301283Y-64947729D01*
X146301282Y-64947730D01*
X146864058Y-65510504D01*
X146803919Y-65526619D01*
X146688080Y-65593498D01*
X146593498Y-65688080D01*
X146526619Y-65803919D01*
X146510504Y-65864057D01*
X145947730Y-65301282D01*
X145947729Y-65301283D01*
X145920643Y-65338564D01*
X145830457Y-65515562D01*
X145769075Y-65704476D01*
X145769075Y-65704479D01*
X145738000Y-65900678D01*
X145738000Y-66099321D01*
X145769075Y-66295520D01*
X145769075Y-66295523D01*
X145830457Y-66484437D01*
X145920641Y-66661432D01*
X145947730Y-66698715D01*
X145947731Y-66698716D01*
X146510504Y-66135942D01*
X146526619Y-66196081D01*
X146593498Y-66311920D01*
X146688080Y-66406502D01*
X146803919Y-66473381D01*
X146864057Y-66489494D01*
X146301283Y-67052268D01*
X146301283Y-67052269D01*
X146338567Y-67079358D01*
X146495331Y-67159234D01*
X146546127Y-67207209D01*
X146562922Y-67275030D01*
X146540384Y-67341165D01*
X146495331Y-67380204D01*
X146338305Y-67460213D01*
X146177533Y-67577021D01*
X146037021Y-67717533D01*
X145920213Y-67878305D01*
X145829994Y-68055367D01*
X145829993Y-68055370D01*
X145768587Y-68244362D01*
X145737500Y-68440639D01*
X145737500Y-68639360D01*
X145768587Y-68835637D01*
X145829993Y-69024629D01*
X145829994Y-69024632D01*
X145872576Y-69108202D01*
X145920213Y-69201694D01*
X146037019Y-69362464D01*
X146177536Y-69502981D01*
X146338306Y-69619787D01*
X146456832Y-69680179D01*
X146494780Y-69699515D01*
X146545576Y-69747490D01*
X146562371Y-69815311D01*
X146539833Y-69881446D01*
X146494780Y-69920485D01*
X146338305Y-70000213D01*
X146177533Y-70117021D01*
X146037021Y-70257533D01*
X145920213Y-70418305D01*
X145829994Y-70595367D01*
X145829993Y-70595370D01*
X145768587Y-70784362D01*
X145737500Y-70980639D01*
X145737500Y-71179360D01*
X145768587Y-71375637D01*
X145829993Y-71564629D01*
X145829994Y-71564632D01*
X145911832Y-71725245D01*
X145920213Y-71741694D01*
X146037019Y-71902464D01*
X146177536Y-72042981D01*
X146338306Y-72159787D01*
X146456832Y-72220179D01*
X146494780Y-72239515D01*
X146545576Y-72287490D01*
X146562371Y-72355311D01*
X146539833Y-72421446D01*
X146494780Y-72460485D01*
X146338305Y-72540213D01*
X146177533Y-72657021D01*
X146037021Y-72797533D01*
X145920213Y-72958305D01*
X145829994Y-73135367D01*
X145829993Y-73135370D01*
X145768587Y-73324362D01*
X145737500Y-73520639D01*
X145737500Y-73719360D01*
X145768587Y-73915637D01*
X145829993Y-74104629D01*
X145829994Y-74104632D01*
X145882242Y-74207173D01*
X145920213Y-74281694D01*
X146037019Y-74442464D01*
X146177536Y-74582981D01*
X146338306Y-74699787D01*
X146441827Y-74752534D01*
X146494780Y-74779515D01*
X146545576Y-74827490D01*
X146562371Y-74895311D01*
X146539833Y-74961446D01*
X146494780Y-75000485D01*
X146338305Y-75080213D01*
X146177533Y-75197021D01*
X146037021Y-75337533D01*
X145920213Y-75498305D01*
X145829994Y-75675367D01*
X145829993Y-75675370D01*
X145768587Y-75864362D01*
X145737500Y-76060639D01*
X145737500Y-76259360D01*
X145768587Y-76455637D01*
X145829993Y-76644629D01*
X145829994Y-76644632D01*
X145920213Y-76821694D01*
X146037019Y-76982464D01*
X146177536Y-77122981D01*
X146338306Y-77239787D01*
X146456832Y-77300179D01*
X146494780Y-77319515D01*
X146545576Y-77367490D01*
X146562371Y-77435311D01*
X146539833Y-77501446D01*
X146494780Y-77540485D01*
X146338305Y-77620213D01*
X146177533Y-77737021D01*
X146037021Y-77877533D01*
X145920213Y-78038305D01*
X145829994Y-78215367D01*
X145829993Y-78215370D01*
X145768587Y-78404362D01*
X145762739Y-78441284D01*
X145737500Y-78600639D01*
X145737500Y-78799361D01*
X145751707Y-78889060D01*
X145768587Y-78995637D01*
X145829993Y-79184629D01*
X145829994Y-79184632D01*
X145920076Y-79361425D01*
X145920213Y-79361694D01*
X146037019Y-79522464D01*
X146177536Y-79662981D01*
X146338306Y-79779787D01*
X146456832Y-79840179D01*
X146494780Y-79859515D01*
X146545576Y-79907490D01*
X146562371Y-79975311D01*
X146539833Y-80041446D01*
X146494780Y-80080485D01*
X146338305Y-80160213D01*
X146177533Y-80277021D01*
X146037021Y-80417533D01*
X145920213Y-80578305D01*
X145829994Y-80755367D01*
X145829993Y-80755370D01*
X145768587Y-80944362D01*
X145737500Y-81140639D01*
X145737500Y-81339360D01*
X145768587Y-81535637D01*
X145829993Y-81724629D01*
X145829994Y-81724632D01*
X145862822Y-81789059D01*
X145920213Y-81901694D01*
X146037019Y-82062464D01*
X146177536Y-82202981D01*
X146338306Y-82319787D01*
X146456832Y-82380179D01*
X146494780Y-82399515D01*
X146545576Y-82447490D01*
X146562371Y-82515311D01*
X146539833Y-82581446D01*
X146494780Y-82620485D01*
X146338305Y-82700213D01*
X146177533Y-82817021D01*
X146037021Y-82957533D01*
X145920213Y-83118305D01*
X145829994Y-83295367D01*
X145829993Y-83295370D01*
X145768587Y-83484362D01*
X145737500Y-83680639D01*
X145737500Y-83879360D01*
X145768587Y-84075637D01*
X145829993Y-84264629D01*
X145829994Y-84264632D01*
X145888356Y-84379172D01*
X145920213Y-84441694D01*
X146037019Y-84602464D01*
X146177536Y-84742981D01*
X146338306Y-84859787D01*
X146495332Y-84939796D01*
X146546127Y-84987769D01*
X146562922Y-85055590D01*
X146540385Y-85121725D01*
X146495332Y-85160764D01*
X146338566Y-85240641D01*
X146301283Y-85267729D01*
X146301282Y-85267730D01*
X146864058Y-85830504D01*
X146803919Y-85846619D01*
X146688080Y-85913498D01*
X146593498Y-86008080D01*
X146526619Y-86123919D01*
X146510504Y-86184057D01*
X145947730Y-85621282D01*
X145947729Y-85621283D01*
X145920643Y-85658564D01*
X145830457Y-85835562D01*
X145769075Y-86024476D01*
X145769075Y-86024479D01*
X145738000Y-86220678D01*
X145738000Y-86419321D01*
X145769075Y-86615520D01*
X145769075Y-86615523D01*
X145830457Y-86804437D01*
X145920641Y-86981432D01*
X145947730Y-87018715D01*
X145947731Y-87018716D01*
X146510504Y-86455942D01*
X146526619Y-86516081D01*
X146593498Y-86631920D01*
X146688080Y-86726502D01*
X146803919Y-86793381D01*
X146864057Y-86809494D01*
X146301283Y-87372268D01*
X146301283Y-87372269D01*
X146338567Y-87399358D01*
X146515562Y-87489542D01*
X146704477Y-87550924D01*
X146900679Y-87582000D01*
X147099321Y-87582000D01*
X147295520Y-87550924D01*
X147295523Y-87550924D01*
X147484437Y-87489542D01*
X147661425Y-87399362D01*
X147698716Y-87372268D01*
X147135942Y-86809494D01*
X147196081Y-86793381D01*
X147311920Y-86726502D01*
X147406502Y-86631920D01*
X147473381Y-86516081D01*
X147489495Y-86455942D01*
X148052268Y-87018715D01*
X148079364Y-86981422D01*
X148159234Y-86824669D01*
X148207208Y-86773872D01*
X148275029Y-86757077D01*
X148341164Y-86779614D01*
X148380203Y-86824667D01*
X148460213Y-86981694D01*
X148577019Y-87142464D01*
X148717536Y-87282981D01*
X148878306Y-87399787D01*
X148957165Y-87439968D01*
X149055367Y-87490005D01*
X149055370Y-87490006D01*
X149110856Y-87508034D01*
X149244364Y-87551413D01*
X149440639Y-87582500D01*
X149440640Y-87582500D01*
X149639360Y-87582500D01*
X149639361Y-87582500D01*
X149835636Y-87551413D01*
X150024632Y-87490005D01*
X150201694Y-87399787D01*
X150362464Y-87282981D01*
X150502981Y-87142464D01*
X150619787Y-86981694D01*
X150710005Y-86804632D01*
X150771413Y-86615636D01*
X150802500Y-86419361D01*
X150802500Y-86220639D01*
X150771413Y-86024364D01*
X150710005Y-85835368D01*
X150710005Y-85835367D01*
X150636169Y-85690457D01*
X150619787Y-85658306D01*
X150502981Y-85497536D01*
X150362464Y-85357019D01*
X150201694Y-85240213D01*
X150045218Y-85160484D01*
X149994423Y-85112510D01*
X149977628Y-85044689D01*
X150000165Y-84978554D01*
X150045218Y-84939515D01*
X150201694Y-84859787D01*
X150362464Y-84742981D01*
X150502981Y-84602464D01*
X150619787Y-84441694D01*
X150710005Y-84264632D01*
X150771413Y-84075636D01*
X150802500Y-83879361D01*
X150802500Y-83680639D01*
X150771413Y-83484364D01*
X150717954Y-83319833D01*
X150710006Y-83295370D01*
X150710005Y-83295367D01*
X150634125Y-83146446D01*
X150619787Y-83118306D01*
X150502981Y-82957536D01*
X150362464Y-82817019D01*
X150201694Y-82700213D01*
X150045218Y-82620484D01*
X149994423Y-82572510D01*
X149977628Y-82504689D01*
X150000165Y-82438554D01*
X150045218Y-82399515D01*
X150201694Y-82319787D01*
X150362464Y-82202981D01*
X150502981Y-82062464D01*
X150619787Y-81901694D01*
X150710005Y-81724632D01*
X150771413Y-81535636D01*
X150802500Y-81339361D01*
X150802500Y-81140639D01*
X150771413Y-80944364D01*
X150710005Y-80755368D01*
X150710005Y-80755367D01*
X150619786Y-80578305D01*
X150502981Y-80417536D01*
X150362464Y-80277019D01*
X150201694Y-80160213D01*
X150044667Y-80080203D01*
X149993872Y-80032229D01*
X149977077Y-79964408D01*
X149999614Y-79898273D01*
X150044669Y-79859234D01*
X150201422Y-79779364D01*
X150238716Y-79752268D01*
X149675942Y-79189494D01*
X149736081Y-79173381D01*
X149851920Y-79106502D01*
X149946502Y-79011920D01*
X150013381Y-78896081D01*
X150029495Y-78835942D01*
X150592268Y-79398715D01*
X150619362Y-79361425D01*
X150709542Y-79184437D01*
X150770924Y-78995523D01*
X150770924Y-78995520D01*
X150802000Y-78799321D01*
X150802000Y-78600678D01*
X150770924Y-78404479D01*
X150770924Y-78404476D01*
X150709542Y-78215562D01*
X150619358Y-78038567D01*
X150592268Y-78001283D01*
X150029494Y-78564057D01*
X150013381Y-78503919D01*
X149946502Y-78388080D01*
X149851920Y-78293498D01*
X149736081Y-78226619D01*
X149675942Y-78210504D01*
X150238716Y-77647731D01*
X150238715Y-77647730D01*
X150201432Y-77620641D01*
X150044668Y-77540765D01*
X149993872Y-77492790D01*
X149977077Y-77424969D01*
X149999615Y-77358834D01*
X150044667Y-77319796D01*
X150201694Y-77239787D01*
X150362464Y-77122981D01*
X150502981Y-76982464D01*
X150619787Y-76821694D01*
X150710005Y-76644632D01*
X150771413Y-76455636D01*
X150802500Y-76259361D01*
X150802500Y-76060639D01*
X150771413Y-75864364D01*
X150710005Y-75675368D01*
X150710005Y-75675367D01*
X150664035Y-75585149D01*
X150619787Y-75498306D01*
X150502981Y-75337536D01*
X150362464Y-75197019D01*
X150201694Y-75080213D01*
X150045218Y-75000484D01*
X149994423Y-74952510D01*
X149977628Y-74884689D01*
X150000165Y-74818554D01*
X150045218Y-74779515D01*
X150201694Y-74699787D01*
X150362464Y-74582981D01*
X150502981Y-74442464D01*
X150619787Y-74281694D01*
X150710005Y-74104632D01*
X150771413Y-73915636D01*
X150802500Y-73719361D01*
X150802500Y-73520639D01*
X150771413Y-73324364D01*
X150710005Y-73135368D01*
X150710005Y-73135367D01*
X150619786Y-72958305D01*
X150502981Y-72797536D01*
X150362464Y-72657019D01*
X150201694Y-72540213D01*
X150044667Y-72460203D01*
X149993872Y-72412229D01*
X149977077Y-72344408D01*
X149999614Y-72278273D01*
X150044669Y-72239234D01*
X150201422Y-72159364D01*
X150238716Y-72132268D01*
X149675942Y-71569494D01*
X149736081Y-71553381D01*
X149851920Y-71486502D01*
X149946502Y-71391920D01*
X150013381Y-71276081D01*
X150029495Y-71215942D01*
X150592268Y-71778715D01*
X150619362Y-71741425D01*
X150709542Y-71564437D01*
X150770924Y-71375523D01*
X150770924Y-71375520D01*
X150802000Y-71179321D01*
X150802000Y-70980678D01*
X150770924Y-70784479D01*
X150770924Y-70784476D01*
X150709542Y-70595562D01*
X150619358Y-70418567D01*
X150592268Y-70381283D01*
X150029494Y-70944057D01*
X150013381Y-70883919D01*
X149946502Y-70768080D01*
X149851920Y-70673498D01*
X149736081Y-70606619D01*
X149675942Y-70590504D01*
X150238716Y-70027731D01*
X150238715Y-70027730D01*
X150201432Y-70000641D01*
X150044668Y-69920765D01*
X149993872Y-69872790D01*
X149977077Y-69804969D01*
X149999615Y-69738834D01*
X150044667Y-69699796D01*
X150201694Y-69619787D01*
X150362464Y-69502981D01*
X150502981Y-69362464D01*
X150619787Y-69201694D01*
X150710005Y-69024632D01*
X150771413Y-68835636D01*
X150802500Y-68639361D01*
X150802500Y-68440639D01*
X150771413Y-68244364D01*
X150710005Y-68055368D01*
X150710005Y-68055367D01*
X150619786Y-67878305D01*
X150502981Y-67717536D01*
X150362464Y-67577019D01*
X150201694Y-67460213D01*
X150045218Y-67380484D01*
X149994423Y-67332510D01*
X149977628Y-67264689D01*
X150000165Y-67198554D01*
X150045218Y-67159515D01*
X150201694Y-67079787D01*
X150362464Y-66962981D01*
X150502981Y-66822464D01*
X150619787Y-66661694D01*
X150710005Y-66484632D01*
X150771413Y-66295636D01*
X150802500Y-66099361D01*
X150802500Y-65900639D01*
X150771413Y-65704364D01*
X150710005Y-65515368D01*
X150710005Y-65515367D01*
X150664035Y-65425149D01*
X150619787Y-65338306D01*
X150502981Y-65177536D01*
X150362464Y-65037019D01*
X150201694Y-64920213D01*
X150045218Y-64840484D01*
X149994423Y-64792510D01*
X149977628Y-64724689D01*
X150000165Y-64658554D01*
X150045218Y-64619515D01*
X150201694Y-64539787D01*
X150362464Y-64422981D01*
X150502981Y-64282464D01*
X150619787Y-64121694D01*
X150710005Y-63944632D01*
X150771413Y-63755636D01*
X150802500Y-63559361D01*
X150802500Y-63360639D01*
X150771413Y-63164364D01*
X150710005Y-62975368D01*
X150710005Y-62975367D01*
X150619786Y-62798305D01*
X150502981Y-62637536D01*
X150362464Y-62497019D01*
X150201694Y-62380213D01*
X150044667Y-62300203D01*
X149993872Y-62252229D01*
X149977077Y-62184408D01*
X149999614Y-62118273D01*
X150044669Y-62079234D01*
X150201422Y-61999364D01*
X150238716Y-61972268D01*
X149675942Y-61409494D01*
X149736081Y-61393381D01*
X149851920Y-61326502D01*
X149946502Y-61231920D01*
X150013381Y-61116081D01*
X150029495Y-61055942D01*
X150592268Y-61618715D01*
X150619362Y-61581425D01*
X150709542Y-61404437D01*
X150770924Y-61215523D01*
X150770924Y-61215520D01*
X150802000Y-61019321D01*
X150802000Y-60820678D01*
X150770924Y-60624479D01*
X150770924Y-60624476D01*
X150709542Y-60435562D01*
X150619358Y-60258567D01*
X150592268Y-60221283D01*
X150029494Y-60784057D01*
X150013381Y-60723919D01*
X149946502Y-60608080D01*
X149851920Y-60513498D01*
X149736081Y-60446619D01*
X149675942Y-60430504D01*
X150238716Y-59867731D01*
X150238715Y-59867730D01*
X150201432Y-59840641D01*
X150044668Y-59760765D01*
X149993872Y-59712790D01*
X149977077Y-59644969D01*
X149999615Y-59578834D01*
X150044667Y-59539796D01*
X150201694Y-59459787D01*
X150362464Y-59342981D01*
X150502981Y-59202464D01*
X150619787Y-59041694D01*
X150710005Y-58864632D01*
X150771413Y-58675636D01*
X150802500Y-58479361D01*
X150802500Y-58280639D01*
X150771413Y-58084364D01*
X150717954Y-57919833D01*
X150710006Y-57895370D01*
X150710005Y-57895367D01*
X150619786Y-57718305D01*
X150604897Y-57697812D01*
X150502981Y-57557536D01*
X150362464Y-57417019D01*
X150201694Y-57300213D01*
X150045218Y-57220484D01*
X149994423Y-57172510D01*
X149977628Y-57104689D01*
X150000165Y-57038554D01*
X150045218Y-56999515D01*
X150201694Y-56919787D01*
X150362464Y-56802981D01*
X150502981Y-56662464D01*
X150619787Y-56501694D01*
X150710005Y-56324632D01*
X150771413Y-56135636D01*
X150802500Y-55939361D01*
X150802500Y-55740639D01*
X150771413Y-55544364D01*
X150734825Y-55431756D01*
X150710006Y-55355370D01*
X150710005Y-55355367D01*
X150619786Y-55178305D01*
X150603728Y-55156203D01*
X150502981Y-55017536D01*
X150362464Y-54877019D01*
X150201694Y-54760213D01*
X150196395Y-54757513D01*
X150024632Y-54669994D01*
X150024629Y-54669993D01*
X149835637Y-54608587D01*
X149737498Y-54593043D01*
X149639361Y-54577500D01*
X149440639Y-54577500D01*
X149375214Y-54587862D01*
X149244362Y-54608587D01*
X149055370Y-54669993D01*
X149055367Y-54669994D01*
X148878305Y-54760213D01*
X148717533Y-54877021D01*
X148577021Y-55017533D01*
X148460213Y-55178305D01*
X148380485Y-55334780D01*
X148332510Y-55385576D01*
X148264689Y-55402371D01*
X148198554Y-55379833D01*
X148159515Y-55334780D01*
X148118515Y-55254314D01*
X148079787Y-55178306D01*
X147962981Y-55017536D01*
X147822464Y-54877019D01*
X147661694Y-54760213D01*
X147656395Y-54757513D01*
X147484632Y-54669994D01*
X147484629Y-54669993D01*
X147295637Y-54608587D01*
X147197498Y-54593043D01*
X147099361Y-54577500D01*
X146900639Y-54577500D01*
X146835214Y-54587862D01*
X146704362Y-54608587D01*
X146515370Y-54669993D01*
X146515367Y-54669994D01*
X146338305Y-54760213D01*
X146177533Y-54877021D01*
X146037021Y-55017533D01*
X145920213Y-55178305D01*
X145829994Y-55355367D01*
X145829993Y-55355370D01*
X145768587Y-55544362D01*
X145737500Y-55740639D01*
X107917391Y-55740639D01*
X107937087Y-51309778D01*
X157849500Y-51309778D01*
X157849500Y-51530221D01*
X157883985Y-51747952D01*
X157952103Y-51957603D01*
X157952104Y-51957606D01*
X158052187Y-52154025D01*
X158181752Y-52332358D01*
X158181756Y-52332363D01*
X158337636Y-52488243D01*
X158337641Y-52488247D01*
X158477254Y-52589682D01*
X158519920Y-52645012D01*
X158525899Y-52714625D01*
X158493293Y-52776420D01*
X158477254Y-52790318D01*
X158337641Y-52891752D01*
X158337636Y-52891756D01*
X158181756Y-53047636D01*
X158181752Y-53047641D01*
X158052187Y-53225974D01*
X157952104Y-53422393D01*
X157952103Y-53422396D01*
X157883985Y-53632047D01*
X157849500Y-53849778D01*
X157849500Y-54070221D01*
X157883985Y-54287952D01*
X157952103Y-54497603D01*
X157952104Y-54497606D01*
X157992813Y-54577500D01*
X158052049Y-54693756D01*
X158052187Y-54694025D01*
X158181752Y-54872358D01*
X158181756Y-54872363D01*
X158231928Y-54922535D01*
X158265413Y-54983858D01*
X158260429Y-55053550D01*
X158218557Y-55109483D01*
X158187581Y-55126398D01*
X158107669Y-55156203D01*
X158107664Y-55156206D01*
X157992455Y-55242452D01*
X157992452Y-55242455D01*
X157906206Y-55357664D01*
X157906202Y-55357671D01*
X157855908Y-55492517D01*
X157849501Y-55552116D01*
X157849501Y-55552123D01*
X157849500Y-55552135D01*
X157849500Y-57447870D01*
X157849501Y-57447876D01*
X157855908Y-57507483D01*
X157906202Y-57642328D01*
X157906206Y-57642335D01*
X157992452Y-57757544D01*
X157992455Y-57757547D01*
X158107664Y-57843793D01*
X158107671Y-57843797D01*
X158242517Y-57894091D01*
X158242516Y-57894091D01*
X158249444Y-57894835D01*
X158302127Y-57900500D01*
X160197872Y-57900499D01*
X160257483Y-57894091D01*
X160392331Y-57843796D01*
X160507546Y-57757546D01*
X160593796Y-57642331D01*
X160644091Y-57507483D01*
X160650500Y-57447873D01*
X160650499Y-55552128D01*
X160644091Y-55492517D01*
X160621429Y-55431758D01*
X160593797Y-55357671D01*
X160593793Y-55357664D01*
X160507547Y-55242455D01*
X160507544Y-55242452D01*
X160392335Y-55156206D01*
X160392328Y-55156202D01*
X160312419Y-55126398D01*
X160256485Y-55084527D01*
X160232068Y-55019062D01*
X160246920Y-54950789D01*
X160268069Y-54922537D01*
X160318242Y-54872365D01*
X160447815Y-54694022D01*
X160547895Y-54497606D01*
X160616015Y-54287951D01*
X160650500Y-54070222D01*
X160650500Y-53969097D01*
X160670185Y-53902058D01*
X160722989Y-53856303D01*
X160792147Y-53846359D01*
X160855703Y-53875384D01*
X160862181Y-53881416D01*
X169653181Y-62672416D01*
X169686666Y-62733739D01*
X169689500Y-62760097D01*
X169689500Y-84409902D01*
X169669815Y-84476941D01*
X169653181Y-84497583D01*
X166944842Y-87205921D01*
X166883519Y-87239406D01*
X166818848Y-87236173D01*
X166804534Y-87231522D01*
X166629995Y-87203878D01*
X166602352Y-87199500D01*
X166397648Y-87199500D01*
X166373329Y-87203351D01*
X166195465Y-87231522D01*
X166000776Y-87294781D01*
X165818386Y-87387715D01*
X165652786Y-87508028D01*
X165508028Y-87652786D01*
X165387715Y-87818386D01*
X165294781Y-88000776D01*
X165231522Y-88195465D01*
X165199500Y-88397648D01*
X165199500Y-88602351D01*
X165231522Y-88804534D01*
X165294781Y-88999223D01*
X165387715Y-89181613D01*
X165508028Y-89347213D01*
X165652786Y-89491971D01*
X165807749Y-89604556D01*
X165818390Y-89612287D01*
X165934607Y-89671503D01*
X166000776Y-89705218D01*
X166000778Y-89705218D01*
X166000781Y-89705220D01*
X166105137Y-89739127D01*
X166195465Y-89768477D01*
X166286597Y-89782911D01*
X166397648Y-89800500D01*
X166397649Y-89800500D01*
X166602351Y-89800500D01*
X166602352Y-89800500D01*
X166804534Y-89768477D01*
X166999219Y-89705220D01*
X167181610Y-89612287D01*
X167274590Y-89544732D01*
X167347213Y-89491971D01*
X167347215Y-89491968D01*
X167347219Y-89491966D01*
X167491966Y-89347219D01*
X167491968Y-89347215D01*
X167491971Y-89347213D01*
X167595133Y-89205220D01*
X167612287Y-89181610D01*
X167703864Y-89001881D01*
X167705218Y-88999223D01*
X167705218Y-88999222D01*
X167705220Y-88999219D01*
X167768477Y-88804534D01*
X167800500Y-88602352D01*
X167800500Y-88397648D01*
X167768477Y-88195466D01*
X167763825Y-88181151D01*
X167761832Y-88111312D01*
X167794075Y-88055158D01*
X169928081Y-85921153D01*
X173199500Y-85921153D01*
X173199500Y-86078846D01*
X173230261Y-86233489D01*
X173230264Y-86233501D01*
X173290602Y-86379172D01*
X173290609Y-86379185D01*
X173378210Y-86510288D01*
X173378213Y-86510292D01*
X173489707Y-86621786D01*
X173489711Y-86621789D01*
X173620814Y-86709390D01*
X173620827Y-86709397D01*
X173744632Y-86760678D01*
X173766503Y-86769737D01*
X173921153Y-86800499D01*
X173921156Y-86800500D01*
X173921158Y-86800500D01*
X174078844Y-86800500D01*
X174078845Y-86800499D01*
X174233497Y-86769737D01*
X174379179Y-86709394D01*
X174391086Y-86701438D01*
X174510875Y-86621398D01*
X174577553Y-86600520D01*
X174579766Y-86600500D01*
X174866680Y-86600500D01*
X174933719Y-86620185D01*
X174979474Y-86672989D01*
X174989418Y-86742147D01*
X174960393Y-86805703D01*
X174922975Y-86834985D01*
X174818644Y-86888143D01*
X174774077Y-86920523D01*
X174774077Y-86920524D01*
X175453554Y-87600000D01*
X175447339Y-87600000D01*
X175345606Y-87627259D01*
X175254394Y-87679920D01*
X175179920Y-87754394D01*
X175127259Y-87845606D01*
X175100000Y-87947339D01*
X175100000Y-87953553D01*
X174420524Y-87274077D01*
X174420523Y-87274077D01*
X174388143Y-87318644D01*
X174295244Y-87500968D01*
X174232009Y-87695582D01*
X174200000Y-87897682D01*
X174200000Y-88102317D01*
X174232009Y-88304417D01*
X174295244Y-88499031D01*
X174388141Y-88681350D01*
X174388147Y-88681359D01*
X174420523Y-88725921D01*
X174420524Y-88725922D01*
X175100000Y-88046446D01*
X175100000Y-88052661D01*
X175127259Y-88154394D01*
X175179920Y-88245606D01*
X175254394Y-88320080D01*
X175345606Y-88372741D01*
X175447339Y-88400000D01*
X175453553Y-88400000D01*
X174774076Y-89079474D01*
X174818650Y-89111859D01*
X175000968Y-89204755D01*
X175195582Y-89267990D01*
X175397683Y-89300000D01*
X175602317Y-89300000D01*
X175804417Y-89267990D01*
X175999031Y-89204755D01*
X176181349Y-89111859D01*
X176225921Y-89079474D01*
X175546447Y-88400000D01*
X175552661Y-88400000D01*
X175654394Y-88372741D01*
X175745606Y-88320080D01*
X175820080Y-88245606D01*
X175872741Y-88154394D01*
X175900000Y-88052661D01*
X175900000Y-88046448D01*
X176579474Y-88725922D01*
X176579474Y-88725921D01*
X176611859Y-88681349D01*
X176639233Y-88627624D01*
X176687207Y-88576827D01*
X176755028Y-88560031D01*
X176821163Y-88582567D01*
X176860203Y-88627621D01*
X176887713Y-88681611D01*
X177008028Y-88847213D01*
X177152786Y-88991971D01*
X177272362Y-89078846D01*
X177318390Y-89112287D01*
X177434607Y-89171503D01*
X177500776Y-89205218D01*
X177500778Y-89205218D01*
X177500781Y-89205220D01*
X177587784Y-89233489D01*
X177695465Y-89268477D01*
X177796557Y-89284488D01*
X177897648Y-89300500D01*
X177897649Y-89300500D01*
X178102351Y-89300500D01*
X178102352Y-89300500D01*
X178304534Y-89268477D01*
X178499219Y-89205220D01*
X178681610Y-89112287D01*
X178830675Y-89003986D01*
X178847213Y-88991971D01*
X178847215Y-88991968D01*
X178847219Y-88991966D01*
X178991966Y-88847219D01*
X178991968Y-88847215D01*
X178991971Y-88847213D01*
X179071096Y-88738305D01*
X179112287Y-88681610D01*
X179205220Y-88499219D01*
X179268477Y-88304534D01*
X179300500Y-88102352D01*
X179300500Y-87897648D01*
X179287946Y-87818386D01*
X179268477Y-87695465D01*
X179211930Y-87521432D01*
X179205220Y-87500781D01*
X179205218Y-87500778D01*
X179205218Y-87500776D01*
X179147610Y-87387715D01*
X179112287Y-87318390D01*
X179095134Y-87294781D01*
X178991971Y-87152786D01*
X178847213Y-87008028D01*
X178681613Y-86887715D01*
X178681612Y-86887714D01*
X178681610Y-86887713D01*
X178578126Y-86834985D01*
X178499223Y-86794781D01*
X178304534Y-86731522D01*
X178129995Y-86703878D01*
X178102352Y-86699500D01*
X177897648Y-86699500D01*
X177873329Y-86703351D01*
X177695465Y-86731522D01*
X177500776Y-86794781D01*
X177318386Y-86887715D01*
X177152786Y-87008028D01*
X177008028Y-87152786D01*
X176887714Y-87318386D01*
X176860203Y-87372379D01*
X176812227Y-87423174D01*
X176744406Y-87439968D01*
X176678272Y-87417429D01*
X176639234Y-87372376D01*
X176611861Y-87318652D01*
X176579474Y-87274077D01*
X176579474Y-87274076D01*
X175900000Y-87953551D01*
X175900000Y-87947339D01*
X175872741Y-87845606D01*
X175820080Y-87754394D01*
X175745606Y-87679920D01*
X175654394Y-87627259D01*
X175552661Y-87600000D01*
X175546446Y-87600000D01*
X176225922Y-86920524D01*
X176225921Y-86920523D01*
X176181359Y-86888147D01*
X176181350Y-86888141D01*
X175999031Y-86795244D01*
X175831705Y-86740876D01*
X175774030Y-86701438D01*
X175746832Y-86637079D01*
X175758747Y-86568233D01*
X175805992Y-86516757D01*
X175807913Y-86515623D01*
X175868716Y-86480520D01*
X175980520Y-86368716D01*
X175980520Y-86368714D01*
X175990728Y-86358507D01*
X175990730Y-86358504D01*
X177555158Y-84794075D01*
X177616479Y-84760592D01*
X177681151Y-84763825D01*
X177695466Y-84768477D01*
X177897648Y-84800500D01*
X177897649Y-84800500D01*
X178102351Y-84800500D01*
X178102352Y-84800500D01*
X178304534Y-84768477D01*
X178499219Y-84705220D01*
X178681610Y-84612287D01*
X178774590Y-84544732D01*
X178847213Y-84491971D01*
X178847215Y-84491968D01*
X178847219Y-84491966D01*
X178991966Y-84347219D01*
X178991968Y-84347215D01*
X178991971Y-84347213D01*
X179051971Y-84264629D01*
X179112287Y-84181610D01*
X179205220Y-83999219D01*
X179268477Y-83804534D01*
X179300500Y-83602352D01*
X179300500Y-83397648D01*
X179285697Y-83304184D01*
X179268477Y-83195465D01*
X179237458Y-83100000D01*
X179205220Y-83000781D01*
X179205218Y-83000778D01*
X179205218Y-83000776D01*
X179153865Y-82899991D01*
X179112287Y-82818390D01*
X179080092Y-82774077D01*
X178991971Y-82652786D01*
X178847213Y-82508028D01*
X178681613Y-82387715D01*
X178681612Y-82387714D01*
X178681610Y-82387713D01*
X178621898Y-82357288D01*
X178499223Y-82294781D01*
X178304534Y-82231522D01*
X178124311Y-82202978D01*
X178102352Y-82199500D01*
X177897648Y-82199500D01*
X177875689Y-82202978D01*
X177695465Y-82231522D01*
X177500776Y-82294781D01*
X177318386Y-82387715D01*
X177152786Y-82508028D01*
X177008028Y-82652786D01*
X176887714Y-82818386D01*
X176860203Y-82872379D01*
X176812227Y-82923174D01*
X176744406Y-82939968D01*
X176678272Y-82917429D01*
X176639234Y-82872376D01*
X176611861Y-82818652D01*
X176579474Y-82774077D01*
X176579474Y-82774076D01*
X175900000Y-83453553D01*
X175900000Y-83447339D01*
X175872741Y-83345606D01*
X175820080Y-83254394D01*
X175745606Y-83179920D01*
X175654394Y-83127259D01*
X175552661Y-83100000D01*
X175546446Y-83100000D01*
X176225922Y-82420524D01*
X176225921Y-82420523D01*
X176181359Y-82388147D01*
X176181350Y-82388141D01*
X175999031Y-82295244D01*
X175804417Y-82232009D01*
X175602317Y-82200000D01*
X175397683Y-82200000D01*
X175195582Y-82232009D01*
X175000968Y-82295244D01*
X174818644Y-82388143D01*
X174774077Y-82420523D01*
X174774077Y-82420524D01*
X175453554Y-83100000D01*
X175447339Y-83100000D01*
X175345606Y-83127259D01*
X175254394Y-83179920D01*
X175179920Y-83254394D01*
X175127259Y-83345606D01*
X175100000Y-83447339D01*
X175100000Y-83453553D01*
X174420524Y-82774077D01*
X174420523Y-82774077D01*
X174388143Y-82818644D01*
X174295244Y-83000968D01*
X174232009Y-83195582D01*
X174200000Y-83397682D01*
X174200000Y-83602317D01*
X174232009Y-83804417D01*
X174295244Y-83999031D01*
X174388141Y-84181350D01*
X174388147Y-84181359D01*
X174420523Y-84225921D01*
X174420524Y-84225922D01*
X175100000Y-83546446D01*
X175100000Y-83552661D01*
X175127259Y-83654394D01*
X175179920Y-83745606D01*
X175254394Y-83820080D01*
X175345606Y-83872741D01*
X175447339Y-83900000D01*
X175453553Y-83900000D01*
X174774076Y-84579474D01*
X174818650Y-84611859D01*
X175000968Y-84704755D01*
X175195582Y-84767990D01*
X175397683Y-84800000D01*
X175551402Y-84800000D01*
X175618441Y-84819685D01*
X175664196Y-84872489D01*
X175674140Y-84941647D01*
X175645115Y-85005203D01*
X175639083Y-85011681D01*
X175287584Y-85363181D01*
X175226261Y-85396666D01*
X175199903Y-85399500D01*
X174579766Y-85399500D01*
X174512727Y-85379815D01*
X174510875Y-85378602D01*
X174379185Y-85290609D01*
X174379172Y-85290602D01*
X174233501Y-85230264D01*
X174233489Y-85230261D01*
X174078845Y-85199500D01*
X174078842Y-85199500D01*
X173921158Y-85199500D01*
X173921155Y-85199500D01*
X173766510Y-85230261D01*
X173766498Y-85230264D01*
X173620827Y-85290602D01*
X173620814Y-85290609D01*
X173489711Y-85378210D01*
X173489707Y-85378213D01*
X173378213Y-85489707D01*
X173378210Y-85489711D01*
X173290609Y-85620814D01*
X173290602Y-85620827D01*
X173230264Y-85766498D01*
X173230261Y-85766510D01*
X173199500Y-85921153D01*
X169928081Y-85921153D01*
X170648506Y-85200728D01*
X170648511Y-85200724D01*
X170658714Y-85190520D01*
X170658716Y-85190520D01*
X170770520Y-85078716D01*
X170849577Y-84941784D01*
X170890500Y-84789057D01*
X170890500Y-74401577D01*
X177249500Y-74401577D01*
X177249500Y-74598422D01*
X177280290Y-74792826D01*
X177341117Y-74980029D01*
X177388211Y-75072455D01*
X177430476Y-75155405D01*
X177546172Y-75314646D01*
X177685354Y-75453828D01*
X177844595Y-75569524D01*
X177927455Y-75611743D01*
X178019970Y-75658882D01*
X178019972Y-75658882D01*
X178019975Y-75658884D01*
X178120317Y-75691487D01*
X178207173Y-75719709D01*
X178401578Y-75750500D01*
X178401583Y-75750500D01*
X178598422Y-75750500D01*
X178792826Y-75719709D01*
X178980025Y-75658884D01*
X179155405Y-75569524D01*
X179314646Y-75453828D01*
X179453828Y-75314646D01*
X179569524Y-75155405D01*
X179658884Y-74980025D01*
X179719709Y-74792826D01*
X179720156Y-74790005D01*
X179750500Y-74598422D01*
X179750500Y-74401577D01*
X179719709Y-74207173D01*
X179672438Y-74061689D01*
X179658884Y-74019975D01*
X179658882Y-74019972D01*
X179658882Y-74019970D01*
X179569523Y-73844594D01*
X179453828Y-73685354D01*
X179314646Y-73546172D01*
X179155405Y-73430476D01*
X178980029Y-73341117D01*
X178792826Y-73280290D01*
X178598422Y-73249500D01*
X178598417Y-73249500D01*
X178401583Y-73249500D01*
X178401578Y-73249500D01*
X178207173Y-73280290D01*
X178019970Y-73341117D01*
X177844594Y-73430476D01*
X177753741Y-73496485D01*
X177685354Y-73546172D01*
X177685352Y-73546174D01*
X177685351Y-73546174D01*
X177546174Y-73685351D01*
X177546174Y-73685352D01*
X177546172Y-73685354D01*
X177496485Y-73753741D01*
X177430476Y-73844594D01*
X177341117Y-74019970D01*
X177280290Y-74207173D01*
X177249500Y-74401577D01*
X170890500Y-74401577D01*
X170890500Y-65724500D01*
X170910185Y-65657461D01*
X170962989Y-65611706D01*
X171014500Y-65600500D01*
X177327404Y-65600500D01*
X177394443Y-65620185D01*
X177427722Y-65651614D01*
X177430475Y-65655403D01*
X177430476Y-65655405D01*
X177546172Y-65814646D01*
X177685354Y-65953828D01*
X177844595Y-66069524D01*
X177903152Y-66099360D01*
X178019970Y-66158882D01*
X178019972Y-66158882D01*
X178019975Y-66158884D01*
X178120317Y-66191487D01*
X178207173Y-66219709D01*
X178401578Y-66250500D01*
X178401583Y-66250500D01*
X178598422Y-66250500D01*
X178792826Y-66219709D01*
X178980025Y-66158884D01*
X179155405Y-66069524D01*
X179314646Y-65953828D01*
X179453828Y-65814646D01*
X179569524Y-65655405D01*
X179658884Y-65480025D01*
X179719709Y-65292826D01*
X179737969Y-65177536D01*
X179750500Y-65098422D01*
X179750500Y-64901577D01*
X179719709Y-64707173D01*
X179691227Y-64619515D01*
X179658884Y-64519975D01*
X179658882Y-64519972D01*
X179658882Y-64519970D01*
X179587469Y-64379815D01*
X179569524Y-64344595D01*
X179453828Y-64185354D01*
X179314646Y-64046172D01*
X179155405Y-63930476D01*
X178980029Y-63841117D01*
X178792826Y-63780290D01*
X178598422Y-63749500D01*
X178598417Y-63749500D01*
X178401583Y-63749500D01*
X178401578Y-63749500D01*
X178207173Y-63780290D01*
X178019970Y-63841117D01*
X177844594Y-63930476D01*
X177753741Y-63996485D01*
X177685354Y-64046172D01*
X177685352Y-64046174D01*
X177685351Y-64046174D01*
X177546174Y-64185351D01*
X177546174Y-64185352D01*
X177546172Y-64185354D01*
X177480677Y-64275500D01*
X177427722Y-64348386D01*
X177372392Y-64391051D01*
X177327404Y-64399500D01*
X171014500Y-64399500D01*
X170947461Y-64379815D01*
X170901706Y-64327011D01*
X170890500Y-64275500D01*
X170890500Y-62549060D01*
X170890501Y-62549047D01*
X170890501Y-62380944D01*
X170890305Y-62380213D01*
X170849577Y-62228216D01*
X170831843Y-62197500D01*
X170770524Y-62091290D01*
X170770518Y-62091282D01*
X168022214Y-59342978D01*
X160623437Y-51944202D01*
X160589953Y-51882880D01*
X160593187Y-51818205D01*
X160616015Y-51747951D01*
X160650500Y-51530222D01*
X160650500Y-51309778D01*
X169599500Y-51309778D01*
X169599500Y-51530221D01*
X169633985Y-51747952D01*
X169702103Y-51957603D01*
X169702104Y-51957606D01*
X169802187Y-52154025D01*
X169931752Y-52332358D01*
X169931756Y-52332363D01*
X170087640Y-52488247D01*
X170227679Y-52589990D01*
X170270345Y-52645319D01*
X170276324Y-52714933D01*
X170243719Y-52776728D01*
X170227679Y-52790626D01*
X170202485Y-52808930D01*
X170202485Y-52808932D01*
X170870590Y-53477037D01*
X170807007Y-53494075D01*
X170692993Y-53559901D01*
X170599901Y-53652993D01*
X170534075Y-53767007D01*
X170517037Y-53830590D01*
X169848932Y-53162485D01*
X169848931Y-53162485D01*
X169802616Y-53226233D01*
X169702567Y-53422589D01*
X169634473Y-53632164D01*
X169600000Y-53849818D01*
X169600000Y-54070181D01*
X169634473Y-54287835D01*
X169702567Y-54497410D01*
X169802611Y-54693756D01*
X169848932Y-54757513D01*
X170517037Y-54089408D01*
X170534075Y-54152993D01*
X170599901Y-54267007D01*
X170692993Y-54360099D01*
X170807007Y-54425925D01*
X170870590Y-54442962D01*
X170202485Y-55111065D01*
X170202485Y-55111066D01*
X170227680Y-55129371D01*
X170270346Y-55184701D01*
X170276325Y-55254314D01*
X170243720Y-55316110D01*
X170227681Y-55330008D01*
X170087636Y-55431756D01*
X169931756Y-55587636D01*
X169931752Y-55587641D01*
X169802187Y-55765974D01*
X169702104Y-55962393D01*
X169702103Y-55962396D01*
X169633985Y-56172047D01*
X169599500Y-56389778D01*
X169599500Y-56610221D01*
X169633985Y-56827952D01*
X169702103Y-57037603D01*
X169702104Y-57037606D01*
X169741698Y-57115311D01*
X169795287Y-57220485D01*
X169802187Y-57234025D01*
X169931752Y-57412358D01*
X169931756Y-57412363D01*
X170087636Y-57568243D01*
X170087641Y-57568247D01*
X170189606Y-57642328D01*
X170265978Y-57697815D01*
X170394375Y-57763237D01*
X170462393Y-57797895D01*
X170462396Y-57797896D01*
X170567221Y-57831955D01*
X170672049Y-57866015D01*
X170889778Y-57900500D01*
X170889779Y-57900500D01*
X171110221Y-57900500D01*
X171110222Y-57900500D01*
X171327951Y-57866015D01*
X171537606Y-57797895D01*
X171734022Y-57697815D01*
X171912365Y-57568242D01*
X172068242Y-57412365D01*
X172197815Y-57234022D01*
X172297895Y-57037606D01*
X172366015Y-56827951D01*
X172400500Y-56610222D01*
X172400500Y-56389778D01*
X172366015Y-56172049D01*
X172297895Y-55962394D01*
X172297895Y-55962393D01*
X172263237Y-55894375D01*
X172197815Y-55765978D01*
X172179405Y-55740639D01*
X172068247Y-55587641D01*
X172068243Y-55587636D01*
X171912363Y-55431756D01*
X171912358Y-55431752D01*
X171772319Y-55330008D01*
X171729653Y-55274678D01*
X171723674Y-55205065D01*
X171756279Y-55143270D01*
X171772319Y-55129372D01*
X171797513Y-55111066D01*
X171797514Y-55111066D01*
X171129409Y-54442962D01*
X171192993Y-54425925D01*
X171307007Y-54360099D01*
X171400099Y-54267007D01*
X171465925Y-54152993D01*
X171482962Y-54089410D01*
X172151066Y-54757514D01*
X172151066Y-54757513D01*
X172197386Y-54693760D01*
X172297432Y-54497410D01*
X172365526Y-54287835D01*
X172400000Y-54070181D01*
X172400000Y-53849818D01*
X172365526Y-53632164D01*
X172297432Y-53422589D01*
X172197388Y-53226243D01*
X172151066Y-53162485D01*
X172151065Y-53162485D01*
X171482962Y-53830589D01*
X171465925Y-53767007D01*
X171400099Y-53652993D01*
X171307007Y-53559901D01*
X171192993Y-53494075D01*
X171129407Y-53477037D01*
X171797513Y-52808932D01*
X171772319Y-52790628D01*
X171729653Y-52735298D01*
X171723674Y-52665685D01*
X171756279Y-52603889D01*
X171772313Y-52589994D01*
X171912365Y-52488242D01*
X172068242Y-52332365D01*
X172197815Y-52154022D01*
X172297895Y-51957606D01*
X172366015Y-51747951D01*
X172400500Y-51530222D01*
X172400500Y-51309778D01*
X172366015Y-51092049D01*
X172297895Y-50882394D01*
X172297895Y-50882393D01*
X172263237Y-50814375D01*
X172197815Y-50685978D01*
X172181260Y-50663192D01*
X172068247Y-50507641D01*
X172068243Y-50507636D01*
X171912363Y-50351756D01*
X171912358Y-50351752D01*
X171734025Y-50222187D01*
X171734024Y-50222186D01*
X171734022Y-50222185D01*
X171671096Y-50190122D01*
X171537606Y-50122104D01*
X171537603Y-50122103D01*
X171327952Y-50053985D01*
X171219086Y-50036742D01*
X171110222Y-50019500D01*
X170889778Y-50019500D01*
X170817201Y-50030995D01*
X170672047Y-50053985D01*
X170462396Y-50122103D01*
X170462393Y-50122104D01*
X170265974Y-50222187D01*
X170087641Y-50351752D01*
X170087636Y-50351756D01*
X169931756Y-50507636D01*
X169931752Y-50507641D01*
X169802187Y-50685974D01*
X169702104Y-50882393D01*
X169702103Y-50882396D01*
X169633985Y-51092047D01*
X169599500Y-51309778D01*
X160650500Y-51309778D01*
X160616015Y-51092049D01*
X160547895Y-50882394D01*
X160547895Y-50882393D01*
X160513237Y-50814375D01*
X160447815Y-50685978D01*
X160431260Y-50663192D01*
X160318247Y-50507641D01*
X160318243Y-50507636D01*
X160162363Y-50351756D01*
X160162358Y-50351752D01*
X159984025Y-50222187D01*
X159984024Y-50222186D01*
X159984022Y-50222185D01*
X159921096Y-50190122D01*
X159787606Y-50122104D01*
X159787603Y-50122103D01*
X159577952Y-50053985D01*
X159469086Y-50036742D01*
X159360222Y-50019500D01*
X159139778Y-50019500D01*
X159067201Y-50030995D01*
X158922047Y-50053985D01*
X158712396Y-50122103D01*
X158712393Y-50122104D01*
X158515974Y-50222187D01*
X158337641Y-50351752D01*
X158337636Y-50351756D01*
X158181756Y-50507636D01*
X158181752Y-50507641D01*
X158052187Y-50685974D01*
X157952104Y-50882393D01*
X157952103Y-50882396D01*
X157883985Y-51092047D01*
X157849500Y-51309778D01*
X107937087Y-51309778D01*
X107955527Y-47161491D01*
X144899500Y-47161491D01*
X144899500Y-47498508D01*
X144937231Y-47833381D01*
X144937233Y-47833397D01*
X145012223Y-48161953D01*
X145012227Y-48161965D01*
X145123532Y-48480054D01*
X145269752Y-48783683D01*
X145269754Y-48783686D01*
X145449054Y-49069039D01*
X145659175Y-49332523D01*
X145897477Y-49570825D01*
X146160961Y-49780946D01*
X146446314Y-49960246D01*
X146749949Y-50106469D01*
X146988848Y-50190063D01*
X147068034Y-50217772D01*
X147068046Y-50217776D01*
X147396606Y-50292767D01*
X147731492Y-50330499D01*
X147731493Y-50330500D01*
X147731496Y-50330500D01*
X148068507Y-50330500D01*
X148068507Y-50330499D01*
X148403394Y-50292767D01*
X148731954Y-50217776D01*
X149050051Y-50106469D01*
X149353686Y-49960246D01*
X149639039Y-49780946D01*
X149902523Y-49570825D01*
X150140825Y-49332523D01*
X150350946Y-49069039D01*
X150530246Y-48783686D01*
X150676469Y-48480051D01*
X150787776Y-48161954D01*
X150862767Y-47833394D01*
X150900500Y-47498504D01*
X150900500Y-47161496D01*
X150862767Y-46826606D01*
X150787776Y-46498046D01*
X150676469Y-46179949D01*
X150530246Y-45876314D01*
X150350946Y-45590961D01*
X150140825Y-45327477D01*
X149902523Y-45089175D01*
X149639039Y-44879054D01*
X149353686Y-44699754D01*
X149353683Y-44699752D01*
X149050054Y-44553532D01*
X148731965Y-44442227D01*
X148731953Y-44442223D01*
X148403397Y-44367233D01*
X148403381Y-44367231D01*
X148068508Y-44329500D01*
X148068504Y-44329500D01*
X147731496Y-44329500D01*
X147731491Y-44329500D01*
X147396618Y-44367231D01*
X147396602Y-44367233D01*
X147068046Y-44442223D01*
X147068034Y-44442227D01*
X146749945Y-44553532D01*
X146446316Y-44699752D01*
X146160962Y-44879053D01*
X145897477Y-45089174D01*
X145659174Y-45327477D01*
X145449053Y-45590962D01*
X145269752Y-45876316D01*
X145123532Y-46179945D01*
X145012227Y-46498034D01*
X145012223Y-46498046D01*
X144937233Y-46826602D01*
X144937231Y-46826618D01*
X144899500Y-47161491D01*
X107955527Y-47161491D01*
X107973476Y-43123565D01*
X107993459Y-43056617D01*
X108046465Y-43011097D01*
X108097591Y-43000119D01*
X174876123Y-43064842D01*
G37*
%TD.AperFunction*%
%TD*%
M02*
