%TF.GenerationSoftware,KiCad,Pcbnew,10.0.1*%
%TF.CreationDate,2026-05-25T22:35:25+01:00*%
%TF.ProjectId,Thin-Pod,5468696e-2d50-46f6-942e-6b696361645f,rev?*%
%TF.SameCoordinates,Original*%
%TF.FileFunction,AssemblyDrawing,Top*%
%FSLAX46Y46*%
G04 Gerber Fmt 4.6, Leading zero omitted, Abs format (unit mm)*
G04 Created by KiCad (PCBNEW 10.0.1) date 2026-05-25 22:35:25*
%MOMM*%
%LPD*%
G01*
G04 APERTURE LIST*
%ADD10C,0.150000*%
%ADD11C,0.090000*%
%ADD12C,0.100000*%
%ADD13C,0.040000*%
%ADD14C,0.127000*%
G04 APERTURE END LIST*
D10*
X158857142Y-108984819D02*
X158285714Y-108984819D01*
X158571428Y-108984819D02*
X158571428Y-107984819D01*
X158571428Y-107984819D02*
X158476190Y-108127676D01*
X158476190Y-108127676D02*
X158380952Y-108222914D01*
X158380952Y-108222914D02*
X158285714Y-108270533D01*
X159285714Y-108984819D02*
X159285714Y-107984819D01*
X159285714Y-107984819D02*
X159857142Y-108984819D01*
X159857142Y-108984819D02*
X159857142Y-107984819D01*
X160809523Y-107984819D02*
X160333333Y-107984819D01*
X160333333Y-107984819D02*
X160285714Y-108461009D01*
X160285714Y-108461009D02*
X160333333Y-108413390D01*
X160333333Y-108413390D02*
X160428571Y-108365771D01*
X160428571Y-108365771D02*
X160666666Y-108365771D01*
X160666666Y-108365771D02*
X160761904Y-108413390D01*
X160761904Y-108413390D02*
X160809523Y-108461009D01*
X160809523Y-108461009D02*
X160857142Y-108556247D01*
X160857142Y-108556247D02*
X160857142Y-108794342D01*
X160857142Y-108794342D02*
X160809523Y-108889580D01*
X160809523Y-108889580D02*
X160761904Y-108937200D01*
X160761904Y-108937200D02*
X160666666Y-108984819D01*
X160666666Y-108984819D02*
X160428571Y-108984819D01*
X160428571Y-108984819D02*
X160333333Y-108937200D01*
X160333333Y-108937200D02*
X160285714Y-108889580D01*
X161428571Y-108413390D02*
X161333333Y-108365771D01*
X161333333Y-108365771D02*
X161285714Y-108318152D01*
X161285714Y-108318152D02*
X161238095Y-108222914D01*
X161238095Y-108222914D02*
X161238095Y-108175295D01*
X161238095Y-108175295D02*
X161285714Y-108080057D01*
X161285714Y-108080057D02*
X161333333Y-108032438D01*
X161333333Y-108032438D02*
X161428571Y-107984819D01*
X161428571Y-107984819D02*
X161619047Y-107984819D01*
X161619047Y-107984819D02*
X161714285Y-108032438D01*
X161714285Y-108032438D02*
X161761904Y-108080057D01*
X161761904Y-108080057D02*
X161809523Y-108175295D01*
X161809523Y-108175295D02*
X161809523Y-108222914D01*
X161809523Y-108222914D02*
X161761904Y-108318152D01*
X161761904Y-108318152D02*
X161714285Y-108365771D01*
X161714285Y-108365771D02*
X161619047Y-108413390D01*
X161619047Y-108413390D02*
X161428571Y-108413390D01*
X161428571Y-108413390D02*
X161333333Y-108461009D01*
X161333333Y-108461009D02*
X161285714Y-108508628D01*
X161285714Y-108508628D02*
X161238095Y-108603866D01*
X161238095Y-108603866D02*
X161238095Y-108794342D01*
X161238095Y-108794342D02*
X161285714Y-108889580D01*
X161285714Y-108889580D02*
X161333333Y-108937200D01*
X161333333Y-108937200D02*
X161428571Y-108984819D01*
X161428571Y-108984819D02*
X161619047Y-108984819D01*
X161619047Y-108984819D02*
X161714285Y-108937200D01*
X161714285Y-108937200D02*
X161761904Y-108889580D01*
X161761904Y-108889580D02*
X161809523Y-108794342D01*
X161809523Y-108794342D02*
X161809523Y-108603866D01*
X161809523Y-108603866D02*
X161761904Y-108508628D01*
X161761904Y-108508628D02*
X161714285Y-108461009D01*
X161714285Y-108461009D02*
X161619047Y-108413390D01*
X162761904Y-108984819D02*
X162190476Y-108984819D01*
X162476190Y-108984819D02*
X162476190Y-107984819D01*
X162476190Y-107984819D02*
X162380952Y-108127676D01*
X162380952Y-108127676D02*
X162285714Y-108222914D01*
X162285714Y-108222914D02*
X162190476Y-108270533D01*
X163095238Y-107984819D02*
X163761904Y-107984819D01*
X163761904Y-107984819D02*
X163333333Y-108984819D01*
X159871905Y-111454819D02*
X159871905Y-110454819D01*
X159871905Y-110454819D02*
X160110000Y-110454819D01*
X160110000Y-110454819D02*
X160252857Y-110502438D01*
X160252857Y-110502438D02*
X160348095Y-110597676D01*
X160348095Y-110597676D02*
X160395714Y-110692914D01*
X160395714Y-110692914D02*
X160443333Y-110883390D01*
X160443333Y-110883390D02*
X160443333Y-111026247D01*
X160443333Y-111026247D02*
X160395714Y-111216723D01*
X160395714Y-111216723D02*
X160348095Y-111311961D01*
X160348095Y-111311961D02*
X160252857Y-111407200D01*
X160252857Y-111407200D02*
X160110000Y-111454819D01*
X160110000Y-111454819D02*
X159871905Y-111454819D01*
X161395714Y-111454819D02*
X160824286Y-111454819D01*
X161110000Y-111454819D02*
X161110000Y-110454819D01*
X161110000Y-110454819D02*
X161014762Y-110597676D01*
X161014762Y-110597676D02*
X160919524Y-110692914D01*
X160919524Y-110692914D02*
X160824286Y-110740533D01*
X165818095Y-113554819D02*
X165818095Y-112554819D01*
X166389523Y-113554819D02*
X165960952Y-112983390D01*
X166389523Y-112554819D02*
X165818095Y-113126247D01*
X174214285Y-52104819D02*
X174214285Y-51104819D01*
X174214285Y-51104819D02*
X174547618Y-51819104D01*
X174547618Y-51819104D02*
X174880951Y-51104819D01*
X174880951Y-51104819D02*
X174880951Y-52104819D01*
X175499999Y-52104819D02*
X175404761Y-52057200D01*
X175404761Y-52057200D02*
X175357142Y-52009580D01*
X175357142Y-52009580D02*
X175309523Y-51914342D01*
X175309523Y-51914342D02*
X175309523Y-51628628D01*
X175309523Y-51628628D02*
X175357142Y-51533390D01*
X175357142Y-51533390D02*
X175404761Y-51485771D01*
X175404761Y-51485771D02*
X175499999Y-51438152D01*
X175499999Y-51438152D02*
X175642856Y-51438152D01*
X175642856Y-51438152D02*
X175738094Y-51485771D01*
X175738094Y-51485771D02*
X175785713Y-51533390D01*
X175785713Y-51533390D02*
X175833332Y-51628628D01*
X175833332Y-51628628D02*
X175833332Y-51914342D01*
X175833332Y-51914342D02*
X175785713Y-52009580D01*
X175785713Y-52009580D02*
X175738094Y-52057200D01*
X175738094Y-52057200D02*
X175642856Y-52104819D01*
X175642856Y-52104819D02*
X175499999Y-52104819D01*
X176690475Y-51438152D02*
X176690475Y-52104819D01*
X176261904Y-51438152D02*
X176261904Y-51961961D01*
X176261904Y-51961961D02*
X176309523Y-52057200D01*
X176309523Y-52057200D02*
X176404761Y-52104819D01*
X176404761Y-52104819D02*
X176547618Y-52104819D01*
X176547618Y-52104819D02*
X176642856Y-52057200D01*
X176642856Y-52057200D02*
X176690475Y-52009580D01*
X177166666Y-51438152D02*
X177166666Y-52104819D01*
X177166666Y-51533390D02*
X177214285Y-51485771D01*
X177214285Y-51485771D02*
X177309523Y-51438152D01*
X177309523Y-51438152D02*
X177452380Y-51438152D01*
X177452380Y-51438152D02*
X177547618Y-51485771D01*
X177547618Y-51485771D02*
X177595237Y-51581009D01*
X177595237Y-51581009D02*
X177595237Y-52104819D01*
X177928571Y-51438152D02*
X178309523Y-51438152D01*
X178071428Y-51104819D02*
X178071428Y-51961961D01*
X178071428Y-51961961D02*
X178119047Y-52057200D01*
X178119047Y-52057200D02*
X178214285Y-52104819D01*
X178214285Y-52104819D02*
X178309523Y-52104819D01*
X178642857Y-52104819D02*
X178642857Y-51438152D01*
X178642857Y-51104819D02*
X178595238Y-51152438D01*
X178595238Y-51152438D02*
X178642857Y-51200057D01*
X178642857Y-51200057D02*
X178690476Y-51152438D01*
X178690476Y-51152438D02*
X178642857Y-51104819D01*
X178642857Y-51104819D02*
X178642857Y-51200057D01*
X179119047Y-51438152D02*
X179119047Y-52104819D01*
X179119047Y-51533390D02*
X179166666Y-51485771D01*
X179166666Y-51485771D02*
X179261904Y-51438152D01*
X179261904Y-51438152D02*
X179404761Y-51438152D01*
X179404761Y-51438152D02*
X179499999Y-51485771D01*
X179499999Y-51485771D02*
X179547618Y-51581009D01*
X179547618Y-51581009D02*
X179547618Y-52104819D01*
X180452380Y-51438152D02*
X180452380Y-52247676D01*
X180452380Y-52247676D02*
X180404761Y-52342914D01*
X180404761Y-52342914D02*
X180357142Y-52390533D01*
X180357142Y-52390533D02*
X180261904Y-52438152D01*
X180261904Y-52438152D02*
X180119047Y-52438152D01*
X180119047Y-52438152D02*
X180023809Y-52390533D01*
X180452380Y-52057200D02*
X180357142Y-52104819D01*
X180357142Y-52104819D02*
X180166666Y-52104819D01*
X180166666Y-52104819D02*
X180071428Y-52057200D01*
X180071428Y-52057200D02*
X180023809Y-52009580D01*
X180023809Y-52009580D02*
X179976190Y-51914342D01*
X179976190Y-51914342D02*
X179976190Y-51628628D01*
X179976190Y-51628628D02*
X180023809Y-51533390D01*
X180023809Y-51533390D02*
X180071428Y-51485771D01*
X180071428Y-51485771D02*
X180166666Y-51438152D01*
X180166666Y-51438152D02*
X180357142Y-51438152D01*
X180357142Y-51438152D02*
X180452380Y-51485771D01*
X180928571Y-52104819D02*
X180928571Y-51104819D01*
X180928571Y-51581009D02*
X181499999Y-51581009D01*
X181499999Y-52104819D02*
X181499999Y-51104819D01*
X182119047Y-52104819D02*
X182023809Y-52057200D01*
X182023809Y-52057200D02*
X181976190Y-52009580D01*
X181976190Y-52009580D02*
X181928571Y-51914342D01*
X181928571Y-51914342D02*
X181928571Y-51628628D01*
X181928571Y-51628628D02*
X181976190Y-51533390D01*
X181976190Y-51533390D02*
X182023809Y-51485771D01*
X182023809Y-51485771D02*
X182119047Y-51438152D01*
X182119047Y-51438152D02*
X182261904Y-51438152D01*
X182261904Y-51438152D02*
X182357142Y-51485771D01*
X182357142Y-51485771D02*
X182404761Y-51533390D01*
X182404761Y-51533390D02*
X182452380Y-51628628D01*
X182452380Y-51628628D02*
X182452380Y-51914342D01*
X182452380Y-51914342D02*
X182404761Y-52009580D01*
X182404761Y-52009580D02*
X182357142Y-52057200D01*
X182357142Y-52057200D02*
X182261904Y-52104819D01*
X182261904Y-52104819D02*
X182119047Y-52104819D01*
X183023809Y-52104819D02*
X182928571Y-52057200D01*
X182928571Y-52057200D02*
X182880952Y-51961961D01*
X182880952Y-51961961D02*
X182880952Y-51104819D01*
X183785714Y-52057200D02*
X183690476Y-52104819D01*
X183690476Y-52104819D02*
X183500000Y-52104819D01*
X183500000Y-52104819D02*
X183404762Y-52057200D01*
X183404762Y-52057200D02*
X183357143Y-51961961D01*
X183357143Y-51961961D02*
X183357143Y-51581009D01*
X183357143Y-51581009D02*
X183404762Y-51485771D01*
X183404762Y-51485771D02*
X183500000Y-51438152D01*
X183500000Y-51438152D02*
X183690476Y-51438152D01*
X183690476Y-51438152D02*
X183785714Y-51485771D01*
X183785714Y-51485771D02*
X183833333Y-51581009D01*
X183833333Y-51581009D02*
X183833333Y-51676247D01*
X183833333Y-51676247D02*
X183357143Y-51771485D01*
X178238095Y-48454819D02*
X178238095Y-47454819D01*
X178238095Y-47931009D02*
X178809523Y-47931009D01*
X178809523Y-48454819D02*
X178809523Y-47454819D01*
X179809523Y-48454819D02*
X179238095Y-48454819D01*
X179523809Y-48454819D02*
X179523809Y-47454819D01*
X179523809Y-47454819D02*
X179428571Y-47597676D01*
X179428571Y-47597676D02*
X179333333Y-47692914D01*
X179333333Y-47692914D02*
X179238095Y-47740533D01*
X175202380Y-90504819D02*
X174630952Y-90504819D01*
X174916666Y-90504819D02*
X174916666Y-89504819D01*
X174916666Y-89504819D02*
X174821428Y-89647676D01*
X174821428Y-89647676D02*
X174726190Y-89742914D01*
X174726190Y-89742914D02*
X174630952Y-89790533D01*
X175821428Y-89504819D02*
X175916666Y-89504819D01*
X175916666Y-89504819D02*
X176011904Y-89552438D01*
X176011904Y-89552438D02*
X176059523Y-89600057D01*
X176059523Y-89600057D02*
X176107142Y-89695295D01*
X176107142Y-89695295D02*
X176154761Y-89885771D01*
X176154761Y-89885771D02*
X176154761Y-90123866D01*
X176154761Y-90123866D02*
X176107142Y-90314342D01*
X176107142Y-90314342D02*
X176059523Y-90409580D01*
X176059523Y-90409580D02*
X176011904Y-90457200D01*
X176011904Y-90457200D02*
X175916666Y-90504819D01*
X175916666Y-90504819D02*
X175821428Y-90504819D01*
X175821428Y-90504819D02*
X175726190Y-90457200D01*
X175726190Y-90457200D02*
X175678571Y-90409580D01*
X175678571Y-90409580D02*
X175630952Y-90314342D01*
X175630952Y-90314342D02*
X175583333Y-90123866D01*
X175583333Y-90123866D02*
X175583333Y-89885771D01*
X175583333Y-89885771D02*
X175630952Y-89695295D01*
X175630952Y-89695295D02*
X175678571Y-89600057D01*
X175678571Y-89600057D02*
X175726190Y-89552438D01*
X175726190Y-89552438D02*
X175821428Y-89504819D01*
X176773809Y-89504819D02*
X176869047Y-89504819D01*
X176869047Y-89504819D02*
X176964285Y-89552438D01*
X176964285Y-89552438D02*
X177011904Y-89600057D01*
X177011904Y-89600057D02*
X177059523Y-89695295D01*
X177059523Y-89695295D02*
X177107142Y-89885771D01*
X177107142Y-89885771D02*
X177107142Y-90123866D01*
X177107142Y-90123866D02*
X177059523Y-90314342D01*
X177059523Y-90314342D02*
X177011904Y-90409580D01*
X177011904Y-90409580D02*
X176964285Y-90457200D01*
X176964285Y-90457200D02*
X176869047Y-90504819D01*
X176869047Y-90504819D02*
X176773809Y-90504819D01*
X176773809Y-90504819D02*
X176678571Y-90457200D01*
X176678571Y-90457200D02*
X176630952Y-90409580D01*
X176630952Y-90409580D02*
X176583333Y-90314342D01*
X176583333Y-90314342D02*
X176535714Y-90123866D01*
X176535714Y-90123866D02*
X176535714Y-89885771D01*
X176535714Y-89885771D02*
X176583333Y-89695295D01*
X176583333Y-89695295D02*
X176630952Y-89600057D01*
X176630952Y-89600057D02*
X176678571Y-89552438D01*
X176678571Y-89552438D02*
X176773809Y-89504819D01*
X177535714Y-89838152D02*
X177535714Y-90504819D01*
X177535714Y-89933390D02*
X177583333Y-89885771D01*
X177583333Y-89885771D02*
X177678571Y-89838152D01*
X177678571Y-89838152D02*
X177821428Y-89838152D01*
X177821428Y-89838152D02*
X177916666Y-89885771D01*
X177916666Y-89885771D02*
X177964285Y-89981009D01*
X177964285Y-89981009D02*
X177964285Y-90504819D01*
X178773809Y-89981009D02*
X178440476Y-89981009D01*
X178440476Y-90504819D02*
X178440476Y-89504819D01*
X178440476Y-89504819D02*
X178916666Y-89504819D01*
D11*
X176650000Y-88215748D02*
X176621428Y-88244320D01*
X176621428Y-88244320D02*
X176535714Y-88272891D01*
X176535714Y-88272891D02*
X176478571Y-88272891D01*
X176478571Y-88272891D02*
X176392857Y-88244320D01*
X176392857Y-88244320D02*
X176335714Y-88187177D01*
X176335714Y-88187177D02*
X176307143Y-88130034D01*
X176307143Y-88130034D02*
X176278571Y-88015748D01*
X176278571Y-88015748D02*
X176278571Y-87930034D01*
X176278571Y-87930034D02*
X176307143Y-87815748D01*
X176307143Y-87815748D02*
X176335714Y-87758605D01*
X176335714Y-87758605D02*
X176392857Y-87701462D01*
X176392857Y-87701462D02*
X176478571Y-87672891D01*
X176478571Y-87672891D02*
X176535714Y-87672891D01*
X176535714Y-87672891D02*
X176621428Y-87701462D01*
X176621428Y-87701462D02*
X176650000Y-87730034D01*
X176878571Y-87730034D02*
X176907143Y-87701462D01*
X176907143Y-87701462D02*
X176964286Y-87672891D01*
X176964286Y-87672891D02*
X177107143Y-87672891D01*
X177107143Y-87672891D02*
X177164286Y-87701462D01*
X177164286Y-87701462D02*
X177192857Y-87730034D01*
X177192857Y-87730034D02*
X177221428Y-87787177D01*
X177221428Y-87787177D02*
X177221428Y-87844320D01*
X177221428Y-87844320D02*
X177192857Y-87930034D01*
X177192857Y-87930034D02*
X176850000Y-88272891D01*
X176850000Y-88272891D02*
X177221428Y-88272891D01*
D10*
X148523809Y-105204819D02*
X148190476Y-104728628D01*
X147952381Y-105204819D02*
X147952381Y-104204819D01*
X147952381Y-104204819D02*
X148333333Y-104204819D01*
X148333333Y-104204819D02*
X148428571Y-104252438D01*
X148428571Y-104252438D02*
X148476190Y-104300057D01*
X148476190Y-104300057D02*
X148523809Y-104395295D01*
X148523809Y-104395295D02*
X148523809Y-104538152D01*
X148523809Y-104538152D02*
X148476190Y-104633390D01*
X148476190Y-104633390D02*
X148428571Y-104681009D01*
X148428571Y-104681009D02*
X148333333Y-104728628D01*
X148333333Y-104728628D02*
X147952381Y-104728628D01*
X148904762Y-104919104D02*
X149380952Y-104919104D01*
X148809524Y-105204819D02*
X149142857Y-104204819D01*
X149142857Y-104204819D02*
X149476190Y-105204819D01*
X149714286Y-104204819D02*
X149952381Y-105204819D01*
X149952381Y-105204819D02*
X150142857Y-104490533D01*
X150142857Y-104490533D02*
X150333333Y-105204819D01*
X150333333Y-105204819D02*
X150571429Y-104204819D01*
X150714286Y-105300057D02*
X151476190Y-105300057D01*
X151714286Y-105204819D02*
X151714286Y-104204819D01*
X151714286Y-104204819D02*
X152095238Y-104204819D01*
X152095238Y-104204819D02*
X152190476Y-104252438D01*
X152190476Y-104252438D02*
X152238095Y-104300057D01*
X152238095Y-104300057D02*
X152285714Y-104395295D01*
X152285714Y-104395295D02*
X152285714Y-104538152D01*
X152285714Y-104538152D02*
X152238095Y-104633390D01*
X152238095Y-104633390D02*
X152190476Y-104681009D01*
X152190476Y-104681009D02*
X152095238Y-104728628D01*
X152095238Y-104728628D02*
X151714286Y-104728628D01*
X153285714Y-105204819D02*
X152952381Y-104728628D01*
X152714286Y-105204819D02*
X152714286Y-104204819D01*
X152714286Y-104204819D02*
X153095238Y-104204819D01*
X153095238Y-104204819D02*
X153190476Y-104252438D01*
X153190476Y-104252438D02*
X153238095Y-104300057D01*
X153238095Y-104300057D02*
X153285714Y-104395295D01*
X153285714Y-104395295D02*
X153285714Y-104538152D01*
X153285714Y-104538152D02*
X153238095Y-104633390D01*
X153238095Y-104633390D02*
X153190476Y-104681009D01*
X153190476Y-104681009D02*
X153095238Y-104728628D01*
X153095238Y-104728628D02*
X152714286Y-104728628D01*
X153904762Y-104204819D02*
X154095238Y-104204819D01*
X154095238Y-104204819D02*
X154190476Y-104252438D01*
X154190476Y-104252438D02*
X154285714Y-104347676D01*
X154285714Y-104347676D02*
X154333333Y-104538152D01*
X154333333Y-104538152D02*
X154333333Y-104871485D01*
X154333333Y-104871485D02*
X154285714Y-105061961D01*
X154285714Y-105061961D02*
X154190476Y-105157200D01*
X154190476Y-105157200D02*
X154095238Y-105204819D01*
X154095238Y-105204819D02*
X153904762Y-105204819D01*
X153904762Y-105204819D02*
X153809524Y-105157200D01*
X153809524Y-105157200D02*
X153714286Y-105061961D01*
X153714286Y-105061961D02*
X153666667Y-104871485D01*
X153666667Y-104871485D02*
X153666667Y-104538152D01*
X153666667Y-104538152D02*
X153714286Y-104347676D01*
X153714286Y-104347676D02*
X153809524Y-104252438D01*
X153809524Y-104252438D02*
X153904762Y-104204819D01*
X154619048Y-104204819D02*
X155190476Y-104204819D01*
X154904762Y-105204819D02*
X154904762Y-104204819D01*
X150238095Y-100804819D02*
X150809523Y-100804819D01*
X150523809Y-101804819D02*
X150523809Y-100804819D01*
X151142857Y-101804819D02*
X151142857Y-100804819D01*
X151142857Y-100804819D02*
X151523809Y-100804819D01*
X151523809Y-100804819D02*
X151619047Y-100852438D01*
X151619047Y-100852438D02*
X151666666Y-100900057D01*
X151666666Y-100900057D02*
X151714285Y-100995295D01*
X151714285Y-100995295D02*
X151714285Y-101138152D01*
X151714285Y-101138152D02*
X151666666Y-101233390D01*
X151666666Y-101233390D02*
X151619047Y-101281009D01*
X151619047Y-101281009D02*
X151523809Y-101328628D01*
X151523809Y-101328628D02*
X151142857Y-101328628D01*
X152047619Y-100804819D02*
X152666666Y-100804819D01*
X152666666Y-100804819D02*
X152333333Y-101185771D01*
X152333333Y-101185771D02*
X152476190Y-101185771D01*
X152476190Y-101185771D02*
X152571428Y-101233390D01*
X152571428Y-101233390D02*
X152619047Y-101281009D01*
X152619047Y-101281009D02*
X152666666Y-101376247D01*
X152666666Y-101376247D02*
X152666666Y-101614342D01*
X152666666Y-101614342D02*
X152619047Y-101709580D01*
X152619047Y-101709580D02*
X152571428Y-101757200D01*
X152571428Y-101757200D02*
X152476190Y-101804819D01*
X152476190Y-101804819D02*
X152190476Y-101804819D01*
X152190476Y-101804819D02*
X152095238Y-101757200D01*
X152095238Y-101757200D02*
X152047619Y-101709580D01*
X156166666Y-118204819D02*
X155833333Y-117728628D01*
X155595238Y-118204819D02*
X155595238Y-117204819D01*
X155595238Y-117204819D02*
X155976190Y-117204819D01*
X155976190Y-117204819D02*
X156071428Y-117252438D01*
X156071428Y-117252438D02*
X156119047Y-117300057D01*
X156119047Y-117300057D02*
X156166666Y-117395295D01*
X156166666Y-117395295D02*
X156166666Y-117538152D01*
X156166666Y-117538152D02*
X156119047Y-117633390D01*
X156119047Y-117633390D02*
X156071428Y-117681009D01*
X156071428Y-117681009D02*
X155976190Y-117728628D01*
X155976190Y-117728628D02*
X155595238Y-117728628D01*
X156547619Y-117919104D02*
X157023809Y-117919104D01*
X156452381Y-118204819D02*
X156785714Y-117204819D01*
X156785714Y-117204819D02*
X157119047Y-118204819D01*
X157357143Y-117204819D02*
X157595238Y-118204819D01*
X157595238Y-118204819D02*
X157785714Y-117490533D01*
X157785714Y-117490533D02*
X157976190Y-118204819D01*
X157976190Y-118204819D02*
X158214286Y-117204819D01*
X158357143Y-118300057D02*
X159119047Y-118300057D01*
X159357143Y-118204819D02*
X159357143Y-117204819D01*
X159833333Y-118204819D02*
X159833333Y-117204819D01*
X159833333Y-117204819D02*
X160404761Y-118204819D01*
X160404761Y-118204819D02*
X160404761Y-117204819D01*
X156738095Y-113804819D02*
X157309523Y-113804819D01*
X157023809Y-114804819D02*
X157023809Y-113804819D01*
X157642857Y-114804819D02*
X157642857Y-113804819D01*
X157642857Y-113804819D02*
X158023809Y-113804819D01*
X158023809Y-113804819D02*
X158119047Y-113852438D01*
X158119047Y-113852438D02*
X158166666Y-113900057D01*
X158166666Y-113900057D02*
X158214285Y-113995295D01*
X158214285Y-113995295D02*
X158214285Y-114138152D01*
X158214285Y-114138152D02*
X158166666Y-114233390D01*
X158166666Y-114233390D02*
X158119047Y-114281009D01*
X158119047Y-114281009D02*
X158023809Y-114328628D01*
X158023809Y-114328628D02*
X157642857Y-114328628D01*
X159166666Y-114804819D02*
X158595238Y-114804819D01*
X158880952Y-114804819D02*
X158880952Y-113804819D01*
X158880952Y-113804819D02*
X158785714Y-113947676D01*
X158785714Y-113947676D02*
X158690476Y-114042914D01*
X158690476Y-114042914D02*
X158595238Y-114090533D01*
X176928571Y-97954819D02*
X176357143Y-97954819D01*
X176642857Y-97954819D02*
X176642857Y-96954819D01*
X176642857Y-96954819D02*
X176547619Y-97097676D01*
X176547619Y-97097676D02*
X176452381Y-97192914D01*
X176452381Y-97192914D02*
X176357143Y-97240533D01*
X177547619Y-96954819D02*
X177642857Y-96954819D01*
X177642857Y-96954819D02*
X177738095Y-97002438D01*
X177738095Y-97002438D02*
X177785714Y-97050057D01*
X177785714Y-97050057D02*
X177833333Y-97145295D01*
X177833333Y-97145295D02*
X177880952Y-97335771D01*
X177880952Y-97335771D02*
X177880952Y-97573866D01*
X177880952Y-97573866D02*
X177833333Y-97764342D01*
X177833333Y-97764342D02*
X177785714Y-97859580D01*
X177785714Y-97859580D02*
X177738095Y-97907200D01*
X177738095Y-97907200D02*
X177642857Y-97954819D01*
X177642857Y-97954819D02*
X177547619Y-97954819D01*
X177547619Y-97954819D02*
X177452381Y-97907200D01*
X177452381Y-97907200D02*
X177404762Y-97859580D01*
X177404762Y-97859580D02*
X177357143Y-97764342D01*
X177357143Y-97764342D02*
X177309524Y-97573866D01*
X177309524Y-97573866D02*
X177309524Y-97335771D01*
X177309524Y-97335771D02*
X177357143Y-97145295D01*
X177357143Y-97145295D02*
X177404762Y-97050057D01*
X177404762Y-97050057D02*
X177452381Y-97002438D01*
X177452381Y-97002438D02*
X177547619Y-96954819D01*
X178738095Y-97288152D02*
X178738095Y-97954819D01*
X178309524Y-97288152D02*
X178309524Y-97811961D01*
X178309524Y-97811961D02*
X178357143Y-97907200D01*
X178357143Y-97907200D02*
X178452381Y-97954819D01*
X178452381Y-97954819D02*
X178595238Y-97954819D01*
X178595238Y-97954819D02*
X178690476Y-97907200D01*
X178690476Y-97907200D02*
X178738095Y-97859580D01*
X179547619Y-97431009D02*
X179214286Y-97431009D01*
X179214286Y-97954819D02*
X179214286Y-96954819D01*
X179214286Y-96954819D02*
X179690476Y-96954819D01*
X177833333Y-95359580D02*
X177785714Y-95407200D01*
X177785714Y-95407200D02*
X177642857Y-95454819D01*
X177642857Y-95454819D02*
X177547619Y-95454819D01*
X177547619Y-95454819D02*
X177404762Y-95407200D01*
X177404762Y-95407200D02*
X177309524Y-95311961D01*
X177309524Y-95311961D02*
X177261905Y-95216723D01*
X177261905Y-95216723D02*
X177214286Y-95026247D01*
X177214286Y-95026247D02*
X177214286Y-94883390D01*
X177214286Y-94883390D02*
X177261905Y-94692914D01*
X177261905Y-94692914D02*
X177309524Y-94597676D01*
X177309524Y-94597676D02*
X177404762Y-94502438D01*
X177404762Y-94502438D02*
X177547619Y-94454819D01*
X177547619Y-94454819D02*
X177642857Y-94454819D01*
X177642857Y-94454819D02*
X177785714Y-94502438D01*
X177785714Y-94502438D02*
X177833333Y-94550057D01*
X178166667Y-94454819D02*
X178785714Y-94454819D01*
X178785714Y-94454819D02*
X178452381Y-94835771D01*
X178452381Y-94835771D02*
X178595238Y-94835771D01*
X178595238Y-94835771D02*
X178690476Y-94883390D01*
X178690476Y-94883390D02*
X178738095Y-94931009D01*
X178738095Y-94931009D02*
X178785714Y-95026247D01*
X178785714Y-95026247D02*
X178785714Y-95264342D01*
X178785714Y-95264342D02*
X178738095Y-95359580D01*
X178738095Y-95359580D02*
X178690476Y-95407200D01*
X178690476Y-95407200D02*
X178595238Y-95454819D01*
X178595238Y-95454819D02*
X178309524Y-95454819D01*
X178309524Y-95454819D02*
X178214286Y-95407200D01*
X178214286Y-95407200D02*
X178166667Y-95359580D01*
X174214285Y-111104819D02*
X174214285Y-110104819D01*
X174214285Y-110104819D02*
X174547618Y-110819104D01*
X174547618Y-110819104D02*
X174880951Y-110104819D01*
X174880951Y-110104819D02*
X174880951Y-111104819D01*
X175499999Y-111104819D02*
X175404761Y-111057200D01*
X175404761Y-111057200D02*
X175357142Y-111009580D01*
X175357142Y-111009580D02*
X175309523Y-110914342D01*
X175309523Y-110914342D02*
X175309523Y-110628628D01*
X175309523Y-110628628D02*
X175357142Y-110533390D01*
X175357142Y-110533390D02*
X175404761Y-110485771D01*
X175404761Y-110485771D02*
X175499999Y-110438152D01*
X175499999Y-110438152D02*
X175642856Y-110438152D01*
X175642856Y-110438152D02*
X175738094Y-110485771D01*
X175738094Y-110485771D02*
X175785713Y-110533390D01*
X175785713Y-110533390D02*
X175833332Y-110628628D01*
X175833332Y-110628628D02*
X175833332Y-110914342D01*
X175833332Y-110914342D02*
X175785713Y-111009580D01*
X175785713Y-111009580D02*
X175738094Y-111057200D01*
X175738094Y-111057200D02*
X175642856Y-111104819D01*
X175642856Y-111104819D02*
X175499999Y-111104819D01*
X176690475Y-110438152D02*
X176690475Y-111104819D01*
X176261904Y-110438152D02*
X176261904Y-110961961D01*
X176261904Y-110961961D02*
X176309523Y-111057200D01*
X176309523Y-111057200D02*
X176404761Y-111104819D01*
X176404761Y-111104819D02*
X176547618Y-111104819D01*
X176547618Y-111104819D02*
X176642856Y-111057200D01*
X176642856Y-111057200D02*
X176690475Y-111009580D01*
X177166666Y-110438152D02*
X177166666Y-111104819D01*
X177166666Y-110533390D02*
X177214285Y-110485771D01*
X177214285Y-110485771D02*
X177309523Y-110438152D01*
X177309523Y-110438152D02*
X177452380Y-110438152D01*
X177452380Y-110438152D02*
X177547618Y-110485771D01*
X177547618Y-110485771D02*
X177595237Y-110581009D01*
X177595237Y-110581009D02*
X177595237Y-111104819D01*
X177928571Y-110438152D02*
X178309523Y-110438152D01*
X178071428Y-110104819D02*
X178071428Y-110961961D01*
X178071428Y-110961961D02*
X178119047Y-111057200D01*
X178119047Y-111057200D02*
X178214285Y-111104819D01*
X178214285Y-111104819D02*
X178309523Y-111104819D01*
X178642857Y-111104819D02*
X178642857Y-110438152D01*
X178642857Y-110104819D02*
X178595238Y-110152438D01*
X178595238Y-110152438D02*
X178642857Y-110200057D01*
X178642857Y-110200057D02*
X178690476Y-110152438D01*
X178690476Y-110152438D02*
X178642857Y-110104819D01*
X178642857Y-110104819D02*
X178642857Y-110200057D01*
X179119047Y-110438152D02*
X179119047Y-111104819D01*
X179119047Y-110533390D02*
X179166666Y-110485771D01*
X179166666Y-110485771D02*
X179261904Y-110438152D01*
X179261904Y-110438152D02*
X179404761Y-110438152D01*
X179404761Y-110438152D02*
X179499999Y-110485771D01*
X179499999Y-110485771D02*
X179547618Y-110581009D01*
X179547618Y-110581009D02*
X179547618Y-111104819D01*
X180452380Y-110438152D02*
X180452380Y-111247676D01*
X180452380Y-111247676D02*
X180404761Y-111342914D01*
X180404761Y-111342914D02*
X180357142Y-111390533D01*
X180357142Y-111390533D02*
X180261904Y-111438152D01*
X180261904Y-111438152D02*
X180119047Y-111438152D01*
X180119047Y-111438152D02*
X180023809Y-111390533D01*
X180452380Y-111057200D02*
X180357142Y-111104819D01*
X180357142Y-111104819D02*
X180166666Y-111104819D01*
X180166666Y-111104819D02*
X180071428Y-111057200D01*
X180071428Y-111057200D02*
X180023809Y-111009580D01*
X180023809Y-111009580D02*
X179976190Y-110914342D01*
X179976190Y-110914342D02*
X179976190Y-110628628D01*
X179976190Y-110628628D02*
X180023809Y-110533390D01*
X180023809Y-110533390D02*
X180071428Y-110485771D01*
X180071428Y-110485771D02*
X180166666Y-110438152D01*
X180166666Y-110438152D02*
X180357142Y-110438152D01*
X180357142Y-110438152D02*
X180452380Y-110485771D01*
X180928571Y-111104819D02*
X180928571Y-110104819D01*
X180928571Y-110581009D02*
X181499999Y-110581009D01*
X181499999Y-111104819D02*
X181499999Y-110104819D01*
X182119047Y-111104819D02*
X182023809Y-111057200D01*
X182023809Y-111057200D02*
X181976190Y-111009580D01*
X181976190Y-111009580D02*
X181928571Y-110914342D01*
X181928571Y-110914342D02*
X181928571Y-110628628D01*
X181928571Y-110628628D02*
X181976190Y-110533390D01*
X181976190Y-110533390D02*
X182023809Y-110485771D01*
X182023809Y-110485771D02*
X182119047Y-110438152D01*
X182119047Y-110438152D02*
X182261904Y-110438152D01*
X182261904Y-110438152D02*
X182357142Y-110485771D01*
X182357142Y-110485771D02*
X182404761Y-110533390D01*
X182404761Y-110533390D02*
X182452380Y-110628628D01*
X182452380Y-110628628D02*
X182452380Y-110914342D01*
X182452380Y-110914342D02*
X182404761Y-111009580D01*
X182404761Y-111009580D02*
X182357142Y-111057200D01*
X182357142Y-111057200D02*
X182261904Y-111104819D01*
X182261904Y-111104819D02*
X182119047Y-111104819D01*
X183023809Y-111104819D02*
X182928571Y-111057200D01*
X182928571Y-111057200D02*
X182880952Y-110961961D01*
X182880952Y-110961961D02*
X182880952Y-110104819D01*
X183785714Y-111057200D02*
X183690476Y-111104819D01*
X183690476Y-111104819D02*
X183500000Y-111104819D01*
X183500000Y-111104819D02*
X183404762Y-111057200D01*
X183404762Y-111057200D02*
X183357143Y-110961961D01*
X183357143Y-110961961D02*
X183357143Y-110581009D01*
X183357143Y-110581009D02*
X183404762Y-110485771D01*
X183404762Y-110485771D02*
X183500000Y-110438152D01*
X183500000Y-110438152D02*
X183690476Y-110438152D01*
X183690476Y-110438152D02*
X183785714Y-110485771D01*
X183785714Y-110485771D02*
X183833333Y-110581009D01*
X183833333Y-110581009D02*
X183833333Y-110676247D01*
X183833333Y-110676247D02*
X183357143Y-110771485D01*
X178238095Y-107454819D02*
X178238095Y-106454819D01*
X178238095Y-106931009D02*
X178809523Y-106931009D01*
X178809523Y-107454819D02*
X178809523Y-106454819D01*
X179190476Y-106454819D02*
X179809523Y-106454819D01*
X179809523Y-106454819D02*
X179476190Y-106835771D01*
X179476190Y-106835771D02*
X179619047Y-106835771D01*
X179619047Y-106835771D02*
X179714285Y-106883390D01*
X179714285Y-106883390D02*
X179761904Y-106931009D01*
X179761904Y-106931009D02*
X179809523Y-107026247D01*
X179809523Y-107026247D02*
X179809523Y-107264342D01*
X179809523Y-107264342D02*
X179761904Y-107359580D01*
X179761904Y-107359580D02*
X179714285Y-107407200D01*
X179714285Y-107407200D02*
X179619047Y-107454819D01*
X179619047Y-107454819D02*
X179333333Y-107454819D01*
X179333333Y-107454819D02*
X179238095Y-107407200D01*
X179238095Y-107407200D02*
X179190476Y-107359580D01*
X160642856Y-65907200D02*
X160785713Y-65954819D01*
X160785713Y-65954819D02*
X161023808Y-65954819D01*
X161023808Y-65954819D02*
X161119046Y-65907200D01*
X161119046Y-65907200D02*
X161166665Y-65859580D01*
X161166665Y-65859580D02*
X161214284Y-65764342D01*
X161214284Y-65764342D02*
X161214284Y-65669104D01*
X161214284Y-65669104D02*
X161166665Y-65573866D01*
X161166665Y-65573866D02*
X161119046Y-65526247D01*
X161119046Y-65526247D02*
X161023808Y-65478628D01*
X161023808Y-65478628D02*
X160833332Y-65431009D01*
X160833332Y-65431009D02*
X160738094Y-65383390D01*
X160738094Y-65383390D02*
X160690475Y-65335771D01*
X160690475Y-65335771D02*
X160642856Y-65240533D01*
X160642856Y-65240533D02*
X160642856Y-65145295D01*
X160642856Y-65145295D02*
X160690475Y-65050057D01*
X160690475Y-65050057D02*
X160738094Y-65002438D01*
X160738094Y-65002438D02*
X160833332Y-64954819D01*
X160833332Y-64954819D02*
X161071427Y-64954819D01*
X161071427Y-64954819D02*
X161214284Y-65002438D01*
X161547618Y-64954819D02*
X162214284Y-64954819D01*
X162214284Y-64954819D02*
X161785713Y-65954819D01*
X162452380Y-64954819D02*
X162785713Y-65954819D01*
X162785713Y-65954819D02*
X163119046Y-64954819D01*
X163595237Y-65383390D02*
X163499999Y-65335771D01*
X163499999Y-65335771D02*
X163452380Y-65288152D01*
X163452380Y-65288152D02*
X163404761Y-65192914D01*
X163404761Y-65192914D02*
X163404761Y-65145295D01*
X163404761Y-65145295D02*
X163452380Y-65050057D01*
X163452380Y-65050057D02*
X163499999Y-65002438D01*
X163499999Y-65002438D02*
X163595237Y-64954819D01*
X163595237Y-64954819D02*
X163785713Y-64954819D01*
X163785713Y-64954819D02*
X163880951Y-65002438D01*
X163880951Y-65002438D02*
X163928570Y-65050057D01*
X163928570Y-65050057D02*
X163976189Y-65145295D01*
X163976189Y-65145295D02*
X163976189Y-65192914D01*
X163976189Y-65192914D02*
X163928570Y-65288152D01*
X163928570Y-65288152D02*
X163880951Y-65335771D01*
X163880951Y-65335771D02*
X163785713Y-65383390D01*
X163785713Y-65383390D02*
X163595237Y-65383390D01*
X163595237Y-65383390D02*
X163499999Y-65431009D01*
X163499999Y-65431009D02*
X163452380Y-65478628D01*
X163452380Y-65478628D02*
X163404761Y-65573866D01*
X163404761Y-65573866D02*
X163404761Y-65764342D01*
X163404761Y-65764342D02*
X163452380Y-65859580D01*
X163452380Y-65859580D02*
X163499999Y-65907200D01*
X163499999Y-65907200D02*
X163595237Y-65954819D01*
X163595237Y-65954819D02*
X163785713Y-65954819D01*
X163785713Y-65954819D02*
X163880951Y-65907200D01*
X163880951Y-65907200D02*
X163928570Y-65859580D01*
X163928570Y-65859580D02*
X163976189Y-65764342D01*
X163976189Y-65764342D02*
X163976189Y-65573866D01*
X163976189Y-65573866D02*
X163928570Y-65478628D01*
X163928570Y-65478628D02*
X163880951Y-65431009D01*
X163880951Y-65431009D02*
X163785713Y-65383390D01*
X164738094Y-65431009D02*
X164404761Y-65431009D01*
X164404761Y-65954819D02*
X164404761Y-64954819D01*
X164404761Y-64954819D02*
X164880951Y-64954819D01*
X165166666Y-64954819D02*
X165785713Y-64954819D01*
X165785713Y-64954819D02*
X165452380Y-65335771D01*
X165452380Y-65335771D02*
X165595237Y-65335771D01*
X165595237Y-65335771D02*
X165690475Y-65383390D01*
X165690475Y-65383390D02*
X165738094Y-65431009D01*
X165738094Y-65431009D02*
X165785713Y-65526247D01*
X165785713Y-65526247D02*
X165785713Y-65764342D01*
X165785713Y-65764342D02*
X165738094Y-65859580D01*
X165738094Y-65859580D02*
X165690475Y-65907200D01*
X165690475Y-65907200D02*
X165595237Y-65954819D01*
X165595237Y-65954819D02*
X165309523Y-65954819D01*
X165309523Y-65954819D02*
X165214285Y-65907200D01*
X165214285Y-65907200D02*
X165166666Y-65859580D01*
X166976190Y-65954819D02*
X166976190Y-65288152D01*
X166976190Y-65478628D02*
X167023809Y-65383390D01*
X167023809Y-65383390D02*
X167071428Y-65335771D01*
X167071428Y-65335771D02*
X167166666Y-65288152D01*
X167166666Y-65288152D02*
X167261904Y-65288152D01*
X167976190Y-65907200D02*
X167880952Y-65954819D01*
X167880952Y-65954819D02*
X167690476Y-65954819D01*
X167690476Y-65954819D02*
X167595238Y-65907200D01*
X167595238Y-65907200D02*
X167547619Y-65811961D01*
X167547619Y-65811961D02*
X167547619Y-65431009D01*
X167547619Y-65431009D02*
X167595238Y-65335771D01*
X167595238Y-65335771D02*
X167690476Y-65288152D01*
X167690476Y-65288152D02*
X167880952Y-65288152D01*
X167880952Y-65288152D02*
X167976190Y-65335771D01*
X167976190Y-65335771D02*
X168023809Y-65431009D01*
X168023809Y-65431009D02*
X168023809Y-65526247D01*
X168023809Y-65526247D02*
X167547619Y-65621485D01*
X168880952Y-65288152D02*
X168880952Y-66097676D01*
X168880952Y-66097676D02*
X168833333Y-66192914D01*
X168833333Y-66192914D02*
X168785714Y-66240533D01*
X168785714Y-66240533D02*
X168690476Y-66288152D01*
X168690476Y-66288152D02*
X168547619Y-66288152D01*
X168547619Y-66288152D02*
X168452381Y-66240533D01*
X168880952Y-65907200D02*
X168785714Y-65954819D01*
X168785714Y-65954819D02*
X168595238Y-65954819D01*
X168595238Y-65954819D02*
X168500000Y-65907200D01*
X168500000Y-65907200D02*
X168452381Y-65859580D01*
X168452381Y-65859580D02*
X168404762Y-65764342D01*
X168404762Y-65764342D02*
X168404762Y-65478628D01*
X168404762Y-65478628D02*
X168452381Y-65383390D01*
X168452381Y-65383390D02*
X168500000Y-65335771D01*
X168500000Y-65335771D02*
X168595238Y-65288152D01*
X168595238Y-65288152D02*
X168785714Y-65288152D01*
X168785714Y-65288152D02*
X168880952Y-65335771D01*
X169785714Y-65288152D02*
X169785714Y-65954819D01*
X169357143Y-65288152D02*
X169357143Y-65811961D01*
X169357143Y-65811961D02*
X169404762Y-65907200D01*
X169404762Y-65907200D02*
X169500000Y-65954819D01*
X169500000Y-65954819D02*
X169642857Y-65954819D01*
X169642857Y-65954819D02*
X169738095Y-65907200D01*
X169738095Y-65907200D02*
X169785714Y-65859580D01*
X170404762Y-65954819D02*
X170309524Y-65907200D01*
X170309524Y-65907200D02*
X170261905Y-65811961D01*
X170261905Y-65811961D02*
X170261905Y-64954819D01*
X171214286Y-65954819D02*
X171214286Y-65431009D01*
X171214286Y-65431009D02*
X171166667Y-65335771D01*
X171166667Y-65335771D02*
X171071429Y-65288152D01*
X171071429Y-65288152D02*
X170880953Y-65288152D01*
X170880953Y-65288152D02*
X170785715Y-65335771D01*
X171214286Y-65907200D02*
X171119048Y-65954819D01*
X171119048Y-65954819D02*
X170880953Y-65954819D01*
X170880953Y-65954819D02*
X170785715Y-65907200D01*
X170785715Y-65907200D02*
X170738096Y-65811961D01*
X170738096Y-65811961D02*
X170738096Y-65716723D01*
X170738096Y-65716723D02*
X170785715Y-65621485D01*
X170785715Y-65621485D02*
X170880953Y-65573866D01*
X170880953Y-65573866D02*
X171119048Y-65573866D01*
X171119048Y-65573866D02*
X171214286Y-65526247D01*
X171547620Y-65288152D02*
X171928572Y-65288152D01*
X171690477Y-64954819D02*
X171690477Y-65811961D01*
X171690477Y-65811961D02*
X171738096Y-65907200D01*
X171738096Y-65907200D02*
X171833334Y-65954819D01*
X171833334Y-65954819D02*
X171928572Y-65954819D01*
X172404763Y-65954819D02*
X172309525Y-65907200D01*
X172309525Y-65907200D02*
X172261906Y-65859580D01*
X172261906Y-65859580D02*
X172214287Y-65764342D01*
X172214287Y-65764342D02*
X172214287Y-65478628D01*
X172214287Y-65478628D02*
X172261906Y-65383390D01*
X172261906Y-65383390D02*
X172309525Y-65335771D01*
X172309525Y-65335771D02*
X172404763Y-65288152D01*
X172404763Y-65288152D02*
X172547620Y-65288152D01*
X172547620Y-65288152D02*
X172642858Y-65335771D01*
X172642858Y-65335771D02*
X172690477Y-65383390D01*
X172690477Y-65383390D02*
X172738096Y-65478628D01*
X172738096Y-65478628D02*
X172738096Y-65764342D01*
X172738096Y-65764342D02*
X172690477Y-65859580D01*
X172690477Y-65859580D02*
X172642858Y-65907200D01*
X172642858Y-65907200D02*
X172547620Y-65954819D01*
X172547620Y-65954819D02*
X172404763Y-65954819D01*
X173166668Y-65954819D02*
X173166668Y-65288152D01*
X173166668Y-65478628D02*
X173214287Y-65383390D01*
X173214287Y-65383390D02*
X173261906Y-65335771D01*
X173261906Y-65335771D02*
X173357144Y-65288152D01*
X173357144Y-65288152D02*
X173452382Y-65288152D01*
D12*
X162248571Y-76694895D02*
X161791428Y-76694895D01*
X162020000Y-76694895D02*
X162020000Y-75894895D01*
X162020000Y-75894895D02*
X161943809Y-76009180D01*
X161943809Y-76009180D02*
X161867619Y-76085371D01*
X161867619Y-76085371D02*
X161791428Y-76123466D01*
D10*
X161523333Y-96324819D02*
X160951905Y-96324819D01*
X161237619Y-96324819D02*
X161237619Y-95324819D01*
X161237619Y-95324819D02*
X161142381Y-95467676D01*
X161142381Y-95467676D02*
X161047143Y-95562914D01*
X161047143Y-95562914D02*
X160951905Y-95610533D01*
X162142381Y-95324819D02*
X162237619Y-95324819D01*
X162237619Y-95324819D02*
X162332857Y-95372438D01*
X162332857Y-95372438D02*
X162380476Y-95420057D01*
X162380476Y-95420057D02*
X162428095Y-95515295D01*
X162428095Y-95515295D02*
X162475714Y-95705771D01*
X162475714Y-95705771D02*
X162475714Y-95943866D01*
X162475714Y-95943866D02*
X162428095Y-96134342D01*
X162428095Y-96134342D02*
X162380476Y-96229580D01*
X162380476Y-96229580D02*
X162332857Y-96277200D01*
X162332857Y-96277200D02*
X162237619Y-96324819D01*
X162237619Y-96324819D02*
X162142381Y-96324819D01*
X162142381Y-96324819D02*
X162047143Y-96277200D01*
X162047143Y-96277200D02*
X161999524Y-96229580D01*
X161999524Y-96229580D02*
X161951905Y-96134342D01*
X161951905Y-96134342D02*
X161904286Y-95943866D01*
X161904286Y-95943866D02*
X161904286Y-95705771D01*
X161904286Y-95705771D02*
X161951905Y-95515295D01*
X161951905Y-95515295D02*
X161999524Y-95420057D01*
X161999524Y-95420057D02*
X162047143Y-95372438D01*
X162047143Y-95372438D02*
X162142381Y-95324819D01*
X163094762Y-95324819D02*
X163190000Y-95324819D01*
X163190000Y-95324819D02*
X163285238Y-95372438D01*
X163285238Y-95372438D02*
X163332857Y-95420057D01*
X163332857Y-95420057D02*
X163380476Y-95515295D01*
X163380476Y-95515295D02*
X163428095Y-95705771D01*
X163428095Y-95705771D02*
X163428095Y-95943866D01*
X163428095Y-95943866D02*
X163380476Y-96134342D01*
X163380476Y-96134342D02*
X163332857Y-96229580D01*
X163332857Y-96229580D02*
X163285238Y-96277200D01*
X163285238Y-96277200D02*
X163190000Y-96324819D01*
X163190000Y-96324819D02*
X163094762Y-96324819D01*
X163094762Y-96324819D02*
X162999524Y-96277200D01*
X162999524Y-96277200D02*
X162951905Y-96229580D01*
X162951905Y-96229580D02*
X162904286Y-96134342D01*
X162904286Y-96134342D02*
X162856667Y-95943866D01*
X162856667Y-95943866D02*
X162856667Y-95705771D01*
X162856667Y-95705771D02*
X162904286Y-95515295D01*
X162904286Y-95515295D02*
X162951905Y-95420057D01*
X162951905Y-95420057D02*
X162999524Y-95372438D01*
X162999524Y-95372438D02*
X163094762Y-95324819D01*
X163856667Y-96324819D02*
X163856667Y-95324819D01*
X164428095Y-96324819D02*
X163999524Y-95753390D01*
X164428095Y-95324819D02*
X163856667Y-95896247D01*
X162523333Y-93954819D02*
X162190000Y-93478628D01*
X161951905Y-93954819D02*
X161951905Y-92954819D01*
X161951905Y-92954819D02*
X162332857Y-92954819D01*
X162332857Y-92954819D02*
X162428095Y-93002438D01*
X162428095Y-93002438D02*
X162475714Y-93050057D01*
X162475714Y-93050057D02*
X162523333Y-93145295D01*
X162523333Y-93145295D02*
X162523333Y-93288152D01*
X162523333Y-93288152D02*
X162475714Y-93383390D01*
X162475714Y-93383390D02*
X162428095Y-93431009D01*
X162428095Y-93431009D02*
X162332857Y-93478628D01*
X162332857Y-93478628D02*
X161951905Y-93478628D01*
X162904286Y-93050057D02*
X162951905Y-93002438D01*
X162951905Y-93002438D02*
X163047143Y-92954819D01*
X163047143Y-92954819D02*
X163285238Y-92954819D01*
X163285238Y-92954819D02*
X163380476Y-93002438D01*
X163380476Y-93002438D02*
X163428095Y-93050057D01*
X163428095Y-93050057D02*
X163475714Y-93145295D01*
X163475714Y-93145295D02*
X163475714Y-93240533D01*
X163475714Y-93240533D02*
X163428095Y-93383390D01*
X163428095Y-93383390D02*
X162856667Y-93954819D01*
X162856667Y-93954819D02*
X163475714Y-93954819D01*
X169047619Y-76657200D02*
X169190476Y-76704819D01*
X169190476Y-76704819D02*
X169428571Y-76704819D01*
X169428571Y-76704819D02*
X169523809Y-76657200D01*
X169523809Y-76657200D02*
X169571428Y-76609580D01*
X169571428Y-76609580D02*
X169619047Y-76514342D01*
X169619047Y-76514342D02*
X169619047Y-76419104D01*
X169619047Y-76419104D02*
X169571428Y-76323866D01*
X169571428Y-76323866D02*
X169523809Y-76276247D01*
X169523809Y-76276247D02*
X169428571Y-76228628D01*
X169428571Y-76228628D02*
X169238095Y-76181009D01*
X169238095Y-76181009D02*
X169142857Y-76133390D01*
X169142857Y-76133390D02*
X169095238Y-76085771D01*
X169095238Y-76085771D02*
X169047619Y-75990533D01*
X169047619Y-75990533D02*
X169047619Y-75895295D01*
X169047619Y-75895295D02*
X169095238Y-75800057D01*
X169095238Y-75800057D02*
X169142857Y-75752438D01*
X169142857Y-75752438D02*
X169238095Y-75704819D01*
X169238095Y-75704819D02*
X169476190Y-75704819D01*
X169476190Y-75704819D02*
X169619047Y-75752438D01*
X170047619Y-76181009D02*
X170380952Y-76181009D01*
X170523809Y-76704819D02*
X170047619Y-76704819D01*
X170047619Y-76704819D02*
X170047619Y-75704819D01*
X170047619Y-75704819D02*
X170523809Y-75704819D01*
X170952381Y-76704819D02*
X170952381Y-75704819D01*
X170952381Y-75704819D02*
X171523809Y-76704819D01*
X171523809Y-76704819D02*
X171523809Y-75704819D01*
X171952381Y-76657200D02*
X172095238Y-76704819D01*
X172095238Y-76704819D02*
X172333333Y-76704819D01*
X172333333Y-76704819D02*
X172428571Y-76657200D01*
X172428571Y-76657200D02*
X172476190Y-76609580D01*
X172476190Y-76609580D02*
X172523809Y-76514342D01*
X172523809Y-76514342D02*
X172523809Y-76419104D01*
X172523809Y-76419104D02*
X172476190Y-76323866D01*
X172476190Y-76323866D02*
X172428571Y-76276247D01*
X172428571Y-76276247D02*
X172333333Y-76228628D01*
X172333333Y-76228628D02*
X172142857Y-76181009D01*
X172142857Y-76181009D02*
X172047619Y-76133390D01*
X172047619Y-76133390D02*
X172000000Y-76085771D01*
X172000000Y-76085771D02*
X171952381Y-75990533D01*
X171952381Y-75990533D02*
X171952381Y-75895295D01*
X171952381Y-75895295D02*
X172000000Y-75800057D01*
X172000000Y-75800057D02*
X172047619Y-75752438D01*
X172047619Y-75752438D02*
X172142857Y-75704819D01*
X172142857Y-75704819D02*
X172380952Y-75704819D01*
X172380952Y-75704819D02*
X172523809Y-75752438D01*
X173142857Y-75704819D02*
X173333333Y-75704819D01*
X173333333Y-75704819D02*
X173428571Y-75752438D01*
X173428571Y-75752438D02*
X173523809Y-75847676D01*
X173523809Y-75847676D02*
X173571428Y-76038152D01*
X173571428Y-76038152D02*
X173571428Y-76371485D01*
X173571428Y-76371485D02*
X173523809Y-76561961D01*
X173523809Y-76561961D02*
X173428571Y-76657200D01*
X173428571Y-76657200D02*
X173333333Y-76704819D01*
X173333333Y-76704819D02*
X173142857Y-76704819D01*
X173142857Y-76704819D02*
X173047619Y-76657200D01*
X173047619Y-76657200D02*
X172952381Y-76561961D01*
X172952381Y-76561961D02*
X172904762Y-76371485D01*
X172904762Y-76371485D02*
X172904762Y-76038152D01*
X172904762Y-76038152D02*
X172952381Y-75847676D01*
X172952381Y-75847676D02*
X173047619Y-75752438D01*
X173047619Y-75752438D02*
X173142857Y-75704819D01*
X174571428Y-76704819D02*
X174238095Y-76228628D01*
X174000000Y-76704819D02*
X174000000Y-75704819D01*
X174000000Y-75704819D02*
X174380952Y-75704819D01*
X174380952Y-75704819D02*
X174476190Y-75752438D01*
X174476190Y-75752438D02*
X174523809Y-75800057D01*
X174523809Y-75800057D02*
X174571428Y-75895295D01*
X174571428Y-75895295D02*
X174571428Y-76038152D01*
X174571428Y-76038152D02*
X174523809Y-76133390D01*
X174523809Y-76133390D02*
X174476190Y-76181009D01*
X174476190Y-76181009D02*
X174380952Y-76228628D01*
X174380952Y-76228628D02*
X174000000Y-76228628D01*
X174761905Y-76800057D02*
X175523809Y-76800057D01*
X175714286Y-76657200D02*
X175857143Y-76704819D01*
X175857143Y-76704819D02*
X176095238Y-76704819D01*
X176095238Y-76704819D02*
X176190476Y-76657200D01*
X176190476Y-76657200D02*
X176238095Y-76609580D01*
X176238095Y-76609580D02*
X176285714Y-76514342D01*
X176285714Y-76514342D02*
X176285714Y-76419104D01*
X176285714Y-76419104D02*
X176238095Y-76323866D01*
X176238095Y-76323866D02*
X176190476Y-76276247D01*
X176190476Y-76276247D02*
X176095238Y-76228628D01*
X176095238Y-76228628D02*
X175904762Y-76181009D01*
X175904762Y-76181009D02*
X175809524Y-76133390D01*
X175809524Y-76133390D02*
X175761905Y-76085771D01*
X175761905Y-76085771D02*
X175714286Y-75990533D01*
X175714286Y-75990533D02*
X175714286Y-75895295D01*
X175714286Y-75895295D02*
X175761905Y-75800057D01*
X175761905Y-75800057D02*
X175809524Y-75752438D01*
X175809524Y-75752438D02*
X175904762Y-75704819D01*
X175904762Y-75704819D02*
X176142857Y-75704819D01*
X176142857Y-75704819D02*
X176285714Y-75752438D01*
X176714286Y-76704819D02*
X176714286Y-75704819D01*
X177714285Y-75752438D02*
X177619047Y-75704819D01*
X177619047Y-75704819D02*
X177476190Y-75704819D01*
X177476190Y-75704819D02*
X177333333Y-75752438D01*
X177333333Y-75752438D02*
X177238095Y-75847676D01*
X177238095Y-75847676D02*
X177190476Y-75942914D01*
X177190476Y-75942914D02*
X177142857Y-76133390D01*
X177142857Y-76133390D02*
X177142857Y-76276247D01*
X177142857Y-76276247D02*
X177190476Y-76466723D01*
X177190476Y-76466723D02*
X177238095Y-76561961D01*
X177238095Y-76561961D02*
X177333333Y-76657200D01*
X177333333Y-76657200D02*
X177476190Y-76704819D01*
X177476190Y-76704819D02*
X177571428Y-76704819D01*
X177571428Y-76704819D02*
X177714285Y-76657200D01*
X177714285Y-76657200D02*
X177761904Y-76609580D01*
X177761904Y-76609580D02*
X177761904Y-76276247D01*
X177761904Y-76276247D02*
X177571428Y-76276247D01*
X178190476Y-76704819D02*
X178190476Y-75704819D01*
X178190476Y-75704819D02*
X178761904Y-76704819D01*
X178761904Y-76704819D02*
X178761904Y-75704819D01*
X179190476Y-76419104D02*
X179666666Y-76419104D01*
X179095238Y-76704819D02*
X179428571Y-75704819D01*
X179428571Y-75704819D02*
X179761904Y-76704819D01*
X180571428Y-76704819D02*
X180095238Y-76704819D01*
X180095238Y-76704819D02*
X180095238Y-75704819D01*
X180666667Y-76800057D02*
X181428571Y-76800057D01*
X182000000Y-76181009D02*
X181666667Y-76181009D01*
X181666667Y-76704819D02*
X181666667Y-75704819D01*
X181666667Y-75704819D02*
X182142857Y-75704819D01*
X182523810Y-76704819D02*
X182523810Y-75704819D01*
X183476190Y-76704819D02*
X183000000Y-76704819D01*
X183000000Y-76704819D02*
X183000000Y-75704819D01*
X183666667Y-75704819D02*
X184238095Y-75704819D01*
X183952381Y-76704819D02*
X183952381Y-75704819D01*
X184571429Y-76181009D02*
X184904762Y-76181009D01*
X185047619Y-76704819D02*
X184571429Y-76704819D01*
X184571429Y-76704819D02*
X184571429Y-75704819D01*
X184571429Y-75704819D02*
X185047619Y-75704819D01*
X186047619Y-76704819D02*
X185714286Y-76228628D01*
X185476191Y-76704819D02*
X185476191Y-75704819D01*
X185476191Y-75704819D02*
X185857143Y-75704819D01*
X185857143Y-75704819D02*
X185952381Y-75752438D01*
X185952381Y-75752438D02*
X186000000Y-75800057D01*
X186000000Y-75800057D02*
X186047619Y-75895295D01*
X186047619Y-75895295D02*
X186047619Y-76038152D01*
X186047619Y-76038152D02*
X186000000Y-76133390D01*
X186000000Y-76133390D02*
X185952381Y-76181009D01*
X185952381Y-76181009D02*
X185857143Y-76228628D01*
X185857143Y-76228628D02*
X185476191Y-76228628D01*
X186476191Y-76181009D02*
X186809524Y-76181009D01*
X186952381Y-76704819D02*
X186476191Y-76704819D01*
X186476191Y-76704819D02*
X186476191Y-75704819D01*
X186476191Y-75704819D02*
X186952381Y-75704819D01*
X187380953Y-76704819D02*
X187380953Y-75704819D01*
X187380953Y-75704819D02*
X187619048Y-75704819D01*
X187619048Y-75704819D02*
X187761905Y-75752438D01*
X187761905Y-75752438D02*
X187857143Y-75847676D01*
X187857143Y-75847676D02*
X187904762Y-75942914D01*
X187904762Y-75942914D02*
X187952381Y-76133390D01*
X187952381Y-76133390D02*
X187952381Y-76276247D01*
X187952381Y-76276247D02*
X187904762Y-76466723D01*
X187904762Y-76466723D02*
X187857143Y-76561961D01*
X187857143Y-76561961D02*
X187761905Y-76657200D01*
X187761905Y-76657200D02*
X187619048Y-76704819D01*
X187619048Y-76704819D02*
X187380953Y-76704819D01*
X177238095Y-72304819D02*
X177809523Y-72304819D01*
X177523809Y-73304819D02*
X177523809Y-72304819D01*
X178142857Y-73304819D02*
X178142857Y-72304819D01*
X178142857Y-72304819D02*
X178523809Y-72304819D01*
X178523809Y-72304819D02*
X178619047Y-72352438D01*
X178619047Y-72352438D02*
X178666666Y-72400057D01*
X178666666Y-72400057D02*
X178714285Y-72495295D01*
X178714285Y-72495295D02*
X178714285Y-72638152D01*
X178714285Y-72638152D02*
X178666666Y-72733390D01*
X178666666Y-72733390D02*
X178619047Y-72781009D01*
X178619047Y-72781009D02*
X178523809Y-72828628D01*
X178523809Y-72828628D02*
X178142857Y-72828628D01*
X179047619Y-72304819D02*
X179714285Y-72304819D01*
X179714285Y-72304819D02*
X179285714Y-73304819D01*
X162094762Y-90753390D02*
X161999524Y-90705771D01*
X161999524Y-90705771D02*
X161951905Y-90658152D01*
X161951905Y-90658152D02*
X161904286Y-90562914D01*
X161904286Y-90562914D02*
X161904286Y-90515295D01*
X161904286Y-90515295D02*
X161951905Y-90420057D01*
X161951905Y-90420057D02*
X161999524Y-90372438D01*
X161999524Y-90372438D02*
X162094762Y-90324819D01*
X162094762Y-90324819D02*
X162285238Y-90324819D01*
X162285238Y-90324819D02*
X162380476Y-90372438D01*
X162380476Y-90372438D02*
X162428095Y-90420057D01*
X162428095Y-90420057D02*
X162475714Y-90515295D01*
X162475714Y-90515295D02*
X162475714Y-90562914D01*
X162475714Y-90562914D02*
X162428095Y-90658152D01*
X162428095Y-90658152D02*
X162380476Y-90705771D01*
X162380476Y-90705771D02*
X162285238Y-90753390D01*
X162285238Y-90753390D02*
X162094762Y-90753390D01*
X162094762Y-90753390D02*
X161999524Y-90801009D01*
X161999524Y-90801009D02*
X161951905Y-90848628D01*
X161951905Y-90848628D02*
X161904286Y-90943866D01*
X161904286Y-90943866D02*
X161904286Y-91134342D01*
X161904286Y-91134342D02*
X161951905Y-91229580D01*
X161951905Y-91229580D02*
X161999524Y-91277200D01*
X161999524Y-91277200D02*
X162094762Y-91324819D01*
X162094762Y-91324819D02*
X162285238Y-91324819D01*
X162285238Y-91324819D02*
X162380476Y-91277200D01*
X162380476Y-91277200D02*
X162428095Y-91229580D01*
X162428095Y-91229580D02*
X162475714Y-91134342D01*
X162475714Y-91134342D02*
X162475714Y-90943866D01*
X162475714Y-90943866D02*
X162428095Y-90848628D01*
X162428095Y-90848628D02*
X162380476Y-90801009D01*
X162380476Y-90801009D02*
X162285238Y-90753390D01*
X162904286Y-91324819D02*
X162904286Y-90324819D01*
X163475714Y-91324819D02*
X163047143Y-90753390D01*
X163475714Y-90324819D02*
X162904286Y-90896247D01*
X162523333Y-88954819D02*
X162190000Y-88478628D01*
X161951905Y-88954819D02*
X161951905Y-87954819D01*
X161951905Y-87954819D02*
X162332857Y-87954819D01*
X162332857Y-87954819D02*
X162428095Y-88002438D01*
X162428095Y-88002438D02*
X162475714Y-88050057D01*
X162475714Y-88050057D02*
X162523333Y-88145295D01*
X162523333Y-88145295D02*
X162523333Y-88288152D01*
X162523333Y-88288152D02*
X162475714Y-88383390D01*
X162475714Y-88383390D02*
X162428095Y-88431009D01*
X162428095Y-88431009D02*
X162332857Y-88478628D01*
X162332857Y-88478628D02*
X161951905Y-88478628D01*
X163475714Y-88954819D02*
X162904286Y-88954819D01*
X163190000Y-88954819D02*
X163190000Y-87954819D01*
X163190000Y-87954819D02*
X163094762Y-88097676D01*
X163094762Y-88097676D02*
X162999524Y-88192914D01*
X162999524Y-88192914D02*
X162904286Y-88240533D01*
X170904762Y-67157200D02*
X171047619Y-67204819D01*
X171047619Y-67204819D02*
X171285714Y-67204819D01*
X171285714Y-67204819D02*
X171380952Y-67157200D01*
X171380952Y-67157200D02*
X171428571Y-67109580D01*
X171428571Y-67109580D02*
X171476190Y-67014342D01*
X171476190Y-67014342D02*
X171476190Y-66919104D01*
X171476190Y-66919104D02*
X171428571Y-66823866D01*
X171428571Y-66823866D02*
X171380952Y-66776247D01*
X171380952Y-66776247D02*
X171285714Y-66728628D01*
X171285714Y-66728628D02*
X171095238Y-66681009D01*
X171095238Y-66681009D02*
X171000000Y-66633390D01*
X171000000Y-66633390D02*
X170952381Y-66585771D01*
X170952381Y-66585771D02*
X170904762Y-66490533D01*
X170904762Y-66490533D02*
X170904762Y-66395295D01*
X170904762Y-66395295D02*
X170952381Y-66300057D01*
X170952381Y-66300057D02*
X171000000Y-66252438D01*
X171000000Y-66252438D02*
X171095238Y-66204819D01*
X171095238Y-66204819D02*
X171333333Y-66204819D01*
X171333333Y-66204819D02*
X171476190Y-66252438D01*
X171904762Y-66681009D02*
X172238095Y-66681009D01*
X172380952Y-67204819D02*
X171904762Y-67204819D01*
X171904762Y-67204819D02*
X171904762Y-66204819D01*
X171904762Y-66204819D02*
X172380952Y-66204819D01*
X172809524Y-67204819D02*
X172809524Y-66204819D01*
X172809524Y-66204819D02*
X173380952Y-67204819D01*
X173380952Y-67204819D02*
X173380952Y-66204819D01*
X173809524Y-67157200D02*
X173952381Y-67204819D01*
X173952381Y-67204819D02*
X174190476Y-67204819D01*
X174190476Y-67204819D02*
X174285714Y-67157200D01*
X174285714Y-67157200D02*
X174333333Y-67109580D01*
X174333333Y-67109580D02*
X174380952Y-67014342D01*
X174380952Y-67014342D02*
X174380952Y-66919104D01*
X174380952Y-66919104D02*
X174333333Y-66823866D01*
X174333333Y-66823866D02*
X174285714Y-66776247D01*
X174285714Y-66776247D02*
X174190476Y-66728628D01*
X174190476Y-66728628D02*
X174000000Y-66681009D01*
X174000000Y-66681009D02*
X173904762Y-66633390D01*
X173904762Y-66633390D02*
X173857143Y-66585771D01*
X173857143Y-66585771D02*
X173809524Y-66490533D01*
X173809524Y-66490533D02*
X173809524Y-66395295D01*
X173809524Y-66395295D02*
X173857143Y-66300057D01*
X173857143Y-66300057D02*
X173904762Y-66252438D01*
X173904762Y-66252438D02*
X174000000Y-66204819D01*
X174000000Y-66204819D02*
X174238095Y-66204819D01*
X174238095Y-66204819D02*
X174380952Y-66252438D01*
X175000000Y-66204819D02*
X175190476Y-66204819D01*
X175190476Y-66204819D02*
X175285714Y-66252438D01*
X175285714Y-66252438D02*
X175380952Y-66347676D01*
X175380952Y-66347676D02*
X175428571Y-66538152D01*
X175428571Y-66538152D02*
X175428571Y-66871485D01*
X175428571Y-66871485D02*
X175380952Y-67061961D01*
X175380952Y-67061961D02*
X175285714Y-67157200D01*
X175285714Y-67157200D02*
X175190476Y-67204819D01*
X175190476Y-67204819D02*
X175000000Y-67204819D01*
X175000000Y-67204819D02*
X174904762Y-67157200D01*
X174904762Y-67157200D02*
X174809524Y-67061961D01*
X174809524Y-67061961D02*
X174761905Y-66871485D01*
X174761905Y-66871485D02*
X174761905Y-66538152D01*
X174761905Y-66538152D02*
X174809524Y-66347676D01*
X174809524Y-66347676D02*
X174904762Y-66252438D01*
X174904762Y-66252438D02*
X175000000Y-66204819D01*
X176428571Y-67204819D02*
X176095238Y-66728628D01*
X175857143Y-67204819D02*
X175857143Y-66204819D01*
X175857143Y-66204819D02*
X176238095Y-66204819D01*
X176238095Y-66204819D02*
X176333333Y-66252438D01*
X176333333Y-66252438D02*
X176380952Y-66300057D01*
X176380952Y-66300057D02*
X176428571Y-66395295D01*
X176428571Y-66395295D02*
X176428571Y-66538152D01*
X176428571Y-66538152D02*
X176380952Y-66633390D01*
X176380952Y-66633390D02*
X176333333Y-66681009D01*
X176333333Y-66681009D02*
X176238095Y-66728628D01*
X176238095Y-66728628D02*
X175857143Y-66728628D01*
X176619048Y-67300057D02*
X177380952Y-67300057D01*
X177571429Y-67157200D02*
X177714286Y-67204819D01*
X177714286Y-67204819D02*
X177952381Y-67204819D01*
X177952381Y-67204819D02*
X178047619Y-67157200D01*
X178047619Y-67157200D02*
X178095238Y-67109580D01*
X178095238Y-67109580D02*
X178142857Y-67014342D01*
X178142857Y-67014342D02*
X178142857Y-66919104D01*
X178142857Y-66919104D02*
X178095238Y-66823866D01*
X178095238Y-66823866D02*
X178047619Y-66776247D01*
X178047619Y-66776247D02*
X177952381Y-66728628D01*
X177952381Y-66728628D02*
X177761905Y-66681009D01*
X177761905Y-66681009D02*
X177666667Y-66633390D01*
X177666667Y-66633390D02*
X177619048Y-66585771D01*
X177619048Y-66585771D02*
X177571429Y-66490533D01*
X177571429Y-66490533D02*
X177571429Y-66395295D01*
X177571429Y-66395295D02*
X177619048Y-66300057D01*
X177619048Y-66300057D02*
X177666667Y-66252438D01*
X177666667Y-66252438D02*
X177761905Y-66204819D01*
X177761905Y-66204819D02*
X178000000Y-66204819D01*
X178000000Y-66204819D02*
X178142857Y-66252438D01*
X178571429Y-67204819D02*
X178571429Y-66204819D01*
X179571428Y-66252438D02*
X179476190Y-66204819D01*
X179476190Y-66204819D02*
X179333333Y-66204819D01*
X179333333Y-66204819D02*
X179190476Y-66252438D01*
X179190476Y-66252438D02*
X179095238Y-66347676D01*
X179095238Y-66347676D02*
X179047619Y-66442914D01*
X179047619Y-66442914D02*
X179000000Y-66633390D01*
X179000000Y-66633390D02*
X179000000Y-66776247D01*
X179000000Y-66776247D02*
X179047619Y-66966723D01*
X179047619Y-66966723D02*
X179095238Y-67061961D01*
X179095238Y-67061961D02*
X179190476Y-67157200D01*
X179190476Y-67157200D02*
X179333333Y-67204819D01*
X179333333Y-67204819D02*
X179428571Y-67204819D01*
X179428571Y-67204819D02*
X179571428Y-67157200D01*
X179571428Y-67157200D02*
X179619047Y-67109580D01*
X179619047Y-67109580D02*
X179619047Y-66776247D01*
X179619047Y-66776247D02*
X179428571Y-66776247D01*
X180047619Y-67204819D02*
X180047619Y-66204819D01*
X180047619Y-66204819D02*
X180619047Y-67204819D01*
X180619047Y-67204819D02*
X180619047Y-66204819D01*
X181047619Y-66919104D02*
X181523809Y-66919104D01*
X180952381Y-67204819D02*
X181285714Y-66204819D01*
X181285714Y-66204819D02*
X181619047Y-67204819D01*
X182428571Y-67204819D02*
X181952381Y-67204819D01*
X181952381Y-67204819D02*
X181952381Y-66204819D01*
X182523810Y-67300057D02*
X183285714Y-67300057D01*
X184095238Y-67204819D02*
X183761905Y-66728628D01*
X183523810Y-67204819D02*
X183523810Y-66204819D01*
X183523810Y-66204819D02*
X183904762Y-66204819D01*
X183904762Y-66204819D02*
X184000000Y-66252438D01*
X184000000Y-66252438D02*
X184047619Y-66300057D01*
X184047619Y-66300057D02*
X184095238Y-66395295D01*
X184095238Y-66395295D02*
X184095238Y-66538152D01*
X184095238Y-66538152D02*
X184047619Y-66633390D01*
X184047619Y-66633390D02*
X184000000Y-66681009D01*
X184000000Y-66681009D02*
X183904762Y-66728628D01*
X183904762Y-66728628D02*
X183523810Y-66728628D01*
X184476191Y-66919104D02*
X184952381Y-66919104D01*
X184380953Y-67204819D02*
X184714286Y-66204819D01*
X184714286Y-66204819D02*
X185047619Y-67204819D01*
X185285715Y-66204819D02*
X185523810Y-67204819D01*
X185523810Y-67204819D02*
X185714286Y-66490533D01*
X185714286Y-66490533D02*
X185904762Y-67204819D01*
X185904762Y-67204819D02*
X186142858Y-66204819D01*
X177238095Y-62804819D02*
X177809523Y-62804819D01*
X177523809Y-63804819D02*
X177523809Y-62804819D01*
X178142857Y-63804819D02*
X178142857Y-62804819D01*
X178142857Y-62804819D02*
X178523809Y-62804819D01*
X178523809Y-62804819D02*
X178619047Y-62852438D01*
X178619047Y-62852438D02*
X178666666Y-62900057D01*
X178666666Y-62900057D02*
X178714285Y-62995295D01*
X178714285Y-62995295D02*
X178714285Y-63138152D01*
X178714285Y-63138152D02*
X178666666Y-63233390D01*
X178666666Y-63233390D02*
X178619047Y-63281009D01*
X178619047Y-63281009D02*
X178523809Y-63328628D01*
X178523809Y-63328628D02*
X178142857Y-63328628D01*
X179571428Y-62804819D02*
X179380952Y-62804819D01*
X179380952Y-62804819D02*
X179285714Y-62852438D01*
X179285714Y-62852438D02*
X179238095Y-62900057D01*
X179238095Y-62900057D02*
X179142857Y-63042914D01*
X179142857Y-63042914D02*
X179095238Y-63233390D01*
X179095238Y-63233390D02*
X179095238Y-63614342D01*
X179095238Y-63614342D02*
X179142857Y-63709580D01*
X179142857Y-63709580D02*
X179190476Y-63757200D01*
X179190476Y-63757200D02*
X179285714Y-63804819D01*
X179285714Y-63804819D02*
X179476190Y-63804819D01*
X179476190Y-63804819D02*
X179571428Y-63757200D01*
X179571428Y-63757200D02*
X179619047Y-63709580D01*
X179619047Y-63709580D02*
X179666666Y-63614342D01*
X179666666Y-63614342D02*
X179666666Y-63376247D01*
X179666666Y-63376247D02*
X179619047Y-63281009D01*
X179619047Y-63281009D02*
X179571428Y-63233390D01*
X179571428Y-63233390D02*
X179476190Y-63185771D01*
X179476190Y-63185771D02*
X179285714Y-63185771D01*
X179285714Y-63185771D02*
X179190476Y-63233390D01*
X179190476Y-63233390D02*
X179142857Y-63281009D01*
X179142857Y-63281009D02*
X179095238Y-63376247D01*
X162638095Y-85573866D02*
X162685714Y-85526247D01*
X162685714Y-85526247D02*
X162780952Y-85478628D01*
X162780952Y-85478628D02*
X162971428Y-85573866D01*
X162971428Y-85573866D02*
X163066666Y-85526247D01*
X163066666Y-85526247D02*
X163114285Y-85478628D01*
D13*
X162763574Y-83690476D02*
X162965955Y-83690476D01*
X162965955Y-83690476D02*
X162989765Y-83678571D01*
X162989765Y-83678571D02*
X163001670Y-83666666D01*
X163001670Y-83666666D02*
X163013574Y-83642857D01*
X163013574Y-83642857D02*
X163013574Y-83595238D01*
X163013574Y-83595238D02*
X163001670Y-83571428D01*
X163001670Y-83571428D02*
X162989765Y-83559523D01*
X162989765Y-83559523D02*
X162965955Y-83547619D01*
X162965955Y-83547619D02*
X162763574Y-83547619D01*
X162763574Y-83452380D02*
X162763574Y-83297618D01*
X162763574Y-83297618D02*
X162858812Y-83380952D01*
X162858812Y-83380952D02*
X162858812Y-83345237D01*
X162858812Y-83345237D02*
X162870717Y-83321428D01*
X162870717Y-83321428D02*
X162882622Y-83309523D01*
X162882622Y-83309523D02*
X162906431Y-83297618D01*
X162906431Y-83297618D02*
X162965955Y-83297618D01*
X162965955Y-83297618D02*
X162989765Y-83309523D01*
X162989765Y-83309523D02*
X163001670Y-83321428D01*
X163001670Y-83321428D02*
X163013574Y-83345237D01*
X163013574Y-83345237D02*
X163013574Y-83416666D01*
X163013574Y-83416666D02*
X163001670Y-83440475D01*
X163001670Y-83440475D02*
X162989765Y-83452380D01*
D10*
X148047618Y-109704819D02*
X147714285Y-109228628D01*
X147476190Y-109704819D02*
X147476190Y-108704819D01*
X147476190Y-108704819D02*
X147857142Y-108704819D01*
X147857142Y-108704819D02*
X147952380Y-108752438D01*
X147952380Y-108752438D02*
X147999999Y-108800057D01*
X147999999Y-108800057D02*
X148047618Y-108895295D01*
X148047618Y-108895295D02*
X148047618Y-109038152D01*
X148047618Y-109038152D02*
X147999999Y-109133390D01*
X147999999Y-109133390D02*
X147952380Y-109181009D01*
X147952380Y-109181009D02*
X147857142Y-109228628D01*
X147857142Y-109228628D02*
X147476190Y-109228628D01*
X148428571Y-109419104D02*
X148904761Y-109419104D01*
X148333333Y-109704819D02*
X148666666Y-108704819D01*
X148666666Y-108704819D02*
X148999999Y-109704819D01*
X149238095Y-108704819D02*
X149476190Y-109704819D01*
X149476190Y-109704819D02*
X149666666Y-108990533D01*
X149666666Y-108990533D02*
X149857142Y-109704819D01*
X149857142Y-109704819D02*
X150095238Y-108704819D01*
X150238095Y-109800057D02*
X150999999Y-109800057D01*
X151571428Y-109181009D02*
X151238095Y-109181009D01*
X151238095Y-109704819D02*
X151238095Y-108704819D01*
X151238095Y-108704819D02*
X151714285Y-108704819D01*
X152095238Y-108704819D02*
X152095238Y-109514342D01*
X152095238Y-109514342D02*
X152142857Y-109609580D01*
X152142857Y-109609580D02*
X152190476Y-109657200D01*
X152190476Y-109657200D02*
X152285714Y-109704819D01*
X152285714Y-109704819D02*
X152476190Y-109704819D01*
X152476190Y-109704819D02*
X152571428Y-109657200D01*
X152571428Y-109657200D02*
X152619047Y-109609580D01*
X152619047Y-109609580D02*
X152666666Y-109514342D01*
X152666666Y-109514342D02*
X152666666Y-108704819D01*
X153095238Y-109657200D02*
X153238095Y-109704819D01*
X153238095Y-109704819D02*
X153476190Y-109704819D01*
X153476190Y-109704819D02*
X153571428Y-109657200D01*
X153571428Y-109657200D02*
X153619047Y-109609580D01*
X153619047Y-109609580D02*
X153666666Y-109514342D01*
X153666666Y-109514342D02*
X153666666Y-109419104D01*
X153666666Y-109419104D02*
X153619047Y-109323866D01*
X153619047Y-109323866D02*
X153571428Y-109276247D01*
X153571428Y-109276247D02*
X153476190Y-109228628D01*
X153476190Y-109228628D02*
X153285714Y-109181009D01*
X153285714Y-109181009D02*
X153190476Y-109133390D01*
X153190476Y-109133390D02*
X153142857Y-109085771D01*
X153142857Y-109085771D02*
X153095238Y-108990533D01*
X153095238Y-108990533D02*
X153095238Y-108895295D01*
X153095238Y-108895295D02*
X153142857Y-108800057D01*
X153142857Y-108800057D02*
X153190476Y-108752438D01*
X153190476Y-108752438D02*
X153285714Y-108704819D01*
X153285714Y-108704819D02*
X153523809Y-108704819D01*
X153523809Y-108704819D02*
X153666666Y-108752438D01*
X154095238Y-109181009D02*
X154428571Y-109181009D01*
X154571428Y-109704819D02*
X154095238Y-109704819D01*
X154095238Y-109704819D02*
X154095238Y-108704819D01*
X154095238Y-108704819D02*
X154571428Y-108704819D01*
X155000000Y-109704819D02*
X155000000Y-108704819D01*
X155000000Y-108704819D02*
X155238095Y-108704819D01*
X155238095Y-108704819D02*
X155380952Y-108752438D01*
X155380952Y-108752438D02*
X155476190Y-108847676D01*
X155476190Y-108847676D02*
X155523809Y-108942914D01*
X155523809Y-108942914D02*
X155571428Y-109133390D01*
X155571428Y-109133390D02*
X155571428Y-109276247D01*
X155571428Y-109276247D02*
X155523809Y-109466723D01*
X155523809Y-109466723D02*
X155476190Y-109561961D01*
X155476190Y-109561961D02*
X155380952Y-109657200D01*
X155380952Y-109657200D02*
X155238095Y-109704819D01*
X155238095Y-109704819D02*
X155000000Y-109704819D01*
X150238095Y-105304819D02*
X150809523Y-105304819D01*
X150523809Y-106304819D02*
X150523809Y-105304819D01*
X151142857Y-106304819D02*
X151142857Y-105304819D01*
X151142857Y-105304819D02*
X151523809Y-105304819D01*
X151523809Y-105304819D02*
X151619047Y-105352438D01*
X151619047Y-105352438D02*
X151666666Y-105400057D01*
X151666666Y-105400057D02*
X151714285Y-105495295D01*
X151714285Y-105495295D02*
X151714285Y-105638152D01*
X151714285Y-105638152D02*
X151666666Y-105733390D01*
X151666666Y-105733390D02*
X151619047Y-105781009D01*
X151619047Y-105781009D02*
X151523809Y-105828628D01*
X151523809Y-105828628D02*
X151142857Y-105828628D01*
X152095238Y-105400057D02*
X152142857Y-105352438D01*
X152142857Y-105352438D02*
X152238095Y-105304819D01*
X152238095Y-105304819D02*
X152476190Y-105304819D01*
X152476190Y-105304819D02*
X152571428Y-105352438D01*
X152571428Y-105352438D02*
X152619047Y-105400057D01*
X152619047Y-105400057D02*
X152666666Y-105495295D01*
X152666666Y-105495295D02*
X152666666Y-105590533D01*
X152666666Y-105590533D02*
X152619047Y-105733390D01*
X152619047Y-105733390D02*
X152047619Y-106304819D01*
X152047619Y-106304819D02*
X152666666Y-106304819D01*
X174738095Y-120523866D02*
X174785714Y-120476247D01*
X174785714Y-120476247D02*
X174880952Y-120428628D01*
X174880952Y-120428628D02*
X175071428Y-120523866D01*
X175071428Y-120523866D02*
X175166666Y-120476247D01*
X175166666Y-120476247D02*
X175214285Y-120428628D01*
X174666666Y-114954819D02*
X174666666Y-115669104D01*
X174666666Y-115669104D02*
X174619047Y-115811961D01*
X174619047Y-115811961D02*
X174523809Y-115907200D01*
X174523809Y-115907200D02*
X174380952Y-115954819D01*
X174380952Y-115954819D02*
X174285714Y-115954819D01*
X175666666Y-115954819D02*
X175095238Y-115954819D01*
X175380952Y-115954819D02*
X175380952Y-114954819D01*
X175380952Y-114954819D02*
X175285714Y-115097676D01*
X175285714Y-115097676D02*
X175190476Y-115192914D01*
X175190476Y-115192914D02*
X175095238Y-115240533D01*
X143428571Y-110118990D02*
X143761904Y-110118990D01*
X143761904Y-109595180D02*
X143761904Y-110595180D01*
X143761904Y-110595180D02*
X143285714Y-110595180D01*
X142476190Y-110261847D02*
X142476190Y-109595180D01*
X142904761Y-110261847D02*
X142904761Y-109738038D01*
X142904761Y-109738038D02*
X142857142Y-109642800D01*
X142857142Y-109642800D02*
X142761904Y-109595180D01*
X142761904Y-109595180D02*
X142619047Y-109595180D01*
X142619047Y-109595180D02*
X142523809Y-109642800D01*
X142523809Y-109642800D02*
X142476190Y-109690419D01*
X142047618Y-109642800D02*
X141952380Y-109595180D01*
X141952380Y-109595180D02*
X141761904Y-109595180D01*
X141761904Y-109595180D02*
X141666666Y-109642800D01*
X141666666Y-109642800D02*
X141619047Y-109738038D01*
X141619047Y-109738038D02*
X141619047Y-109785657D01*
X141619047Y-109785657D02*
X141666666Y-109880895D01*
X141666666Y-109880895D02*
X141761904Y-109928514D01*
X141761904Y-109928514D02*
X141904761Y-109928514D01*
X141904761Y-109928514D02*
X141999999Y-109976133D01*
X141999999Y-109976133D02*
X142047618Y-110071371D01*
X142047618Y-110071371D02*
X142047618Y-110118990D01*
X142047618Y-110118990D02*
X141999999Y-110214228D01*
X141999999Y-110214228D02*
X141904761Y-110261847D01*
X141904761Y-110261847D02*
X141761904Y-110261847D01*
X141761904Y-110261847D02*
X141666666Y-110214228D01*
X140809523Y-109642800D02*
X140904761Y-109595180D01*
X140904761Y-109595180D02*
X141095237Y-109595180D01*
X141095237Y-109595180D02*
X141190475Y-109642800D01*
X141190475Y-109642800D02*
X141238094Y-109738038D01*
X141238094Y-109738038D02*
X141238094Y-110118990D01*
X141238094Y-110118990D02*
X141190475Y-110214228D01*
X141190475Y-110214228D02*
X141095237Y-110261847D01*
X141095237Y-110261847D02*
X140904761Y-110261847D01*
X140904761Y-110261847D02*
X140809523Y-110214228D01*
X140809523Y-110214228D02*
X140761904Y-110118990D01*
X140761904Y-110118990D02*
X140761904Y-110023752D01*
X140761904Y-110023752D02*
X141238094Y-109928514D01*
X139047618Y-109595180D02*
X139619046Y-109595180D01*
X139333332Y-109595180D02*
X139333332Y-110595180D01*
X139333332Y-110595180D02*
X139428570Y-110452323D01*
X139428570Y-110452323D02*
X139523808Y-110357085D01*
X139523808Y-110357085D02*
X139619046Y-110309466D01*
X138666665Y-109880895D02*
X138190475Y-109880895D01*
X138761903Y-109595180D02*
X138428570Y-110595180D01*
X138428570Y-110595180D02*
X138095237Y-109595180D01*
X141333333Y-114068990D02*
X141666666Y-114068990D01*
X141666666Y-113545180D02*
X141666666Y-114545180D01*
X141666666Y-114545180D02*
X141190476Y-114545180D01*
X140285714Y-113545180D02*
X140857142Y-113545180D01*
X140571428Y-113545180D02*
X140571428Y-114545180D01*
X140571428Y-114545180D02*
X140666666Y-114402323D01*
X140666666Y-114402323D02*
X140761904Y-114307085D01*
X140761904Y-114307085D02*
X140857142Y-114259466D01*
X162214285Y-106824819D02*
X161642857Y-106824819D01*
X161928571Y-106824819D02*
X161928571Y-105824819D01*
X161928571Y-105824819D02*
X161833333Y-105967676D01*
X161833333Y-105967676D02*
X161738095Y-106062914D01*
X161738095Y-106062914D02*
X161642857Y-106110533D01*
X162642857Y-106824819D02*
X162642857Y-105824819D01*
X162642857Y-105824819D02*
X162976190Y-106539104D01*
X162976190Y-106539104D02*
X163309523Y-105824819D01*
X163309523Y-105824819D02*
X163309523Y-106824819D01*
X162333333Y-104454819D02*
X162000000Y-103978628D01*
X161761905Y-104454819D02*
X161761905Y-103454819D01*
X161761905Y-103454819D02*
X162142857Y-103454819D01*
X162142857Y-103454819D02*
X162238095Y-103502438D01*
X162238095Y-103502438D02*
X162285714Y-103550057D01*
X162285714Y-103550057D02*
X162333333Y-103645295D01*
X162333333Y-103645295D02*
X162333333Y-103788152D01*
X162333333Y-103788152D02*
X162285714Y-103883390D01*
X162285714Y-103883390D02*
X162238095Y-103931009D01*
X162238095Y-103931009D02*
X162142857Y-103978628D01*
X162142857Y-103978628D02*
X161761905Y-103978628D01*
X163190476Y-103788152D02*
X163190476Y-104454819D01*
X162952381Y-103407200D02*
X162714286Y-104121485D01*
X162714286Y-104121485D02*
X163333333Y-104121485D01*
X113266429Y-98919819D02*
X113266429Y-97919819D01*
X113266429Y-97919819D02*
X113504524Y-97919819D01*
X113504524Y-97919819D02*
X113647381Y-97967438D01*
X113647381Y-97967438D02*
X113742619Y-98062676D01*
X113742619Y-98062676D02*
X113790238Y-98157914D01*
X113790238Y-98157914D02*
X113837857Y-98348390D01*
X113837857Y-98348390D02*
X113837857Y-98491247D01*
X113837857Y-98491247D02*
X113790238Y-98681723D01*
X113790238Y-98681723D02*
X113742619Y-98776961D01*
X113742619Y-98776961D02*
X113647381Y-98872200D01*
X113647381Y-98872200D02*
X113504524Y-98919819D01*
X113504524Y-98919819D02*
X113266429Y-98919819D01*
X114171191Y-97919819D02*
X114409286Y-98919819D01*
X114409286Y-98919819D02*
X114599762Y-98205533D01*
X114599762Y-98205533D02*
X114790238Y-98919819D01*
X114790238Y-98919819D02*
X115028334Y-97919819D01*
X115409286Y-98919819D02*
X115409286Y-97919819D01*
X115409286Y-97919819D02*
X115742619Y-98634104D01*
X115742619Y-98634104D02*
X116075952Y-97919819D01*
X116075952Y-97919819D02*
X116075952Y-98919819D01*
X116456905Y-97919819D02*
X117075952Y-97919819D01*
X117075952Y-97919819D02*
X116742619Y-98300771D01*
X116742619Y-98300771D02*
X116885476Y-98300771D01*
X116885476Y-98300771D02*
X116980714Y-98348390D01*
X116980714Y-98348390D02*
X117028333Y-98396009D01*
X117028333Y-98396009D02*
X117075952Y-98491247D01*
X117075952Y-98491247D02*
X117075952Y-98729342D01*
X117075952Y-98729342D02*
X117028333Y-98824580D01*
X117028333Y-98824580D02*
X116980714Y-98872200D01*
X116980714Y-98872200D02*
X116885476Y-98919819D01*
X116885476Y-98919819D02*
X116599762Y-98919819D01*
X116599762Y-98919819D02*
X116504524Y-98872200D01*
X116504524Y-98872200D02*
X116456905Y-98824580D01*
X117695000Y-97919819D02*
X117790238Y-97919819D01*
X117790238Y-97919819D02*
X117885476Y-97967438D01*
X117885476Y-97967438D02*
X117933095Y-98015057D01*
X117933095Y-98015057D02*
X117980714Y-98110295D01*
X117980714Y-98110295D02*
X118028333Y-98300771D01*
X118028333Y-98300771D02*
X118028333Y-98538866D01*
X118028333Y-98538866D02*
X117980714Y-98729342D01*
X117980714Y-98729342D02*
X117933095Y-98824580D01*
X117933095Y-98824580D02*
X117885476Y-98872200D01*
X117885476Y-98872200D02*
X117790238Y-98919819D01*
X117790238Y-98919819D02*
X117695000Y-98919819D01*
X117695000Y-98919819D02*
X117599762Y-98872200D01*
X117599762Y-98872200D02*
X117552143Y-98824580D01*
X117552143Y-98824580D02*
X117504524Y-98729342D01*
X117504524Y-98729342D02*
X117456905Y-98538866D01*
X117456905Y-98538866D02*
X117456905Y-98300771D01*
X117456905Y-98300771D02*
X117504524Y-98110295D01*
X117504524Y-98110295D02*
X117552143Y-98015057D01*
X117552143Y-98015057D02*
X117599762Y-97967438D01*
X117599762Y-97967438D02*
X117695000Y-97919819D01*
X118647381Y-97919819D02*
X118742619Y-97919819D01*
X118742619Y-97919819D02*
X118837857Y-97967438D01*
X118837857Y-97967438D02*
X118885476Y-98015057D01*
X118885476Y-98015057D02*
X118933095Y-98110295D01*
X118933095Y-98110295D02*
X118980714Y-98300771D01*
X118980714Y-98300771D02*
X118980714Y-98538866D01*
X118980714Y-98538866D02*
X118933095Y-98729342D01*
X118933095Y-98729342D02*
X118885476Y-98824580D01*
X118885476Y-98824580D02*
X118837857Y-98872200D01*
X118837857Y-98872200D02*
X118742619Y-98919819D01*
X118742619Y-98919819D02*
X118647381Y-98919819D01*
X118647381Y-98919819D02*
X118552143Y-98872200D01*
X118552143Y-98872200D02*
X118504524Y-98824580D01*
X118504524Y-98824580D02*
X118456905Y-98729342D01*
X118456905Y-98729342D02*
X118409286Y-98538866D01*
X118409286Y-98538866D02*
X118409286Y-98300771D01*
X118409286Y-98300771D02*
X118456905Y-98110295D01*
X118456905Y-98110295D02*
X118504524Y-98015057D01*
X118504524Y-98015057D02*
X118552143Y-97967438D01*
X118552143Y-97967438D02*
X118647381Y-97919819D01*
X119933095Y-98919819D02*
X119361667Y-98919819D01*
X119647381Y-98919819D02*
X119647381Y-97919819D01*
X119647381Y-97919819D02*
X119552143Y-98062676D01*
X119552143Y-98062676D02*
X119456905Y-98157914D01*
X119456905Y-98157914D02*
X119361667Y-98205533D01*
X120933095Y-98824580D02*
X120885476Y-98872200D01*
X120885476Y-98872200D02*
X120742619Y-98919819D01*
X120742619Y-98919819D02*
X120647381Y-98919819D01*
X120647381Y-98919819D02*
X120504524Y-98872200D01*
X120504524Y-98872200D02*
X120409286Y-98776961D01*
X120409286Y-98776961D02*
X120361667Y-98681723D01*
X120361667Y-98681723D02*
X120314048Y-98491247D01*
X120314048Y-98491247D02*
X120314048Y-98348390D01*
X120314048Y-98348390D02*
X120361667Y-98157914D01*
X120361667Y-98157914D02*
X120409286Y-98062676D01*
X120409286Y-98062676D02*
X120504524Y-97967438D01*
X120504524Y-97967438D02*
X120647381Y-97919819D01*
X120647381Y-97919819D02*
X120742619Y-97919819D01*
X120742619Y-97919819D02*
X120885476Y-97967438D01*
X120885476Y-97967438D02*
X120933095Y-98015057D01*
X121361667Y-98538866D02*
X122123572Y-98538866D01*
X123171190Y-98824580D02*
X123123571Y-98872200D01*
X123123571Y-98872200D02*
X122980714Y-98919819D01*
X122980714Y-98919819D02*
X122885476Y-98919819D01*
X122885476Y-98919819D02*
X122742619Y-98872200D01*
X122742619Y-98872200D02*
X122647381Y-98776961D01*
X122647381Y-98776961D02*
X122599762Y-98681723D01*
X122599762Y-98681723D02*
X122552143Y-98491247D01*
X122552143Y-98491247D02*
X122552143Y-98348390D01*
X122552143Y-98348390D02*
X122599762Y-98157914D01*
X122599762Y-98157914D02*
X122647381Y-98062676D01*
X122647381Y-98062676D02*
X122742619Y-97967438D01*
X122742619Y-97967438D02*
X122885476Y-97919819D01*
X122885476Y-97919819D02*
X122980714Y-97919819D01*
X122980714Y-97919819D02*
X123123571Y-97967438D01*
X123123571Y-97967438D02*
X123171190Y-98015057D01*
X123599762Y-98919819D02*
X123599762Y-97919819D01*
X123599762Y-97919819D02*
X123837857Y-97919819D01*
X123837857Y-97919819D02*
X123980714Y-97967438D01*
X123980714Y-97967438D02*
X124075952Y-98062676D01*
X124075952Y-98062676D02*
X124123571Y-98157914D01*
X124123571Y-98157914D02*
X124171190Y-98348390D01*
X124171190Y-98348390D02*
X124171190Y-98491247D01*
X124171190Y-98491247D02*
X124123571Y-98681723D01*
X124123571Y-98681723D02*
X124075952Y-98776961D01*
X124075952Y-98776961D02*
X123980714Y-98872200D01*
X123980714Y-98872200D02*
X123837857Y-98919819D01*
X123837857Y-98919819D02*
X123599762Y-98919819D01*
X124599762Y-98919819D02*
X124599762Y-97919819D01*
X125171190Y-98919819D02*
X124742619Y-98348390D01*
X125171190Y-97919819D02*
X124599762Y-98491247D01*
X164863095Y-65618866D02*
X164910714Y-65571247D01*
X164910714Y-65571247D02*
X165005952Y-65523628D01*
X165005952Y-65523628D02*
X165196428Y-65618866D01*
X165196428Y-65618866D02*
X165291666Y-65571247D01*
X165291666Y-65571247D02*
X165339285Y-65523628D01*
X144738095Y-108752438D02*
X144642857Y-108704819D01*
X144642857Y-108704819D02*
X144500000Y-108704819D01*
X144500000Y-108704819D02*
X144357143Y-108752438D01*
X144357143Y-108752438D02*
X144261905Y-108847676D01*
X144261905Y-108847676D02*
X144214286Y-108942914D01*
X144214286Y-108942914D02*
X144166667Y-109133390D01*
X144166667Y-109133390D02*
X144166667Y-109276247D01*
X144166667Y-109276247D02*
X144214286Y-109466723D01*
X144214286Y-109466723D02*
X144261905Y-109561961D01*
X144261905Y-109561961D02*
X144357143Y-109657200D01*
X144357143Y-109657200D02*
X144500000Y-109704819D01*
X144500000Y-109704819D02*
X144595238Y-109704819D01*
X144595238Y-109704819D02*
X144738095Y-109657200D01*
X144738095Y-109657200D02*
X144785714Y-109609580D01*
X144785714Y-109609580D02*
X144785714Y-109276247D01*
X144785714Y-109276247D02*
X144595238Y-109276247D01*
X145214286Y-109704819D02*
X145214286Y-108704819D01*
X145214286Y-108704819D02*
X145785714Y-109704819D01*
X145785714Y-109704819D02*
X145785714Y-108704819D01*
X146261905Y-109704819D02*
X146261905Y-108704819D01*
X146261905Y-108704819D02*
X146500000Y-108704819D01*
X146500000Y-108704819D02*
X146642857Y-108752438D01*
X146642857Y-108752438D02*
X146738095Y-108847676D01*
X146738095Y-108847676D02*
X146785714Y-108942914D01*
X146785714Y-108942914D02*
X146833333Y-109133390D01*
X146833333Y-109133390D02*
X146833333Y-109276247D01*
X146833333Y-109276247D02*
X146785714Y-109466723D01*
X146785714Y-109466723D02*
X146738095Y-109561961D01*
X146738095Y-109561961D02*
X146642857Y-109657200D01*
X146642857Y-109657200D02*
X146500000Y-109704819D01*
X146500000Y-109704819D02*
X146261905Y-109704819D01*
X144238095Y-105304819D02*
X144809523Y-105304819D01*
X144523809Y-106304819D02*
X144523809Y-105304819D01*
X145142857Y-106304819D02*
X145142857Y-105304819D01*
X145142857Y-105304819D02*
X145523809Y-105304819D01*
X145523809Y-105304819D02*
X145619047Y-105352438D01*
X145619047Y-105352438D02*
X145666666Y-105400057D01*
X145666666Y-105400057D02*
X145714285Y-105495295D01*
X145714285Y-105495295D02*
X145714285Y-105638152D01*
X145714285Y-105638152D02*
X145666666Y-105733390D01*
X145666666Y-105733390D02*
X145619047Y-105781009D01*
X145619047Y-105781009D02*
X145523809Y-105828628D01*
X145523809Y-105828628D02*
X145142857Y-105828628D01*
X146619047Y-105304819D02*
X146142857Y-105304819D01*
X146142857Y-105304819D02*
X146095238Y-105781009D01*
X146095238Y-105781009D02*
X146142857Y-105733390D01*
X146142857Y-105733390D02*
X146238095Y-105685771D01*
X146238095Y-105685771D02*
X146476190Y-105685771D01*
X146476190Y-105685771D02*
X146571428Y-105733390D01*
X146571428Y-105733390D02*
X146619047Y-105781009D01*
X146619047Y-105781009D02*
X146666666Y-105876247D01*
X146666666Y-105876247D02*
X146666666Y-106114342D01*
X146666666Y-106114342D02*
X146619047Y-106209580D01*
X146619047Y-106209580D02*
X146571428Y-106257200D01*
X146571428Y-106257200D02*
X146476190Y-106304819D01*
X146476190Y-106304819D02*
X146238095Y-106304819D01*
X146238095Y-106304819D02*
X146142857Y-106257200D01*
X146142857Y-106257200D02*
X146095238Y-106209580D01*
X175107142Y-85004819D02*
X174916666Y-85004819D01*
X174916666Y-85004819D02*
X174821428Y-85052438D01*
X174821428Y-85052438D02*
X174773809Y-85100057D01*
X174773809Y-85100057D02*
X174678571Y-85242914D01*
X174678571Y-85242914D02*
X174630952Y-85433390D01*
X174630952Y-85433390D02*
X174630952Y-85814342D01*
X174630952Y-85814342D02*
X174678571Y-85909580D01*
X174678571Y-85909580D02*
X174726190Y-85957200D01*
X174726190Y-85957200D02*
X174821428Y-86004819D01*
X174821428Y-86004819D02*
X175011904Y-86004819D01*
X175011904Y-86004819D02*
X175107142Y-85957200D01*
X175107142Y-85957200D02*
X175154761Y-85909580D01*
X175154761Y-85909580D02*
X175202380Y-85814342D01*
X175202380Y-85814342D02*
X175202380Y-85576247D01*
X175202380Y-85576247D02*
X175154761Y-85481009D01*
X175154761Y-85481009D02*
X175107142Y-85433390D01*
X175107142Y-85433390D02*
X175011904Y-85385771D01*
X175011904Y-85385771D02*
X174821428Y-85385771D01*
X174821428Y-85385771D02*
X174726190Y-85433390D01*
X174726190Y-85433390D02*
X174678571Y-85481009D01*
X174678571Y-85481009D02*
X174630952Y-85576247D01*
X175773809Y-85433390D02*
X175678571Y-85385771D01*
X175678571Y-85385771D02*
X175630952Y-85338152D01*
X175630952Y-85338152D02*
X175583333Y-85242914D01*
X175583333Y-85242914D02*
X175583333Y-85195295D01*
X175583333Y-85195295D02*
X175630952Y-85100057D01*
X175630952Y-85100057D02*
X175678571Y-85052438D01*
X175678571Y-85052438D02*
X175773809Y-85004819D01*
X175773809Y-85004819D02*
X175964285Y-85004819D01*
X175964285Y-85004819D02*
X176059523Y-85052438D01*
X176059523Y-85052438D02*
X176107142Y-85100057D01*
X176107142Y-85100057D02*
X176154761Y-85195295D01*
X176154761Y-85195295D02*
X176154761Y-85242914D01*
X176154761Y-85242914D02*
X176107142Y-85338152D01*
X176107142Y-85338152D02*
X176059523Y-85385771D01*
X176059523Y-85385771D02*
X175964285Y-85433390D01*
X175964285Y-85433390D02*
X175773809Y-85433390D01*
X175773809Y-85433390D02*
X175678571Y-85481009D01*
X175678571Y-85481009D02*
X175630952Y-85528628D01*
X175630952Y-85528628D02*
X175583333Y-85623866D01*
X175583333Y-85623866D02*
X175583333Y-85814342D01*
X175583333Y-85814342D02*
X175630952Y-85909580D01*
X175630952Y-85909580D02*
X175678571Y-85957200D01*
X175678571Y-85957200D02*
X175773809Y-86004819D01*
X175773809Y-86004819D02*
X175964285Y-86004819D01*
X175964285Y-86004819D02*
X176059523Y-85957200D01*
X176059523Y-85957200D02*
X176107142Y-85909580D01*
X176107142Y-85909580D02*
X176154761Y-85814342D01*
X176154761Y-85814342D02*
X176154761Y-85623866D01*
X176154761Y-85623866D02*
X176107142Y-85528628D01*
X176107142Y-85528628D02*
X176059523Y-85481009D01*
X176059523Y-85481009D02*
X175964285Y-85433390D01*
X176773809Y-85004819D02*
X176869047Y-85004819D01*
X176869047Y-85004819D02*
X176964285Y-85052438D01*
X176964285Y-85052438D02*
X177011904Y-85100057D01*
X177011904Y-85100057D02*
X177059523Y-85195295D01*
X177059523Y-85195295D02*
X177107142Y-85385771D01*
X177107142Y-85385771D02*
X177107142Y-85623866D01*
X177107142Y-85623866D02*
X177059523Y-85814342D01*
X177059523Y-85814342D02*
X177011904Y-85909580D01*
X177011904Y-85909580D02*
X176964285Y-85957200D01*
X176964285Y-85957200D02*
X176869047Y-86004819D01*
X176869047Y-86004819D02*
X176773809Y-86004819D01*
X176773809Y-86004819D02*
X176678571Y-85957200D01*
X176678571Y-85957200D02*
X176630952Y-85909580D01*
X176630952Y-85909580D02*
X176583333Y-85814342D01*
X176583333Y-85814342D02*
X176535714Y-85623866D01*
X176535714Y-85623866D02*
X176535714Y-85385771D01*
X176535714Y-85385771D02*
X176583333Y-85195295D01*
X176583333Y-85195295D02*
X176630952Y-85100057D01*
X176630952Y-85100057D02*
X176678571Y-85052438D01*
X176678571Y-85052438D02*
X176773809Y-85004819D01*
X177535714Y-85338152D02*
X177535714Y-86338152D01*
X177535714Y-85385771D02*
X177630952Y-85338152D01*
X177630952Y-85338152D02*
X177821428Y-85338152D01*
X177821428Y-85338152D02*
X177916666Y-85385771D01*
X177916666Y-85385771D02*
X177964285Y-85433390D01*
X177964285Y-85433390D02*
X178011904Y-85528628D01*
X178011904Y-85528628D02*
X178011904Y-85814342D01*
X178011904Y-85814342D02*
X177964285Y-85909580D01*
X177964285Y-85909580D02*
X177916666Y-85957200D01*
X177916666Y-85957200D02*
X177821428Y-86004819D01*
X177821428Y-86004819D02*
X177630952Y-86004819D01*
X177630952Y-86004819D02*
X177535714Y-85957200D01*
X178773809Y-85481009D02*
X178440476Y-85481009D01*
X178440476Y-86004819D02*
X178440476Y-85004819D01*
X178440476Y-85004819D02*
X178916666Y-85004819D01*
D11*
X176650000Y-83715748D02*
X176621428Y-83744320D01*
X176621428Y-83744320D02*
X176535714Y-83772891D01*
X176535714Y-83772891D02*
X176478571Y-83772891D01*
X176478571Y-83772891D02*
X176392857Y-83744320D01*
X176392857Y-83744320D02*
X176335714Y-83687177D01*
X176335714Y-83687177D02*
X176307143Y-83630034D01*
X176307143Y-83630034D02*
X176278571Y-83515748D01*
X176278571Y-83515748D02*
X176278571Y-83430034D01*
X176278571Y-83430034D02*
X176307143Y-83315748D01*
X176307143Y-83315748D02*
X176335714Y-83258605D01*
X176335714Y-83258605D02*
X176392857Y-83201462D01*
X176392857Y-83201462D02*
X176478571Y-83172891D01*
X176478571Y-83172891D02*
X176535714Y-83172891D01*
X176535714Y-83172891D02*
X176621428Y-83201462D01*
X176621428Y-83201462D02*
X176650000Y-83230034D01*
X177221428Y-83772891D02*
X176878571Y-83772891D01*
X177050000Y-83772891D02*
X177050000Y-83172891D01*
X177050000Y-83172891D02*
X176992857Y-83258605D01*
X176992857Y-83258605D02*
X176935714Y-83315748D01*
X176935714Y-83315748D02*
X176878571Y-83344320D01*
D10*
X162285714Y-101824819D02*
X161714286Y-101824819D01*
X162000000Y-101824819D02*
X162000000Y-100824819D01*
X162000000Y-100824819D02*
X161904762Y-100967676D01*
X161904762Y-100967676D02*
X161809524Y-101062914D01*
X161809524Y-101062914D02*
X161714286Y-101110533D01*
X162714286Y-101824819D02*
X162714286Y-100824819D01*
X163285714Y-101824819D02*
X162857143Y-101253390D01*
X163285714Y-100824819D02*
X162714286Y-101396247D01*
X162333333Y-99454819D02*
X162000000Y-98978628D01*
X161761905Y-99454819D02*
X161761905Y-98454819D01*
X161761905Y-98454819D02*
X162142857Y-98454819D01*
X162142857Y-98454819D02*
X162238095Y-98502438D01*
X162238095Y-98502438D02*
X162285714Y-98550057D01*
X162285714Y-98550057D02*
X162333333Y-98645295D01*
X162333333Y-98645295D02*
X162333333Y-98788152D01*
X162333333Y-98788152D02*
X162285714Y-98883390D01*
X162285714Y-98883390D02*
X162238095Y-98931009D01*
X162238095Y-98931009D02*
X162142857Y-98978628D01*
X162142857Y-98978628D02*
X161761905Y-98978628D01*
X162666667Y-98454819D02*
X163285714Y-98454819D01*
X163285714Y-98454819D02*
X162952381Y-98835771D01*
X162952381Y-98835771D02*
X163095238Y-98835771D01*
X163095238Y-98835771D02*
X163190476Y-98883390D01*
X163190476Y-98883390D02*
X163238095Y-98931009D01*
X163238095Y-98931009D02*
X163285714Y-99026247D01*
X163285714Y-99026247D02*
X163285714Y-99264342D01*
X163285714Y-99264342D02*
X163238095Y-99359580D01*
X163238095Y-99359580D02*
X163190476Y-99407200D01*
X163190476Y-99407200D02*
X163095238Y-99454819D01*
X163095238Y-99454819D02*
X162809524Y-99454819D01*
X162809524Y-99454819D02*
X162714286Y-99407200D01*
X162714286Y-99407200D02*
X162666667Y-99359580D01*
X143642857Y-104204819D02*
X144261904Y-104204819D01*
X144261904Y-104204819D02*
X143928571Y-104585771D01*
X143928571Y-104585771D02*
X144071428Y-104585771D01*
X144071428Y-104585771D02*
X144166666Y-104633390D01*
X144166666Y-104633390D02*
X144214285Y-104681009D01*
X144214285Y-104681009D02*
X144261904Y-104776247D01*
X144261904Y-104776247D02*
X144261904Y-105014342D01*
X144261904Y-105014342D02*
X144214285Y-105109580D01*
X144214285Y-105109580D02*
X144166666Y-105157200D01*
X144166666Y-105157200D02*
X144071428Y-105204819D01*
X144071428Y-105204819D02*
X143785714Y-105204819D01*
X143785714Y-105204819D02*
X143690476Y-105157200D01*
X143690476Y-105157200D02*
X143642857Y-105109580D01*
X144547619Y-104204819D02*
X144880952Y-105204819D01*
X144880952Y-105204819D02*
X145214285Y-104204819D01*
X145452381Y-104204819D02*
X146071428Y-104204819D01*
X146071428Y-104204819D02*
X145738095Y-104585771D01*
X145738095Y-104585771D02*
X145880952Y-104585771D01*
X145880952Y-104585771D02*
X145976190Y-104633390D01*
X145976190Y-104633390D02*
X146023809Y-104681009D01*
X146023809Y-104681009D02*
X146071428Y-104776247D01*
X146071428Y-104776247D02*
X146071428Y-105014342D01*
X146071428Y-105014342D02*
X146023809Y-105109580D01*
X146023809Y-105109580D02*
X145976190Y-105157200D01*
X145976190Y-105157200D02*
X145880952Y-105204819D01*
X145880952Y-105204819D02*
X145595238Y-105204819D01*
X145595238Y-105204819D02*
X145500000Y-105157200D01*
X145500000Y-105157200D02*
X145452381Y-105109580D01*
X146500000Y-104823866D02*
X147261905Y-104823866D01*
X146880952Y-105204819D02*
X146880952Y-104442914D01*
X144238095Y-100804819D02*
X144809523Y-100804819D01*
X144523809Y-101804819D02*
X144523809Y-100804819D01*
X145142857Y-101804819D02*
X145142857Y-100804819D01*
X145142857Y-100804819D02*
X145523809Y-100804819D01*
X145523809Y-100804819D02*
X145619047Y-100852438D01*
X145619047Y-100852438D02*
X145666666Y-100900057D01*
X145666666Y-100900057D02*
X145714285Y-100995295D01*
X145714285Y-100995295D02*
X145714285Y-101138152D01*
X145714285Y-101138152D02*
X145666666Y-101233390D01*
X145666666Y-101233390D02*
X145619047Y-101281009D01*
X145619047Y-101281009D02*
X145523809Y-101328628D01*
X145523809Y-101328628D02*
X145142857Y-101328628D01*
X146571428Y-101138152D02*
X146571428Y-101804819D01*
X146333333Y-100757200D02*
X146095238Y-101471485D01*
X146095238Y-101471485D02*
X146714285Y-101471485D01*
X107214285Y-111104819D02*
X107214285Y-110104819D01*
X107214285Y-110104819D02*
X107547618Y-110819104D01*
X107547618Y-110819104D02*
X107880951Y-110104819D01*
X107880951Y-110104819D02*
X107880951Y-111104819D01*
X108499999Y-111104819D02*
X108404761Y-111057200D01*
X108404761Y-111057200D02*
X108357142Y-111009580D01*
X108357142Y-111009580D02*
X108309523Y-110914342D01*
X108309523Y-110914342D02*
X108309523Y-110628628D01*
X108309523Y-110628628D02*
X108357142Y-110533390D01*
X108357142Y-110533390D02*
X108404761Y-110485771D01*
X108404761Y-110485771D02*
X108499999Y-110438152D01*
X108499999Y-110438152D02*
X108642856Y-110438152D01*
X108642856Y-110438152D02*
X108738094Y-110485771D01*
X108738094Y-110485771D02*
X108785713Y-110533390D01*
X108785713Y-110533390D02*
X108833332Y-110628628D01*
X108833332Y-110628628D02*
X108833332Y-110914342D01*
X108833332Y-110914342D02*
X108785713Y-111009580D01*
X108785713Y-111009580D02*
X108738094Y-111057200D01*
X108738094Y-111057200D02*
X108642856Y-111104819D01*
X108642856Y-111104819D02*
X108499999Y-111104819D01*
X109690475Y-110438152D02*
X109690475Y-111104819D01*
X109261904Y-110438152D02*
X109261904Y-110961961D01*
X109261904Y-110961961D02*
X109309523Y-111057200D01*
X109309523Y-111057200D02*
X109404761Y-111104819D01*
X109404761Y-111104819D02*
X109547618Y-111104819D01*
X109547618Y-111104819D02*
X109642856Y-111057200D01*
X109642856Y-111057200D02*
X109690475Y-111009580D01*
X110166666Y-110438152D02*
X110166666Y-111104819D01*
X110166666Y-110533390D02*
X110214285Y-110485771D01*
X110214285Y-110485771D02*
X110309523Y-110438152D01*
X110309523Y-110438152D02*
X110452380Y-110438152D01*
X110452380Y-110438152D02*
X110547618Y-110485771D01*
X110547618Y-110485771D02*
X110595237Y-110581009D01*
X110595237Y-110581009D02*
X110595237Y-111104819D01*
X110928571Y-110438152D02*
X111309523Y-110438152D01*
X111071428Y-110104819D02*
X111071428Y-110961961D01*
X111071428Y-110961961D02*
X111119047Y-111057200D01*
X111119047Y-111057200D02*
X111214285Y-111104819D01*
X111214285Y-111104819D02*
X111309523Y-111104819D01*
X111642857Y-111104819D02*
X111642857Y-110438152D01*
X111642857Y-110104819D02*
X111595238Y-110152438D01*
X111595238Y-110152438D02*
X111642857Y-110200057D01*
X111642857Y-110200057D02*
X111690476Y-110152438D01*
X111690476Y-110152438D02*
X111642857Y-110104819D01*
X111642857Y-110104819D02*
X111642857Y-110200057D01*
X112119047Y-110438152D02*
X112119047Y-111104819D01*
X112119047Y-110533390D02*
X112166666Y-110485771D01*
X112166666Y-110485771D02*
X112261904Y-110438152D01*
X112261904Y-110438152D02*
X112404761Y-110438152D01*
X112404761Y-110438152D02*
X112499999Y-110485771D01*
X112499999Y-110485771D02*
X112547618Y-110581009D01*
X112547618Y-110581009D02*
X112547618Y-111104819D01*
X113452380Y-110438152D02*
X113452380Y-111247676D01*
X113452380Y-111247676D02*
X113404761Y-111342914D01*
X113404761Y-111342914D02*
X113357142Y-111390533D01*
X113357142Y-111390533D02*
X113261904Y-111438152D01*
X113261904Y-111438152D02*
X113119047Y-111438152D01*
X113119047Y-111438152D02*
X113023809Y-111390533D01*
X113452380Y-111057200D02*
X113357142Y-111104819D01*
X113357142Y-111104819D02*
X113166666Y-111104819D01*
X113166666Y-111104819D02*
X113071428Y-111057200D01*
X113071428Y-111057200D02*
X113023809Y-111009580D01*
X113023809Y-111009580D02*
X112976190Y-110914342D01*
X112976190Y-110914342D02*
X112976190Y-110628628D01*
X112976190Y-110628628D02*
X113023809Y-110533390D01*
X113023809Y-110533390D02*
X113071428Y-110485771D01*
X113071428Y-110485771D02*
X113166666Y-110438152D01*
X113166666Y-110438152D02*
X113357142Y-110438152D01*
X113357142Y-110438152D02*
X113452380Y-110485771D01*
X113928571Y-111104819D02*
X113928571Y-110104819D01*
X113928571Y-110581009D02*
X114499999Y-110581009D01*
X114499999Y-111104819D02*
X114499999Y-110104819D01*
X115119047Y-111104819D02*
X115023809Y-111057200D01*
X115023809Y-111057200D02*
X114976190Y-111009580D01*
X114976190Y-111009580D02*
X114928571Y-110914342D01*
X114928571Y-110914342D02*
X114928571Y-110628628D01*
X114928571Y-110628628D02*
X114976190Y-110533390D01*
X114976190Y-110533390D02*
X115023809Y-110485771D01*
X115023809Y-110485771D02*
X115119047Y-110438152D01*
X115119047Y-110438152D02*
X115261904Y-110438152D01*
X115261904Y-110438152D02*
X115357142Y-110485771D01*
X115357142Y-110485771D02*
X115404761Y-110533390D01*
X115404761Y-110533390D02*
X115452380Y-110628628D01*
X115452380Y-110628628D02*
X115452380Y-110914342D01*
X115452380Y-110914342D02*
X115404761Y-111009580D01*
X115404761Y-111009580D02*
X115357142Y-111057200D01*
X115357142Y-111057200D02*
X115261904Y-111104819D01*
X115261904Y-111104819D02*
X115119047Y-111104819D01*
X116023809Y-111104819D02*
X115928571Y-111057200D01*
X115928571Y-111057200D02*
X115880952Y-110961961D01*
X115880952Y-110961961D02*
X115880952Y-110104819D01*
X116785714Y-111057200D02*
X116690476Y-111104819D01*
X116690476Y-111104819D02*
X116500000Y-111104819D01*
X116500000Y-111104819D02*
X116404762Y-111057200D01*
X116404762Y-111057200D02*
X116357143Y-110961961D01*
X116357143Y-110961961D02*
X116357143Y-110581009D01*
X116357143Y-110581009D02*
X116404762Y-110485771D01*
X116404762Y-110485771D02*
X116500000Y-110438152D01*
X116500000Y-110438152D02*
X116690476Y-110438152D01*
X116690476Y-110438152D02*
X116785714Y-110485771D01*
X116785714Y-110485771D02*
X116833333Y-110581009D01*
X116833333Y-110581009D02*
X116833333Y-110676247D01*
X116833333Y-110676247D02*
X116357143Y-110771485D01*
X111238095Y-107454819D02*
X111238095Y-106454819D01*
X111238095Y-106931009D02*
X111809523Y-106931009D01*
X111809523Y-107454819D02*
X111809523Y-106454819D01*
X112238095Y-106550057D02*
X112285714Y-106502438D01*
X112285714Y-106502438D02*
X112380952Y-106454819D01*
X112380952Y-106454819D02*
X112619047Y-106454819D01*
X112619047Y-106454819D02*
X112714285Y-106502438D01*
X112714285Y-106502438D02*
X112761904Y-106550057D01*
X112761904Y-106550057D02*
X112809523Y-106645295D01*
X112809523Y-106645295D02*
X112809523Y-106740533D01*
X112809523Y-106740533D02*
X112761904Y-106883390D01*
X112761904Y-106883390D02*
X112190476Y-107454819D01*
X112190476Y-107454819D02*
X112809523Y-107454819D01*
%TO.C,D1*%
D12*
X155920000Y-111000000D02*
X158400000Y-111000000D01*
X162720000Y-112350000D02*
X162720000Y-109650000D01*
X162820000Y-112350000D02*
X162820000Y-109650000D01*
X162920000Y-112350000D02*
X162920000Y-109650000D01*
X166080000Y-111000000D02*
X163600000Y-111000000D01*
X158400000Y-109650000D02*
X163600000Y-109650000D01*
X163600000Y-112350000D01*
X158400000Y-112350000D01*
X158400000Y-109650000D01*
%TO.C,C2*%
X175250000Y-87200000D02*
X178250000Y-87200000D01*
X178250000Y-88800000D01*
X175250000Y-88800000D01*
X175250000Y-87200000D01*
%TO.C,C3*%
X175500000Y-93750000D02*
X180500000Y-93750000D01*
X180500000Y-96250000D01*
X175500000Y-96250000D01*
X175500000Y-93750000D01*
%TO.C,U4*%
X158750000Y-66800000D02*
X175250000Y-66800000D01*
X158750000Y-78200000D02*
X158750000Y-66800000D01*
X175250000Y-66800000D02*
X175250000Y-78200000D01*
X175250000Y-78200000D02*
X158750000Y-78200000D01*
%TO.C,R2*%
X158880000Y-93500000D02*
X159540000Y-93500000D01*
X166500000Y-93500000D02*
X165840000Y-93500000D01*
X159540000Y-92250000D02*
X165840000Y-92250000D01*
X165840000Y-94750000D01*
X159540000Y-94750000D01*
X159540000Y-92250000D01*
%TO.C,R1*%
X158880000Y-88500000D02*
X159540000Y-88500000D01*
X166500000Y-88500000D02*
X165840000Y-88500000D01*
X159540000Y-87250000D02*
X165840000Y-87250000D01*
X165840000Y-89750000D01*
X159540000Y-89750000D01*
X159540000Y-87250000D01*
%TO.C,U3*%
X159800000Y-83500000D02*
G75*
G02*
X158800000Y-83500000I-500000J0D01*
G01*
X158800000Y-83500000D02*
G75*
G02*
X159800000Y-83500000I500000J0D01*
G01*
X163400000Y-83500000D02*
G75*
G02*
X162400000Y-83500000I-500000J0D01*
G01*
X162400000Y-83500000D02*
G75*
G02*
X163400000Y-83500000I500000J0D01*
G01*
X167000000Y-83500000D02*
G75*
G02*
X166000000Y-83500000I-500000J0D01*
G01*
X166000000Y-83500000D02*
G75*
G02*
X167000000Y-83500000I500000J0D01*
G01*
%TO.C,J1*%
X172050000Y-111650000D02*
X172050000Y-119250000D01*
X172050000Y-119250000D02*
X177950000Y-119250000D01*
X172750000Y-111650000D02*
X172050000Y-111650000D01*
X172750000Y-113250000D02*
X172750000Y-111650000D01*
X173500000Y-114375000D02*
X174500000Y-114375000D01*
X174000000Y-113875000D02*
X173500000Y-114375000D01*
X174500000Y-114375000D02*
X174000000Y-113875000D01*
X177250000Y-111650000D02*
X177250000Y-113250000D01*
X177250000Y-113250000D02*
X172750000Y-113250000D01*
X177950000Y-111650000D02*
X177250000Y-111650000D01*
X177950000Y-119250000D02*
X177950000Y-111650000D01*
%TO.C,F1*%
X129100000Y-111400000D02*
X152900000Y-111400000D01*
X129100000Y-116600000D02*
X129100000Y-111400000D01*
X152900000Y-111400000D02*
X152900000Y-116600000D01*
X152900000Y-116600000D02*
X129100000Y-116600000D01*
%TO.C,R4*%
X158690000Y-104000000D02*
X159350000Y-104000000D01*
X166310000Y-104000000D02*
X165650000Y-104000000D01*
X159350000Y-102750000D02*
X165650000Y-102750000D01*
X165650000Y-105250000D01*
X159350000Y-105250000D01*
X159350000Y-102750000D01*
%TO.C,U5*%
D14*
X107410000Y-69630000D02*
X107410000Y-77530000D01*
X107410000Y-77530000D02*
X108650000Y-77530000D01*
X107410000Y-80380000D02*
X107410000Y-88280000D01*
X107410000Y-88280000D02*
X108650000Y-88280000D01*
X108650000Y-43330000D02*
X108650000Y-69630000D01*
X108650000Y-69630000D02*
X107410000Y-69630000D01*
X108650000Y-69630000D02*
X108650000Y-77530000D01*
X108650000Y-77530000D02*
X108650000Y-80380000D01*
X108650000Y-80380000D02*
X107410000Y-80380000D01*
X108650000Y-80380000D02*
X108650000Y-88280000D01*
X108650000Y-88280000D02*
X108650000Y-97330000D01*
X108650000Y-97330000D02*
X151650000Y-97330000D01*
X112750000Y-35590000D02*
X131830000Y-35590000D01*
X112750000Y-43330000D02*
X108650000Y-43330000D01*
X112750000Y-43330000D02*
X112750000Y-35590000D01*
X116650000Y-89330000D02*
X117650000Y-89330000D01*
X117150000Y-86330000D02*
X117150000Y-87330000D01*
X117150000Y-88830000D02*
X117150000Y-89830000D01*
X118260000Y-85360000D02*
X118260000Y-90900000D01*
X118260000Y-90900000D02*
X121260000Y-90900000D01*
X121260000Y-85360000D02*
X118260000Y-85360000D01*
X121260000Y-90900000D02*
X121260000Y-85360000D01*
X131830000Y-35590000D02*
X131830000Y-43330000D01*
X131830000Y-43330000D02*
X112750000Y-43330000D01*
X145500000Y-54340000D02*
X151040000Y-54340000D01*
X145500000Y-87820000D02*
X145500000Y-54340000D01*
X151040000Y-54340000D02*
X151040000Y-87820000D01*
X151040000Y-87820000D02*
X145500000Y-87820000D01*
X151650000Y-43330000D02*
X131830000Y-43330000D01*
X151650000Y-97330000D02*
X151650000Y-43330000D01*
%TO.C,U2*%
D12*
X154950000Y-44370000D02*
X154950000Y-62720000D01*
X154950000Y-62720000D02*
X155950000Y-63720000D01*
X155950000Y-43370000D02*
X154950000Y-44370000D01*
X155950000Y-63720000D02*
X174300000Y-63720000D01*
X174300000Y-43370000D02*
X155950000Y-43370000D01*
X174300000Y-63720000D02*
X175300000Y-62720000D01*
X175300000Y-44370000D02*
X174300000Y-43370000D01*
X175300000Y-62720000D02*
X175300000Y-44370000D01*
%TO.C,C1*%
X175250000Y-82700000D02*
X178250000Y-82700000D01*
X178250000Y-84300000D01*
X175250000Y-84300000D01*
X175250000Y-82700000D01*
%TO.C,R3*%
X158690000Y-99000000D02*
X159350000Y-99000000D01*
X166310000Y-99000000D02*
X165650000Y-99000000D01*
X159350000Y-97750000D02*
X165650000Y-97750000D01*
X165650000Y-100250000D01*
X159350000Y-100250000D01*
X159350000Y-97750000D01*
%TD*%
M02*
