%TF.GenerationSoftware,KiCad,Pcbnew,10.0.1*%
%TF.CreationDate,2026-05-25T22:35:40+01:00*%
%TF.ProjectId,Thin-Pod,5468696e-2d50-46f6-942e-6b696361645f,rev?*%
%TF.SameCoordinates,Original*%
%TF.FileFunction,Drillmap*%
%TF.FilePolarity,Positive*%
%FSLAX45Y45*%
G04 Gerber Fmt 4.5, Leading zero omitted, Abs format (unit mm)*
G04 Created by KiCad (PCBNEW 10.0.1) date 2026-05-25 22:35:40*
%MOMM*%
%LPD*%
G01*
G04 APERTURE LIST*
%ADD10C,0.050000*%
%ADD11C,0.200000*%
%ADD12C,0.270000*%
G04 APERTURE END LIST*
D10*
X10500000Y-4300000D02*
X10500000Y-4300000D01*
G75*
G02*
X10800000Y-4000000I300000J0D01*
G01*
X18200000Y-4000000D01*
G75*
G02*
X18500000Y-4300000I0J-300000D01*
G01*
X18500000Y-11700000D01*
G75*
G02*
X18200000Y-12000000I-300000J0D01*
G01*
X10800000Y-12000000D01*
G75*
G02*
X10500000Y-11700000I0J300000D01*
G01*
X10500000Y-4300000D01*
D11*
D12*
X11065000Y-10565000D02*
X11335000Y-10835000D01*
X11335000Y-10565000D02*
X11065000Y-10835000D01*
X17765000Y-4665000D02*
X18035000Y-4935000D01*
X18035000Y-4665000D02*
X17765000Y-4935000D01*
X17765000Y-10565000D02*
X18035000Y-10835000D01*
X18035000Y-10565000D02*
X17765000Y-10835000D01*
D11*
X10758277Y-12313984D02*
X10758277Y-12113984D01*
X10758277Y-12113984D02*
X10805896Y-12113984D01*
X10805896Y-12113984D02*
X10834467Y-12123508D01*
X10834467Y-12123508D02*
X10853515Y-12142555D01*
X10853515Y-12142555D02*
X10863039Y-12161603D01*
X10863039Y-12161603D02*
X10872563Y-12199698D01*
X10872563Y-12199698D02*
X10872563Y-12228269D01*
X10872563Y-12228269D02*
X10863039Y-12266365D01*
X10863039Y-12266365D02*
X10853515Y-12285412D01*
X10853515Y-12285412D02*
X10834467Y-12304460D01*
X10834467Y-12304460D02*
X10805896Y-12313984D01*
X10805896Y-12313984D02*
X10758277Y-12313984D01*
X10958277Y-12313984D02*
X10958277Y-12180650D01*
X10958277Y-12218746D02*
X10967801Y-12199698D01*
X10967801Y-12199698D02*
X10977324Y-12190174D01*
X10977324Y-12190174D02*
X10996372Y-12180650D01*
X10996372Y-12180650D02*
X11015420Y-12180650D01*
X11082086Y-12313984D02*
X11082086Y-12180650D01*
X11082086Y-12113984D02*
X11072563Y-12123508D01*
X11072563Y-12123508D02*
X11082086Y-12133031D01*
X11082086Y-12133031D02*
X11091610Y-12123508D01*
X11091610Y-12123508D02*
X11082086Y-12113984D01*
X11082086Y-12113984D02*
X11082086Y-12133031D01*
X11205896Y-12313984D02*
X11186848Y-12304460D01*
X11186848Y-12304460D02*
X11177324Y-12285412D01*
X11177324Y-12285412D02*
X11177324Y-12113984D01*
X11310658Y-12313984D02*
X11291610Y-12304460D01*
X11291610Y-12304460D02*
X11282086Y-12285412D01*
X11282086Y-12285412D02*
X11282086Y-12113984D01*
X11539229Y-12313984D02*
X11539229Y-12113984D01*
X11539229Y-12113984D02*
X11605896Y-12256841D01*
X11605896Y-12256841D02*
X11672562Y-12113984D01*
X11672562Y-12113984D02*
X11672562Y-12313984D01*
X11853515Y-12313984D02*
X11853515Y-12209222D01*
X11853515Y-12209222D02*
X11843991Y-12190174D01*
X11843991Y-12190174D02*
X11824943Y-12180650D01*
X11824943Y-12180650D02*
X11786848Y-12180650D01*
X11786848Y-12180650D02*
X11767801Y-12190174D01*
X11853515Y-12304460D02*
X11834467Y-12313984D01*
X11834467Y-12313984D02*
X11786848Y-12313984D01*
X11786848Y-12313984D02*
X11767801Y-12304460D01*
X11767801Y-12304460D02*
X11758277Y-12285412D01*
X11758277Y-12285412D02*
X11758277Y-12266365D01*
X11758277Y-12266365D02*
X11767801Y-12247317D01*
X11767801Y-12247317D02*
X11786848Y-12237793D01*
X11786848Y-12237793D02*
X11834467Y-12237793D01*
X11834467Y-12237793D02*
X11853515Y-12228269D01*
X11948753Y-12180650D02*
X11948753Y-12380650D01*
X11948753Y-12190174D02*
X11967801Y-12180650D01*
X11967801Y-12180650D02*
X12005896Y-12180650D01*
X12005896Y-12180650D02*
X12024943Y-12190174D01*
X12024943Y-12190174D02*
X12034467Y-12199698D01*
X12034467Y-12199698D02*
X12043991Y-12218746D01*
X12043991Y-12218746D02*
X12043991Y-12275888D01*
X12043991Y-12275888D02*
X12034467Y-12294936D01*
X12034467Y-12294936D02*
X12024943Y-12304460D01*
X12024943Y-12304460D02*
X12005896Y-12313984D01*
X12005896Y-12313984D02*
X11967801Y-12313984D01*
X11967801Y-12313984D02*
X11948753Y-12304460D01*
X12129705Y-12294936D02*
X12139229Y-12304460D01*
X12139229Y-12304460D02*
X12129705Y-12313984D01*
X12129705Y-12313984D02*
X12120182Y-12304460D01*
X12120182Y-12304460D02*
X12129705Y-12294936D01*
X12129705Y-12294936D02*
X12129705Y-12313984D01*
X12129705Y-12190174D02*
X12139229Y-12199698D01*
X12139229Y-12199698D02*
X12129705Y-12209222D01*
X12129705Y-12209222D02*
X12120182Y-12199698D01*
X12120182Y-12199698D02*
X12129705Y-12190174D01*
X12129705Y-12190174D02*
X12129705Y-12209222D01*
X10297500Y-12542500D02*
X10497500Y-12742500D01*
X10497500Y-12542500D02*
X10297500Y-12742500D01*
X10748753Y-12553031D02*
X10758277Y-12543508D01*
X10758277Y-12543508D02*
X10777324Y-12533984D01*
X10777324Y-12533984D02*
X10824944Y-12533984D01*
X10824944Y-12533984D02*
X10843991Y-12543508D01*
X10843991Y-12543508D02*
X10853515Y-12553031D01*
X10853515Y-12553031D02*
X10863039Y-12572079D01*
X10863039Y-12572079D02*
X10863039Y-12591127D01*
X10863039Y-12591127D02*
X10853515Y-12619698D01*
X10853515Y-12619698D02*
X10739229Y-12733984D01*
X10739229Y-12733984D02*
X10863039Y-12733984D01*
X10948753Y-12714936D02*
X10958277Y-12724460D01*
X10958277Y-12724460D02*
X10948753Y-12733984D01*
X10948753Y-12733984D02*
X10939229Y-12724460D01*
X10939229Y-12724460D02*
X10948753Y-12714936D01*
X10948753Y-12714936D02*
X10948753Y-12733984D01*
X11024944Y-12533984D02*
X11158277Y-12533984D01*
X11158277Y-12533984D02*
X11072563Y-12733984D01*
X11272562Y-12533984D02*
X11291610Y-12533984D01*
X11291610Y-12533984D02*
X11310658Y-12543508D01*
X11310658Y-12543508D02*
X11320182Y-12553031D01*
X11320182Y-12553031D02*
X11329705Y-12572079D01*
X11329705Y-12572079D02*
X11339229Y-12610174D01*
X11339229Y-12610174D02*
X11339229Y-12657793D01*
X11339229Y-12657793D02*
X11329705Y-12695888D01*
X11329705Y-12695888D02*
X11320182Y-12714936D01*
X11320182Y-12714936D02*
X11310658Y-12724460D01*
X11310658Y-12724460D02*
X11291610Y-12733984D01*
X11291610Y-12733984D02*
X11272562Y-12733984D01*
X11272562Y-12733984D02*
X11253515Y-12724460D01*
X11253515Y-12724460D02*
X11243991Y-12714936D01*
X11243991Y-12714936D02*
X11234467Y-12695888D01*
X11234467Y-12695888D02*
X11224943Y-12657793D01*
X11224943Y-12657793D02*
X11224943Y-12610174D01*
X11224943Y-12610174D02*
X11234467Y-12572079D01*
X11234467Y-12572079D02*
X11243991Y-12553031D01*
X11243991Y-12553031D02*
X11253515Y-12543508D01*
X11253515Y-12543508D02*
X11272562Y-12533984D01*
X11463039Y-12533984D02*
X11482086Y-12533984D01*
X11482086Y-12533984D02*
X11501134Y-12543508D01*
X11501134Y-12543508D02*
X11510658Y-12553031D01*
X11510658Y-12553031D02*
X11520182Y-12572079D01*
X11520182Y-12572079D02*
X11529705Y-12610174D01*
X11529705Y-12610174D02*
X11529705Y-12657793D01*
X11529705Y-12657793D02*
X11520182Y-12695888D01*
X11520182Y-12695888D02*
X11510658Y-12714936D01*
X11510658Y-12714936D02*
X11501134Y-12724460D01*
X11501134Y-12724460D02*
X11482086Y-12733984D01*
X11482086Y-12733984D02*
X11463039Y-12733984D01*
X11463039Y-12733984D02*
X11443991Y-12724460D01*
X11443991Y-12724460D02*
X11434467Y-12714936D01*
X11434467Y-12714936D02*
X11424943Y-12695888D01*
X11424943Y-12695888D02*
X11415420Y-12657793D01*
X11415420Y-12657793D02*
X11415420Y-12610174D01*
X11415420Y-12610174D02*
X11424943Y-12572079D01*
X11424943Y-12572079D02*
X11434467Y-12553031D01*
X11434467Y-12553031D02*
X11443991Y-12543508D01*
X11443991Y-12543508D02*
X11463039Y-12533984D01*
X11615420Y-12733984D02*
X11615420Y-12600650D01*
X11615420Y-12619698D02*
X11624943Y-12610174D01*
X11624943Y-12610174D02*
X11643991Y-12600650D01*
X11643991Y-12600650D02*
X11672563Y-12600650D01*
X11672563Y-12600650D02*
X11691610Y-12610174D01*
X11691610Y-12610174D02*
X11701134Y-12629222D01*
X11701134Y-12629222D02*
X11701134Y-12733984D01*
X11701134Y-12629222D02*
X11710658Y-12610174D01*
X11710658Y-12610174D02*
X11729705Y-12600650D01*
X11729705Y-12600650D02*
X11758277Y-12600650D01*
X11758277Y-12600650D02*
X11777324Y-12610174D01*
X11777324Y-12610174D02*
X11786848Y-12629222D01*
X11786848Y-12629222D02*
X11786848Y-12733984D01*
X11882086Y-12733984D02*
X11882086Y-12600650D01*
X11882086Y-12619698D02*
X11891610Y-12610174D01*
X11891610Y-12610174D02*
X11910658Y-12600650D01*
X11910658Y-12600650D02*
X11939229Y-12600650D01*
X11939229Y-12600650D02*
X11958277Y-12610174D01*
X11958277Y-12610174D02*
X11967801Y-12629222D01*
X11967801Y-12629222D02*
X11967801Y-12733984D01*
X11967801Y-12629222D02*
X11977324Y-12610174D01*
X11977324Y-12610174D02*
X11996372Y-12600650D01*
X11996372Y-12600650D02*
X12024943Y-12600650D01*
X12024943Y-12600650D02*
X12043991Y-12610174D01*
X12043991Y-12610174D02*
X12053515Y-12629222D01*
X12053515Y-12629222D02*
X12053515Y-12733984D01*
X12443991Y-12524460D02*
X12272563Y-12781603D01*
X12701134Y-12533984D02*
X12720182Y-12533984D01*
X12720182Y-12533984D02*
X12739229Y-12543508D01*
X12739229Y-12543508D02*
X12748753Y-12553031D01*
X12748753Y-12553031D02*
X12758277Y-12572079D01*
X12758277Y-12572079D02*
X12767801Y-12610174D01*
X12767801Y-12610174D02*
X12767801Y-12657793D01*
X12767801Y-12657793D02*
X12758277Y-12695888D01*
X12758277Y-12695888D02*
X12748753Y-12714936D01*
X12748753Y-12714936D02*
X12739229Y-12724460D01*
X12739229Y-12724460D02*
X12720182Y-12733984D01*
X12720182Y-12733984D02*
X12701134Y-12733984D01*
X12701134Y-12733984D02*
X12682086Y-12724460D01*
X12682086Y-12724460D02*
X12672563Y-12714936D01*
X12672563Y-12714936D02*
X12663039Y-12695888D01*
X12663039Y-12695888D02*
X12653515Y-12657793D01*
X12653515Y-12657793D02*
X12653515Y-12610174D01*
X12653515Y-12610174D02*
X12663039Y-12572079D01*
X12663039Y-12572079D02*
X12672563Y-12553031D01*
X12672563Y-12553031D02*
X12682086Y-12543508D01*
X12682086Y-12543508D02*
X12701134Y-12533984D01*
X12853515Y-12714936D02*
X12863039Y-12724460D01*
X12863039Y-12724460D02*
X12853515Y-12733984D01*
X12853515Y-12733984D02*
X12843991Y-12724460D01*
X12843991Y-12724460D02*
X12853515Y-12714936D01*
X12853515Y-12714936D02*
X12853515Y-12733984D01*
X13053515Y-12733984D02*
X12939229Y-12733984D01*
X12996372Y-12733984D02*
X12996372Y-12533984D01*
X12996372Y-12533984D02*
X12977325Y-12562555D01*
X12977325Y-12562555D02*
X12958277Y-12581603D01*
X12958277Y-12581603D02*
X12939229Y-12591127D01*
X13177325Y-12533984D02*
X13196372Y-12533984D01*
X13196372Y-12533984D02*
X13215420Y-12543508D01*
X13215420Y-12543508D02*
X13224944Y-12553031D01*
X13224944Y-12553031D02*
X13234467Y-12572079D01*
X13234467Y-12572079D02*
X13243991Y-12610174D01*
X13243991Y-12610174D02*
X13243991Y-12657793D01*
X13243991Y-12657793D02*
X13234467Y-12695888D01*
X13234467Y-12695888D02*
X13224944Y-12714936D01*
X13224944Y-12714936D02*
X13215420Y-12724460D01*
X13215420Y-12724460D02*
X13196372Y-12733984D01*
X13196372Y-12733984D02*
X13177325Y-12733984D01*
X13177325Y-12733984D02*
X13158277Y-12724460D01*
X13158277Y-12724460D02*
X13148753Y-12714936D01*
X13148753Y-12714936D02*
X13139229Y-12695888D01*
X13139229Y-12695888D02*
X13129706Y-12657793D01*
X13129706Y-12657793D02*
X13129706Y-12610174D01*
X13129706Y-12610174D02*
X13139229Y-12572079D01*
X13139229Y-12572079D02*
X13148753Y-12553031D01*
X13148753Y-12553031D02*
X13158277Y-12543508D01*
X13158277Y-12543508D02*
X13177325Y-12533984D01*
X13415420Y-12533984D02*
X13377325Y-12533984D01*
X13377325Y-12533984D02*
X13358277Y-12543508D01*
X13358277Y-12543508D02*
X13348753Y-12553031D01*
X13348753Y-12553031D02*
X13329706Y-12581603D01*
X13329706Y-12581603D02*
X13320182Y-12619698D01*
X13320182Y-12619698D02*
X13320182Y-12695888D01*
X13320182Y-12695888D02*
X13329706Y-12714936D01*
X13329706Y-12714936D02*
X13339229Y-12724460D01*
X13339229Y-12724460D02*
X13358277Y-12733984D01*
X13358277Y-12733984D02*
X13396372Y-12733984D01*
X13396372Y-12733984D02*
X13415420Y-12724460D01*
X13415420Y-12724460D02*
X13424944Y-12714936D01*
X13424944Y-12714936D02*
X13434467Y-12695888D01*
X13434467Y-12695888D02*
X13434467Y-12648269D01*
X13434467Y-12648269D02*
X13424944Y-12629222D01*
X13424944Y-12629222D02*
X13415420Y-12619698D01*
X13415420Y-12619698D02*
X13396372Y-12610174D01*
X13396372Y-12610174D02*
X13358277Y-12610174D01*
X13358277Y-12610174D02*
X13339229Y-12619698D01*
X13339229Y-12619698D02*
X13329706Y-12629222D01*
X13329706Y-12629222D02*
X13320182Y-12648269D01*
X13501134Y-12533984D02*
X13624944Y-12533984D01*
X13624944Y-12533984D02*
X13558277Y-12610174D01*
X13558277Y-12610174D02*
X13586848Y-12610174D01*
X13586848Y-12610174D02*
X13605896Y-12619698D01*
X13605896Y-12619698D02*
X13615420Y-12629222D01*
X13615420Y-12629222D02*
X13624944Y-12648269D01*
X13624944Y-12648269D02*
X13624944Y-12695888D01*
X13624944Y-12695888D02*
X13615420Y-12714936D01*
X13615420Y-12714936D02*
X13605896Y-12724460D01*
X13605896Y-12724460D02*
X13586848Y-12733984D01*
X13586848Y-12733984D02*
X13529706Y-12733984D01*
X13529706Y-12733984D02*
X13510658Y-12724460D01*
X13510658Y-12724460D02*
X13501134Y-12714936D01*
X13701134Y-12533984D02*
X13701134Y-12572079D01*
X13777325Y-12533984D02*
X13777325Y-12572079D01*
X14072563Y-12810174D02*
X14063039Y-12800650D01*
X14063039Y-12800650D02*
X14043991Y-12772079D01*
X14043991Y-12772079D02*
X14034468Y-12753031D01*
X14034468Y-12753031D02*
X14024944Y-12724460D01*
X14024944Y-12724460D02*
X14015420Y-12676841D01*
X14015420Y-12676841D02*
X14015420Y-12638746D01*
X14015420Y-12638746D02*
X14024944Y-12591127D01*
X14024944Y-12591127D02*
X14034468Y-12562555D01*
X14034468Y-12562555D02*
X14043991Y-12543508D01*
X14043991Y-12543508D02*
X14063039Y-12514936D01*
X14063039Y-12514936D02*
X14072563Y-12505412D01*
X14129706Y-12533984D02*
X14253515Y-12533984D01*
X14253515Y-12533984D02*
X14186848Y-12610174D01*
X14186848Y-12610174D02*
X14215420Y-12610174D01*
X14215420Y-12610174D02*
X14234468Y-12619698D01*
X14234468Y-12619698D02*
X14243991Y-12629222D01*
X14243991Y-12629222D02*
X14253515Y-12648269D01*
X14253515Y-12648269D02*
X14253515Y-12695888D01*
X14253515Y-12695888D02*
X14243991Y-12714936D01*
X14243991Y-12714936D02*
X14234468Y-12724460D01*
X14234468Y-12724460D02*
X14215420Y-12733984D01*
X14215420Y-12733984D02*
X14158277Y-12733984D01*
X14158277Y-12733984D02*
X14139229Y-12724460D01*
X14139229Y-12724460D02*
X14129706Y-12714936D01*
X14491610Y-12733984D02*
X14491610Y-12533984D01*
X14577325Y-12733984D02*
X14577325Y-12629222D01*
X14577325Y-12629222D02*
X14567801Y-12610174D01*
X14567801Y-12610174D02*
X14548753Y-12600650D01*
X14548753Y-12600650D02*
X14520182Y-12600650D01*
X14520182Y-12600650D02*
X14501134Y-12610174D01*
X14501134Y-12610174D02*
X14491610Y-12619698D01*
X14701134Y-12733984D02*
X14682087Y-12724460D01*
X14682087Y-12724460D02*
X14672563Y-12714936D01*
X14672563Y-12714936D02*
X14663039Y-12695888D01*
X14663039Y-12695888D02*
X14663039Y-12638746D01*
X14663039Y-12638746D02*
X14672563Y-12619698D01*
X14672563Y-12619698D02*
X14682087Y-12610174D01*
X14682087Y-12610174D02*
X14701134Y-12600650D01*
X14701134Y-12600650D02*
X14729706Y-12600650D01*
X14729706Y-12600650D02*
X14748753Y-12610174D01*
X14748753Y-12610174D02*
X14758277Y-12619698D01*
X14758277Y-12619698D02*
X14767801Y-12638746D01*
X14767801Y-12638746D02*
X14767801Y-12695888D01*
X14767801Y-12695888D02*
X14758277Y-12714936D01*
X14758277Y-12714936D02*
X14748753Y-12724460D01*
X14748753Y-12724460D02*
X14729706Y-12733984D01*
X14729706Y-12733984D02*
X14701134Y-12733984D01*
X14882087Y-12733984D02*
X14863039Y-12724460D01*
X14863039Y-12724460D02*
X14853515Y-12705412D01*
X14853515Y-12705412D02*
X14853515Y-12533984D01*
X15034468Y-12724460D02*
X15015420Y-12733984D01*
X15015420Y-12733984D02*
X14977325Y-12733984D01*
X14977325Y-12733984D02*
X14958277Y-12724460D01*
X14958277Y-12724460D02*
X14948753Y-12705412D01*
X14948753Y-12705412D02*
X14948753Y-12629222D01*
X14948753Y-12629222D02*
X14958277Y-12610174D01*
X14958277Y-12610174D02*
X14977325Y-12600650D01*
X14977325Y-12600650D02*
X15015420Y-12600650D01*
X15015420Y-12600650D02*
X15034468Y-12610174D01*
X15034468Y-12610174D02*
X15043991Y-12629222D01*
X15043991Y-12629222D02*
X15043991Y-12648269D01*
X15043991Y-12648269D02*
X14948753Y-12667317D01*
X15120182Y-12724460D02*
X15139230Y-12733984D01*
X15139230Y-12733984D02*
X15177325Y-12733984D01*
X15177325Y-12733984D02*
X15196372Y-12724460D01*
X15196372Y-12724460D02*
X15205896Y-12705412D01*
X15205896Y-12705412D02*
X15205896Y-12695888D01*
X15205896Y-12695888D02*
X15196372Y-12676841D01*
X15196372Y-12676841D02*
X15177325Y-12667317D01*
X15177325Y-12667317D02*
X15148753Y-12667317D01*
X15148753Y-12667317D02*
X15129706Y-12657793D01*
X15129706Y-12657793D02*
X15120182Y-12638746D01*
X15120182Y-12638746D02*
X15120182Y-12629222D01*
X15120182Y-12629222D02*
X15129706Y-12610174D01*
X15129706Y-12610174D02*
X15148753Y-12600650D01*
X15148753Y-12600650D02*
X15177325Y-12600650D01*
X15177325Y-12600650D02*
X15196372Y-12610174D01*
X15272563Y-12810174D02*
X15282087Y-12800650D01*
X15282087Y-12800650D02*
X15301134Y-12772079D01*
X15301134Y-12772079D02*
X15310658Y-12753031D01*
X15310658Y-12753031D02*
X15320182Y-12724460D01*
X15320182Y-12724460D02*
X15329706Y-12676841D01*
X15329706Y-12676841D02*
X15329706Y-12638746D01*
X15329706Y-12638746D02*
X15320182Y-12591127D01*
X15320182Y-12591127D02*
X15310658Y-12562555D01*
X15310658Y-12562555D02*
X15301134Y-12543508D01*
X15301134Y-12543508D02*
X15282087Y-12514936D01*
X15282087Y-12514936D02*
X15272563Y-12505412D01*
X15634468Y-12810174D02*
X15624944Y-12800650D01*
X15624944Y-12800650D02*
X15605896Y-12772079D01*
X15605896Y-12772079D02*
X15596372Y-12753031D01*
X15596372Y-12753031D02*
X15586849Y-12724460D01*
X15586849Y-12724460D02*
X15577325Y-12676841D01*
X15577325Y-12676841D02*
X15577325Y-12638746D01*
X15577325Y-12638746D02*
X15586849Y-12591127D01*
X15586849Y-12591127D02*
X15596372Y-12562555D01*
X15596372Y-12562555D02*
X15605896Y-12543508D01*
X15605896Y-12543508D02*
X15624944Y-12514936D01*
X15624944Y-12514936D02*
X15634468Y-12505412D01*
X15710658Y-12600650D02*
X15710658Y-12733984D01*
X15710658Y-12619698D02*
X15720182Y-12610174D01*
X15720182Y-12610174D02*
X15739230Y-12600650D01*
X15739230Y-12600650D02*
X15767801Y-12600650D01*
X15767801Y-12600650D02*
X15786849Y-12610174D01*
X15786849Y-12610174D02*
X15796372Y-12629222D01*
X15796372Y-12629222D02*
X15796372Y-12733984D01*
X15920182Y-12733984D02*
X15901134Y-12724460D01*
X15901134Y-12724460D02*
X15891611Y-12714936D01*
X15891611Y-12714936D02*
X15882087Y-12695888D01*
X15882087Y-12695888D02*
X15882087Y-12638746D01*
X15882087Y-12638746D02*
X15891611Y-12619698D01*
X15891611Y-12619698D02*
X15901134Y-12610174D01*
X15901134Y-12610174D02*
X15920182Y-12600650D01*
X15920182Y-12600650D02*
X15948753Y-12600650D01*
X15948753Y-12600650D02*
X15967801Y-12610174D01*
X15967801Y-12610174D02*
X15977325Y-12619698D01*
X15977325Y-12619698D02*
X15986849Y-12638746D01*
X15986849Y-12638746D02*
X15986849Y-12695888D01*
X15986849Y-12695888D02*
X15977325Y-12714936D01*
X15977325Y-12714936D02*
X15967801Y-12724460D01*
X15967801Y-12724460D02*
X15948753Y-12733984D01*
X15948753Y-12733984D02*
X15920182Y-12733984D01*
X16043992Y-12600650D02*
X16120182Y-12600650D01*
X16072563Y-12533984D02*
X16072563Y-12705412D01*
X16072563Y-12705412D02*
X16082087Y-12724460D01*
X16082087Y-12724460D02*
X16101134Y-12733984D01*
X16101134Y-12733984D02*
X16120182Y-12733984D01*
X16339230Y-12600650D02*
X16339230Y-12800650D01*
X16339230Y-12610174D02*
X16358277Y-12600650D01*
X16358277Y-12600650D02*
X16396373Y-12600650D01*
X16396373Y-12600650D02*
X16415420Y-12610174D01*
X16415420Y-12610174D02*
X16424944Y-12619698D01*
X16424944Y-12619698D02*
X16434468Y-12638746D01*
X16434468Y-12638746D02*
X16434468Y-12695888D01*
X16434468Y-12695888D02*
X16424944Y-12714936D01*
X16424944Y-12714936D02*
X16415420Y-12724460D01*
X16415420Y-12724460D02*
X16396373Y-12733984D01*
X16396373Y-12733984D02*
X16358277Y-12733984D01*
X16358277Y-12733984D02*
X16339230Y-12724460D01*
X16548753Y-12733984D02*
X16529706Y-12724460D01*
X16529706Y-12724460D02*
X16520182Y-12705412D01*
X16520182Y-12705412D02*
X16520182Y-12533984D01*
X16710658Y-12733984D02*
X16710658Y-12629222D01*
X16710658Y-12629222D02*
X16701134Y-12610174D01*
X16701134Y-12610174D02*
X16682087Y-12600650D01*
X16682087Y-12600650D02*
X16643992Y-12600650D01*
X16643992Y-12600650D02*
X16624944Y-12610174D01*
X16710658Y-12724460D02*
X16691611Y-12733984D01*
X16691611Y-12733984D02*
X16643992Y-12733984D01*
X16643992Y-12733984D02*
X16624944Y-12724460D01*
X16624944Y-12724460D02*
X16615420Y-12705412D01*
X16615420Y-12705412D02*
X16615420Y-12686365D01*
X16615420Y-12686365D02*
X16624944Y-12667317D01*
X16624944Y-12667317D02*
X16643992Y-12657793D01*
X16643992Y-12657793D02*
X16691611Y-12657793D01*
X16691611Y-12657793D02*
X16710658Y-12648269D01*
X16777325Y-12600650D02*
X16853515Y-12600650D01*
X16805896Y-12533984D02*
X16805896Y-12705412D01*
X16805896Y-12705412D02*
X16815420Y-12724460D01*
X16815420Y-12724460D02*
X16834468Y-12733984D01*
X16834468Y-12733984D02*
X16853515Y-12733984D01*
X16996373Y-12724460D02*
X16977325Y-12733984D01*
X16977325Y-12733984D02*
X16939230Y-12733984D01*
X16939230Y-12733984D02*
X16920182Y-12724460D01*
X16920182Y-12724460D02*
X16910658Y-12705412D01*
X16910658Y-12705412D02*
X16910658Y-12629222D01*
X16910658Y-12629222D02*
X16920182Y-12610174D01*
X16920182Y-12610174D02*
X16939230Y-12600650D01*
X16939230Y-12600650D02*
X16977325Y-12600650D01*
X16977325Y-12600650D02*
X16996373Y-12610174D01*
X16996373Y-12610174D02*
X17005896Y-12629222D01*
X17005896Y-12629222D02*
X17005896Y-12648269D01*
X17005896Y-12648269D02*
X16910658Y-12667317D01*
X17177325Y-12733984D02*
X17177325Y-12533984D01*
X17177325Y-12724460D02*
X17158277Y-12733984D01*
X17158277Y-12733984D02*
X17120182Y-12733984D01*
X17120182Y-12733984D02*
X17101135Y-12724460D01*
X17101135Y-12724460D02*
X17091611Y-12714936D01*
X17091611Y-12714936D02*
X17082087Y-12695888D01*
X17082087Y-12695888D02*
X17082087Y-12638746D01*
X17082087Y-12638746D02*
X17091611Y-12619698D01*
X17091611Y-12619698D02*
X17101135Y-12610174D01*
X17101135Y-12610174D02*
X17120182Y-12600650D01*
X17120182Y-12600650D02*
X17158277Y-12600650D01*
X17158277Y-12600650D02*
X17177325Y-12610174D01*
X17253516Y-12810174D02*
X17263039Y-12800650D01*
X17263039Y-12800650D02*
X17282087Y-12772079D01*
X17282087Y-12772079D02*
X17291611Y-12753031D01*
X17291611Y-12753031D02*
X17301135Y-12724460D01*
X17301135Y-12724460D02*
X17310658Y-12676841D01*
X17310658Y-12676841D02*
X17310658Y-12638746D01*
X17310658Y-12638746D02*
X17301135Y-12591127D01*
X17301135Y-12591127D02*
X17291611Y-12562555D01*
X17291611Y-12562555D02*
X17282087Y-12543508D01*
X17282087Y-12543508D02*
X17263039Y-12514936D01*
X17263039Y-12514936D02*
X17253516Y-12505412D01*
M02*
