M48
; DRILL file KiCad 10.0.1 date 2026-05-25T22:35:40
; FORMAT={-:-/ absolute / metric / decimal}
; #@! TF.CreationDate,2026-05-25T22:35:40+01:00
; #@! TF.GenerationSoftware,Kicad,Pcbnew,10.0.1
; #@! TF.FileFunction,Plated,1,2,PTH
FMAT,2
METRIC
; #@! TA.AperFunction,Plated,PTH,ViaDrill
T1C0.300
; #@! TA.AperFunction,Plated,PTH,ComponentDrill
T2C0.600
; #@! TA.AperFunction,Plated,PTH,ComponentDrill
T3C0.700
; #@! TA.AperFunction,Plated,PTH,ComponentDrill
T4C0.750
; #@! TA.AperFunction,Plated,PTH,ComponentDrill
T5C0.800
; #@! TA.AperFunction,Plated,PTH,ComponentDrill
T6C1.000
; #@! TA.AperFunction,Plated,PTH,ComponentDrill
T7C1.016
; #@! TA.AperFunction,Plated,PTH,ComponentDrill
T8C1.020
; #@! TA.AperFunction,Plated,PTH,ComponentDrill
T9C1.100
; #@! TA.AperFunction,Plated,PTH,ComponentDrill
T10C1.300
; #@! TA.AperFunction,Plated,PTH,ComponentDrill
T11C3.000
%
G90
G05
T1
X154.0Y-84.0
X154.0Y-89.0
X165.36Y-99.0
X174.0Y-86.0
T2
X159.3Y-83.5
X162.9Y-83.5
X166.5Y-83.5
T3
X145.5Y-103.0
X145.5Y-107.5
X151.5Y-103.0
X151.5Y-107.5
X158.0Y-116.0
X178.5Y-65.0
X178.5Y-74.5
T4
X174.0Y-113.0
X176.0Y-113.0
T5
X158.69Y-99.0
X158.69Y-104.0
X158.88Y-88.5
X158.88Y-93.5
X166.31Y-99.0
X166.31Y-104.0
X166.5Y-88.5
X166.5Y-93.5
X175.5Y-83.5
X175.5Y-88.0
X175.5Y-95.0
X178.0Y-83.5
X178.0Y-88.0
X180.5Y-95.0
T6
X159.25Y-51.42
X159.25Y-53.96
X159.25Y-56.5
X171.0Y-51.42
X171.0Y-53.96
X171.0Y-56.5
T7
X119.76Y-86.86
X119.76Y-89.4
X147.0Y-55.84
X147.0Y-58.38
X147.0Y-60.92
X147.0Y-63.46
X147.0Y-66.0
X147.0Y-68.54
X147.0Y-71.08
X147.0Y-73.62
X147.0Y-76.16
X147.0Y-78.7
X147.0Y-81.24
X147.0Y-83.78
X147.0Y-86.32
X149.54Y-55.84
X149.54Y-58.38
X149.54Y-60.92
X149.54Y-63.46
X149.54Y-66.0
X149.54Y-68.54
X149.54Y-71.08
X149.54Y-73.62
X149.54Y-76.16
X149.54Y-78.7
X149.54Y-81.24
X149.54Y-83.78
X149.54Y-86.32
T8
X160.02Y-68.71
X160.02Y-71.25
X160.02Y-73.79
X160.02Y-76.33
T9
X155.92Y-111.0
X166.08Y-111.0
T10
X130.75Y-114.0
X135.95Y-114.0
X146.05Y-114.0
X151.25Y-114.0
T11
X112.4Y-93.33
X147.9Y-47.33
X147.9Y-93.33
M30
